<svg xmlns="http://www.w3.org/2000/svg" viewBox="0 0 396 612" style="enable-background:new 0 0 396 612" xml:space="preserve"><path style="fill:#7dc5b0" d="M0 0h396v612H0z"/><path d="M367.6 37.9V26.6h-41.8l3.5 2h13l.1.1 6.4 11.1 3.5 2-7.6-13.2h11.6v9.3h9.4v11.5l-4.5-2.6-8.7-5 .2.3-.2-.3-3.1-1.8-2.8-1.6-5.6-3.2-6.2 6.1 2.3-8.4-1.7-1-1-.6-4.9-2.8-3.5-2h-13.2l-2.3 8.4-2.2-8.4h-12.8l-.7.4-2.8 1.6-1 .5-5.1 2.9-2.1 1.2 2.3 8.4-6.2-6.1-7.6 4.4 6.5-11.1h13l.4-.3 3.1-1.8h-81.5l3.5 2h13l.1.1 6.4 11.1 3.5 2-7.6-13.2h11.6v9.3h9.3v11.5l-4.5-2.6-8.7-5 .2.3-.2-.3-3.1-1.8-2.8-1.6-5.6-3.2-6.2 6.1 2.3-8.4-1.7-1-1-.6-4.9-2.8-3.5-2h-13.2l-2.3 8.4-2.2-8.4h-12.8l-.7.4-2.8 1.6-.7.4-5.1 2.9L172 33l2.3 8.4-6.2-6.1-7.6 4.4 6.5-11.1h13l.4-.3 3.1-1.8h-81.6l3.5 2h13l.1.1 6.4 11.1 3.5 2-7.6-13.2h11.6v9.3h9.4v11.5l-4.5-2.6-8.7-5 .2.3-.2-.3-3.1-1.8-2.8-1.6-5.6-3.2-6.2 6.1 2.3-8.4-1.7-1-1-.6-4.9-2.8-3.5-2H88.9L86 34.7l-2.2-8.4H71l-.7.4-2.8 1.6-.7.4-5.1 2.9-2.1 1.2 2.3 8.4-6.2-6.1-7.6 4.4 6.5-11.1h13l.4-.3 3.1-1.8-41.8-.1L29 60v20.8l8.4 2.3-8.4 2.3v12.7l.5.8 1.2 2.1.1.2.2.4 1.8 3 2.4 4.1.4.7 6.7-1.8 1.8-.5-6.2 6.1.3.5 2.2 3.8 1.9 3.2-11.3-6.2v-12.9l-.2-.4-1.3-2.3-.5-.8v94.1l8.4 2.3-8.4 2.2v12.7l.5.8 1.2 2.1.1.2.2.4 1.8 3 2.4 4.1.4.7 6.7-1.8 1.8-.5-6.2 6.1.3.5 2.2 3.9 1.9 3.2-11.2-6.5v-12.9l-.2-.4-1.3-2.3-.5-.8v94.1l8.4 2.3-8.4 2.2v12.7l.5.8 1.2 2.1.1.2.2.4 1.8 3 2.4 4.1.4.7 6.7-1.8 1.8-.5-6.2 6.1.3.5 2.2 3.8 1.9 3.2-11.2-6.5v-12.9l-.2-.4-1.3-2.3-.5-.8v94.2l8.4 2.3-8.4 2.2v12.7l.5.8 1.2 2.1.1.2.2.4 1.8 3 2.4 4.1.4.7 6.7-1.8 1.8-.5-6.2 6.1.3.5 2.2 3.9 1.9 3.2-11.2-6.5v-12.9l-.2-.4-1.3-2.3-.5-.8v94.1l8.4 2.3-8.4 2.2v12.7l.5.8 1.2 2.1.1.2.2.4 1.8 3 2.4 4.1.4.7 6.7-1.8 1.8-.5-6.2 6.1.3.5 2.2 3.9 1.9 3.2-11.2-6.5V546l-.2-.4-1.3-2.3-.5-.8-.1 41.5h55l2.3-8.4 2.3 8.4h12.9l.2-.1h.1l1.2-.7 1.7-1 .2-.1h.1l.2-.1 6.1-3.5 1.8-1-2.3-8.4 6.2 6.1 2.5-1.4 1.8-1 3.3-1.9-6.5 11.1h-13l-.2.1h-.1l-.2.1-1.7 1-1.2.7h-.1l-.2.1h94.8l2.3-8.4 2.3 8.4H214l.2-.1h.1l1.2-.7 1.7-1 .2-.1h.1l.2-.1 6.1-3.5 1.8-1-2.3-8.4 6.2 6.1 2.5-1.4 1.8-1 3.3-1.9-6.5 11.1h-13l-.2.1h-.1l-.2.1-1.7 1-1.2.7h-.1l-.2.1h94.8l2.3-8.4 2.3 8.4h12.9l.2-.1h.1l1.2-.7 1.7-1 .2-.1h.1l.2-.1 6.1-3.5 1.8-1-2.3-8.4 6.2 6.1 2.5-1.4 1.8-1 3.3-1.9-6.5 11.1h-13l-.2.1h-.1l-.2.1-1.7 1-1.2.7h-.1l-.2.1 41.8.1.1-41.5v-13.1l-8.4-2.3 8.5-2.2v-12.8l-1.3-2.2-.1-.2-.1-.1-.3-.6 1.3 2.2.5.9v-94.1l-8.4-2.3 8.5-2.2v-12.8l-1.3-2.2-.1-.2-.1-.1-.3-.6 1.3 2.2.5.9v-94.2l-8.4-2.3 8.5-2.2v-12.8l-1.3-2.2-.1-.2-.1-.1-.3-.6 1.2 2.2.5.9v-94.1l-8.4-2.3 8.5-2.2v-12.8l-1.3-2.2-.1-.2-.1-.1-.3-.6 1.3 2.2.5.9V83.8l-8.4-2.3 8.5-2.2V66.5l-1.3-2.2-.1-.2-.1-.1-.3-.6 1.3 2.2.5.9V49.6l-.8-11.7zm-2.1-2h-7.3v-7.3h7.3v7.3zm-224.3-.3h-7.3v-7.3h7.3v7.3zm224.3 29 .2.4-.2-.4zm0-12.8v12.9l-.2-.4-4.4-7.5-8.4 2.2 6.2-6.1-.8-1.4-.8-1.3-2.8-4.9 11.2 6.5zm-24.3-14.1 7 4 1.2.7 1.4.8 2.7 4.7 2.7 4.6-7.6 7.5-17.8 4.7-1.4.4-.9.2-.2.1-.2.1 5.5-20.2 7.6-7.6zm-4.9 41.5 14.9 4-18.1 4.8-4.9-4.9 4.8-4.8-1.3-.3 1 .3h.2l3.4.9zm29.1 60.9v7.3h-7.3v-7.3h7.3zm-36.2-.1h13l.1.1 6.4 11.1 3.5 2-7.6-13.2h11.6v9.3h9.4v11.5l-4.5-2.6-8.7-5 .1.2-.1-.2-3.1-1.8-2.8-1.6-5.6-3.2-6.2 6.1 2.3-8.4-1.7-1-1-.6-5.1-2.7zm36 35.7-4.4-7.5-8.4 2.2 6.2-6.1-.8-1.4-.8-1.3-2.8-4.9 11.2 6.5v12.9l-.2-.4zm-29 14.9 14.9 4-18.1 4.8-4.9-4.9 4.8-4.8-1.3-.3 1 .3h.2l3.4.9zm29.1 60.9v7.3H358v-7.3h7.3zm-36.3-.1h13l.1.1 6.4 11.1 3.5 2-7.6-13.2H356v9.3h9.4v11.5l-4.5-2.6-8.7-5 .2.3-.2-.3-3.1-1.8-2.8-1.6-5.6-3.2-6.2 6.1 2.3-8.4-1.7-1-1-.6-5.1-2.7zm36 35.7-4.4-7.5-8.4 2.2 6.2-6.1-.8-1.4-.8-1.3-2.8-4.9 11.2 6.5v12.9l-.2-.4zM336 302l14.9 4-18.1 4.8-4.9-4.9 4.8-4.8-1.3-.3 1 .3h.2l3.4.9zm29.1 61v7.3h-7.3V363h7.3zm-36.2-.1h13l.1.1 6.4 11.1 3.5 2-7.6-13.2h11.6v9.3h9.4v11.5l-4.5-2.6-8.7-5 .2.3-.2-.3-3.1-1.8-2.8-1.6-5.6-3.2-6.2 6.1 2.3-8.4-1.7-1-1-.6-5.1-2.7zm36 35.7-4.4-7.5-8.4 2.2 6.2-6.1-.8-1.4-.8-1.3-2.8-4.9 11.2 6.5V399l-.2-.4zm-29 14.9 14.9 4-18.1 4.8-4.9-4.9 4.8-4.8-1.3-.3 1 .3h.2l3.4.9zm28.8 96.5-4.4-7.5-8.4 2.2 6.2-6.1-.8-1.4-.8-1.3-2.8-4.9 11.2 6.5v12.9l-.2-.4zm-28.9 14.9 14.9 4-18.1 4.8-4.9-4.9 4.8-4.8-1.3-.3 1 .3h.2l3.4.9zm-95.9 28 3.9 1 2.3.6 2.3.6 2.3-3.9 2.1-3.6v12.9l-.1.1-11.2 6.4-.3.4-.3.5.3-.5.3-.4.1-.2 4.4-7.5.1-.2-6.2-6.2zm-97.3-5.4 1.8 3.1 2.4 4.1.4.7 6.7-1.8 1.8-.5-6.2 6.1.3.5 2.2 3.9 1.9 3.2-11.2-6.5-.1-12.8zM63.5 536l6.7 1.8-1.8 6.5 1.9-.5-5.1 1.4-14.9 4L63.5 536zm-.6-2.3-3.3-.9-14.9-4 18.1-4.8 4.9 4.9-4.8 4.8zm9.5 11.7 4.5-1.2 1.8 6.5-13.3 13.2 4.9-17.9 2.1-.6zm5.9-3.7-7.5 2 .1-.4 1.9-7-7.5-2 5.4-5.4-5.5-5.5 7.4-2-2-7.5-.1-.4-.5-1.9-.9-3.2-4-14.8 13.2 13.2-1.8 6.7-6.6-1.8.5 1.9.1.4.4.1 7 1.9 2-7.5 5.4 5.4 5.5-5.5 2 7.3 7.5-2-.1.4-1.9 7 7.5 2-5.4 5.4 5.5 5.5-7.4 2 2 7.5-.4-.1-7-1.9-2 7.5-5.4-5.4-5.5 5.5-1.9-7.4zM53.8 474h13l-.7.4-5.1 2.9-2.1 1.2 2.3 8.4-6.2-6.1-7.6 4.4 6.4-11.2zm16.8-71.4-.1-.4-.5-1.9-.9-3.2-4-14.8 13.2 13.2-1.8 6.7-6.6-1.8.5 1.9.2.3.4.1 7 1.9 2-7.5 5.4 5.4L91 397l2 7.3 7.5-2-.1.4-1.9 7 7.5 2-5.4 5.4 5.5 5.5-7.4 2 2 7.5-.4-.1-7-1.9-2 7.5-5.4-5.4-5.5 5.5-2-7.3-7.5 2 .1-.4 1.9-7-7.5-2 5.4-5.4-5.5-5.5 7.4-2-2.1-7.5zm-16.6-40h13l.1-.1-.1.1-.7.4-5.1 2.9-2.1 1.2 2.3 8.4-6.2-6.1-7.6 4.4 6.4-11.2zm16.8-71.5-.1-.4-.5-1.9-.9-3.2-4-14.8L78.5 284l-1.8 6.7-6.6-1.8.5 1.9.2.3.4.1 7 1.9 2-7.5 5.4 5.4 5.5-5.5 2 7.3 7.5-2-.1.4-1.9 7 7.5 2-5.4 5.4 5.5 5.5-7.4 2 2 7.5-.4-.1-7-1.9-2 7.5-5.4-5.4-5.5 5.5-2-7.3-7.5 2 .1-.4 1.9-7-7.5-2 5.4-5.4-5.5-5.5 7.4-2-2-7.5zm-16.7-40h13l-.7.4-5.1 2.9-2.1 1.2 2.3 8.4-6.2-6.1-7.6 4.4 6.4-11.2zm16.8-71.4-.1-.4-.5-1.9-.9-3.2-4-14.8 13.2 13.2-1.8 6.7-6.6-1.8.5 1.9.2.3.4.1 7 1.9 2-7.5 5.4 5.4 5.5-5.5 2 7.3 7.5-2-.1.4-1.9 7 7.5 2-5.4 5.4 5.5 5.5-7.4 2 2 7.5-.4-.1-7-1.9-2 7.5-5.4-5.4-5.5 5.5-2-7.3-7.5 2 .1-.4 1.9-7-7.5-2 5.4-5.4-5.5-5.5 7.4-2-2-7.5zm-16.6-40h13l-.7.4-5.1 2.9-2.1 1.2 2.3 8.4-6.2-6.1-7.6 4.4 6.4-11.2zm16.8-71.4-.1-.4-.5-1.9-.9-3.2-4-14.8 13.2 13.2-1.8 6.6-6.5-1.8.5 1.9.1.4.4.1 7 1.9 2-7.5 5.4 5.4 5.5-5.5 2 7.3 7.5-2-.1.4-1.9 7 7.5 2-5.4 5.4 5.5 5.5-7.4 2 2 7.5-.4-.1-7-1.9-2 7.5-5.4-5.4-5.5 5.5-2-7.3-7.5 2 .1-.4 1.9-7-7.5-2 5.4-5.4-5.5-5.5 7.4-2-2-7.5zm68.6-2.4.5.8 1 1.8v10.7l-9 2.4-1.3.3-1.3.4 1.3-.4-11.1-3-6.6-1.8-1-.3-1.7-.5 14.9-14.8 6.2-1.6 4.1-1.1 4 7.1zm2.6.3zm-.7 14.9 8.1 2.2-6.8 1.8-8.1-2.2 6.8-1.8zM183.1 68l.1.4.4.1 7 1.9 2-7.5 5.4 5.4 5.5-5.5 2 7.3 7.5-2-.1.4-1.9 7 7.5 2-5.4 5.4 5.5 5.5-7.4 2 2 7.5-.4-.1-7-1.9-2 7.5-5.4-5.4-5.5 5.5-2-7.3-7.5 2 .1-.4 1.9-7-7.5-2 5.4-5.4-5.5-5.5 7.4-2-2-7.5-.1-.4-.5-1.9-.9-3.2-4-14.8L191 61.3l-1.8 6.7-6.6-1.8.5 1.8zm68.8-2 .5.8 1 1.8v10.7l-9 2.4-1.4.3-1.3.4 1.3-.4-11.1-3-6.6-1.8-1-.3-1.7-.5 14.9-14.8 6.2-1.6 4.1-1.1 4.1 7.1zm1.5-1.5zm41.9 3.7.1.4.4.1 7 1.9 2-7.5 5.4 5.4 5.5-5.5 2 7.3 7.5-2-.1.4-1.9 7 7.5 2-5.4 5.4 5.5 5.5-7.4 2 2 7.5-.4-.1-7-1.9-2 7.5-5.4-5.4-5.5 5.5-2-7.3-7.5 2 .1-.4 1.9-7-7.5-2 5.4-5.4L290 78l7.4-2-2-7.5-.1-.3-.5-1.9-.9-3.2-4-14.8 13.2 13.2-1.8 6.7-6.6-1.8.6 1.8zm22.1-6.9 13.3-13.2.7-2.5-.7 2.5-1.2 4.6-3.6 13.4-6.7 1.8-1.8-6.6zm17.5 63.8 6.2 6.1 2.5-1.4 1.8-1 3.3-1.9-6.5 11.1h-13l6.1-3.5 1.8-1-2.2-8.4zm-4.3 64-5.4 5.4 5.5 5.5-7.4 2 2 7.5-.4-.1-7-1.9-2 7.5-5.4-5.4-5.5 5.4-2-7.3-7.5 2 .1-.4 1.9-7-7.5-2 5.4-5.4-5.5-5.5 7.4-2-2-7.5-.1-.4-.5-1.9-.9-3.2-4-14.8 13.2 13.2-1.8 6.7-6.6-1.8.5 1.9.1.4.4.1 7 1.9 2-7.5 5.4 5.4 5.5-5.5 2 7.3 7.5-2-.1.4-1.9 7 7.6 2zm4.1 47.4 6.2 6.1 2.5-1.4 1.8-1 3.3-1.9-6.5 11.1h-13l6.1-3.5 1.8-1-2.2-8.4zm-4.2 64-5.4 5.4 5.5 5.5-7.4 2 2 7.5-.4-.1-7-1.9-2 7.5-5.4-5.4-5.5 5.5-2-7.3-7.5 2 .1-.4 1.9-7-7.5-2 5.4-5.4-5.5-5.5 7.4-2-2-7.5-.2-.4-.5-1.9-.9-3.2-4-14.8 13.2 13.2-1.8 6.7-6.6-1.8.5 1.9.1.4.4.1 7 1.9 2-7.5 5.4 5.4 5.5-5.5 2 7.3 7.5-2-.1.4-1.9 7 7.7 1.9zm4.1 47.4 6.2 6.1 2.5-1.4 1.8-1 3.3-1.9-6.5 11.1h-13l-.1.1.1-.1 6.1-3.5 1.8-1-2.2-8.4zm-4.2 64.1-5.4 5.4 5.5 5.5-7.4 2 2 7.5-.4-.1-7-1.9-2 7.5-5.4-5.4-5.5 5.5-2-7.3-7.5 2 .1-.4 1.9-7-7.5-2 5.4-5.4-5.5-5.5 7.4-2-2-7.5-.1-.4-.5-1.9-.9-3.2-4-14.8 13.2 13.2-1.8 6.7-6.6-1.8.5 1.9.1.4.4.1 7 1.9 2-7.5 5.4 5.4 5.5-5.5 2 7.3 7.5-2-.1.4-1.9 7 7.6 1.9zm4 47.4 6.2 6.1 2.5-1.4 1.8-1 3.3-1.9-6.5 11.1h-12.9l6.1-3.5 1.8-1-2.3-8.4zm-17.6 47.7 13.3-13.2.7-2.5-.7 2.5-1.2 4.6-3.6 13.4-6.7 1.8-1.8-6.6zm14.4-17.1-15 14.8-4.7-17.5-.7-2.7 2.8-10.3h11.1l9.3 5.4-2.4 9-.1.3-.3 1zm-22.5-5.4-4.8 17.6-.7 2.7-14.9-14.8-2.8-10.3 7.1-4 2.6-1.5h10.7l2.4 9 1.4 5.2 4.8 18-4.9 4.9-4.8-4.8.9-3.2 4-14.8-1-4zm-14 59.5-5.1 1.4-14.9 4 13.2-13.1 6.7 1.8-1.8 6.5 1.9-.6zm-63.4-19.4-6.6-1.8-1-.3-1.7-.5 14.9-14.8 6.2-1.6 4.1-1.1 4.1 7 .5.8 1 1.8v10.7l-9 2.4-1.3.3-1.3.4 1.3-.4-11.2-2.9zm-12.2-1.2 1 .3h.2l3.2.9 14.9 4-18.1 4.8-4.9-4.9 4.8-4.8-1.1-.3zm-14.4-16.6 13.3-13.2.7-2.5-.7 2.5-1.2 4.6-3.6 13.4-6.7 1.8-1.8-6.6zm-8.2-22.4-4.8 17.6-.7 2.7-14.9-14.8-2.8-10.3 7.1-4 2.6-1.5h10.7l2.4 9 1.4 5.2 4.8 18-4.9 4.9-4.8-4.8.9-3.2 4-14.8-1-4zm-14 59.4-5.1 1.4-14.9 4 13.2-13.1 6.7 1.8-1.8 6.5 1.9-.6zm-24 6.4-10.4 2.7-4-7-1.5-2.6v-10.7l9-2.4 1.3-.3 17.7 4.8 2.7.7-14.8 14.8zm16.6-16.4-3.3-.9-14.9-4 18.1-4.8 4.9 4.9-4.8 4.8zm.5-11.9-13.3-13.2-3.9-1.1 15 14.9-20 5.3-.4.1-2.2-.6-8.1-2.2v-11l3.3-5.6 2.1-3.6 9 2.4h.1l1.2.3 3.9 1.1 18.1 4.8.5 1.9 1.3 4.7-6.6 1.8zm-56.4 2.6-6.6-1.8-1-.3-1.7-.5 14.9-14.8 6.2-1.6 4.1-1.1 4.1 7 .5.8 1 1.8v10.7l-9 2.4-1.3.3-1.3.4 1.3-.4-11.2-2.9zm-12.3-1.2 1 .3h.2l3.2.9 14.9 4-18.1 4.8-4.9-4.9 4.8-4.8-1.1-.3zm-14.4-16.6 13.3-13.2.7-2.5-.7 2.5-1.2 4.6-3.6 13.4-6.7 1.8-1.8-6.6zm-8.1-22.5-4.8 17.6-.7 2.7L64 489.8l-2.8-10.3 7.1-4 2.6-1.5h10.7l2.4 9 1.4 5.2 4.8 18-4.9 4.9-4.8-4.8.9-3.2 4-14.8-1-4zM107 412l1 .3h.2l3.2.9 14.9 4-18.1 4.8-4.9-4.9 4.8-4.8-1.1-.3zm-14.3-16.6 13.3-13.2.7-2.5-.7 2.5-1.2 4.6-3.6 13.4-6.7 1.8-1.8-6.6zm-8.2-22.5-4.8 17.6-.7 2.7-14.9-14.8-2.8-10.3 7.1-4 2.6-1.5h10.7l2.4 9 1.4 5.2 4.8 18-4.9 4.9-4.8-4.8.9-3.2 4-14.8-1-4zm22.7-72.4 1 .3h.2l3.2.9 14.9 4-18.1 4.8-4.9-4.9 4.8-4.8-1.1-.3zm-14.4-16.6 13.3-13.2.7-2.5-.7 2.5-1.2 4.6-3.6 13.4-6.7 1.8-1.8-6.6zm-8.1-22.5L79.9 279l-.7 2.7-14.9-14.8-2.8-10.3 7.1-4 2.6-1.5h10.7l2.4 9 1.4 5.2 4.8 18-4.9 4.9-4.8-4.8.9-3.2 4-14.8-1-4zm22.6-72.3 1 .3h.2l3.2.9 14.9 4-18.1 4.8-4.9-4.9 4.8-4.8-1.1-.3zm-14.4-16.6 13.3-13.2.7-2.5-.7 2.5-1.2 4.6-3.6 13.4-6.7 1.8-1.8-6.6zM84.8 150 80 167.6l-.7 2.7-14.9-14.8-2.8-10.3 7.1-4 2.6-1.5H82l2.4 9 1.4 5.2 4.8 18-4.9 4.9-4.8-4.8.9-3.2 4-14.8-1-4zm22.7-72.3 1 .3h.2l3.2.9 14.9 4-18.1 4.8-4.9-4.9 4.8-4.8-1.1-.3zm75.6 20.5-5.1 1.4-14.9 4 13.2-13.1 6.7 1.8-1.8 6.5 1.9-.6zm11.4 18.6 2.9 10.8-1.1 3.9-1.7 6.3h-11.1l-6.7-3.8-2.6-1.5 2.4-9 .3-1.3 15-14.8 2.6 9.4zm25.1-39 1 .3h.2l3.2.9 14.9 4-17.9 4.8-4.9-4.9 4.8-4.8-1.3-.3zm34.1 3.4 8.1 2.2-6.8 1.8-8.1-2.2 6.8-1.8zm41.5 17.1-5.1 1.4-14.9 4 13.2-13.1 6.7 1.8-1.8 6.5 1.9-.6zm11.4 18.6 2.9 10.8-1.1 3.9-1.7 6.3h-11.1l-6.7-3.8-2.6-1.5 2.4-9 .3-1.3 15-14.8 2.6 9.4zm2.5 33.4-4.8 17.6-.7 2.7-14.9-14.8-2.8-10.3 7.1-4 2.6-1.5h10.7l2.4 9 1.4 5.2 4.8 18-4.9 4.9-4.8-4.8.9-3.2 4-14.8-1-4zm-14 59.5-5.1 1.4-14.9 4 13.2-13.1 6.7 1.8-1.8 6.5 1.9-.6zm11.4 18.5 2.9 10.8-1.1 3.9-1.7 6.3h-11.1l-6.7-3.8-2.6-1.5 2.4-9 .3-1.3 15-14.8 2.6 9.4zm2.5 33.4-4.8 17.6-.7 2.7-14.9-14.8-2.8-10.3 7.1-4 2.6-1.5h10.7l2.4 9 1.4 5.2 4.8 18-4.9 4.9-4.8-4.8.9-3.2 4-14.8-1-4zm-14 59.5-5.1 1.4-14.9 4 13.2-13.1 6.7 1.8-1.8 6.5 1.9-.6zm11.3 18.6 2.9 10.8-1.1 3.9-1.7 6.3h-11.1l-6.7-3.8-2.6-1.5 2.4-9 .3-1.3 15-14.8 2.6 9.4zm2.5 33.4-4.8 17.6-.7 2.7-14.9-14.8-2.8-10.3 7.1-4 2.6-1.5H306l2.4 9 1.4 5.2 4.8 18-4.9 4.9-4.8-4.8.9-3.2 4-14.8-1-4zm-14 59.4-5.1 1.4-14.9 4 13.2-13.1 6.7 1.8-1.8 6.5 1.9-.6zm11.4 18.6 2.9 10.8-1.1 3.9-1.7 6.3h-11.1l-6.7-3.8-2.6-1.5 2.4-9 .3-1.3 15-14.8 2.6 9.4zm-15.1 23.1-.7.4-5.1 2.9-2.1 1.2 2.3 8.4-6.2-6.1-7.6 4.4 6.5-11.1h11.6l1.3-.1zm-38.5 35.6-4.4-7.5-8.4 2.2 6.2-6.1-.8-1.4-.8-1.3-2.8-4.9 11.2 6.5v12.9l-.2-.4zm-30-32.3-1-.6-4.9-2.8h13l.1.1 6.4 11.1 3.5 2-7.6-13.2h11.6v9.3h9.3V495l-4.5-2.6-8.7-5 .2.3-.2-.3-3.1-1.8-2.8-1.6-5.6-3.2-6.2 6.1 2.3-8.4-1.8-.9zm-43.6-3.5-.7.4-5.1 2.9-2.1 1.2 2.3 8.4-6.2-6.1-7.6 4.4 6.5-11.1h11.6l1.3-.1zm-38.6 35.6-4.4-7.5-8.4 2.2 6.2-6.1-.8-1.3-.8-1.3-2.8-4.9 11.2 6.5v12.9l-.2-.5zm-9.1-11.7-7.6 7.5-17.8 4.7-1.4.4-.9.2-.2.1-.2.1 5.5-20.2 7.6-7.5 7 4 1.2.7 1.4.8 2.7 4.7 2.7 4.5zm9.4-14.6v11.5l-4.5-2.6-8.7-5 .2.3-.2-.3-3.1-1.8-2.8-1.6-5.6-3.2-6.2 6.1 2.3-8.4-1.7-1-1-.6-4.9-2.8h13l.1.1 6.4 11.1 3.5 2-7.6-13.2h11.6v9.3l9.2.1zm-30.6-24.3 6.2 6.1 2.5-1.4 1.8-1 3.3-1.9-6.5 11.1h-12.9l6.1-3.5 1.8-1-2.3-8.4zm9.2-45.9-6.6-1.8-1-.3-1.7-.5 14.9-14.8 6.2-1.6 4.1-1.1 4.1 7 .5.8 1 1.8v10.7l-9 2.4-1.3.3-1.3.4 1.3-.4-11.2-2.9zm-8.8-47.1-1-.6-4.9-2.8-.1-.1.1.1h13l.1.1 6.4 11.1 3.5 2-7.6-13.2h11.6v9.3h9.4v11.5l-4.5-2.6-8.7-5 .2.3-.2-.3-3.1-1.8-2.8-1.6-5.6-3.2-6.2 6.1 2.3-8.4-1.9-.9zm-.2-18.5 6.2 6.1 2.5-1.4 1.8-1 3.3-1.9-6.5 11.1h-13l-.1.1.1-.1 6.1-3.5 1.8-1-2.2-8.4zm9.1-45.9-6.6-1.8-1-.3-1.7-.5 14.9-14.8 6.2-1.6 4.1-1.1 4.1 7 .5.8 1 1.8v10.7l-9 2.4-1.3.3-1.3.4 1.3-.4-11.2-2.9zm-8.7-47.1-1-.6-4.9-2.8h13l.1.1 6.4 11.1 3.5 2-7.6-13.2h11.6v9.3h9.4V272l-4.5-2.6-8.7-5 .2.3-.2-.3-3.1-1.8-2.8-1.6-5.6-3.2-6.2 6.1 2.3-8.4-1.9-.9zm-.3-18.4 6.2 6.1 2.5-1.4 1.8-1 3.3-1.9-6.5 11.1h-13l6.1-3.5 1.8-1-2.2-8.4zm9.2-45.9-6.6-1.8-1-.3-1.7-.5 14.9-14.8 6.2-1.6 4.1-1.1 4.1 7 .5.8 1 1.8v10.7l-9 2.4-1.3.3-1.3.4 1.3-.4-11.2-2.9zm-8.8-47.1-1-.6-4.9-2.8h13l.1.1 6.4 11.1 3.5 2-7.6-13.2h11.6v9.3h9.4v11.5l-4.5-2.6-8.7-5 .1.2-.1-.2-3.1-1.8-2.8-1.6-5.6-3.2-6.2 6.1 2.3-8.4-1.9-.9zm-.3-18.4 6.2 6.1 2.5-1.4 1.8-1 3.3-1.9-6.5 11.1h-13l6.1-3.5 1.8-1-2.2-8.4zm32.7 13v-7.3h7.3v7.3h-7.3zm36.2 0h-13l-.1-.1-6.4-11.1-.4-.3-3.1-1.8 7.6 13.2h-11.6v-9.3h-9.3v-11.5l13.3 7.6-3.1-5.4 1.1 1.8 2 3.5 1.1.6 2 1.1.4.3 3.1 1.8 3.5 2 1.3.7 6.2-6.1-1.3 4.7-1 3.7 2.1 1.2 5.6 3.4zm-26.8-23.9 7.6-7.5 17.8-4.7 2.3-.6.4-.1-5.5 20.2-7.6 7.5-7-4-2.6-1.5-5.4-9.3zm70.1 11 6.2 6.1 2.5-1.4 1.8-1 3.3-1.9-6.5 11.1h-13l6.1-3.5 1.8-1-2.2-8.4zm63.3 9.9 5.5 3.2h-13l-.1-.1-6.4-11.1-.4-.3-3.1-1.8 7.6 13.2h-11.6v-9.3h-9.3v-11.5l13.3 7.6-3.1-5.3 1.1 1.8 2 3.5 1.1.6 2 1.1.4.3 3.1 1.8 3.5 2 1.3.7 6.2-6.1-1.3 4.7-1 3.7 2.2 1.3zm5.5 5.2-.7.4-5.1 2.9-2.1 1.2 2.3 8.4-6.2-6.1-7.6 4.4 6.5-11.1 12.9-.1zm-5.6 106.2 5.5 3.2h-13l-.1-.1-6.4-11.1-.4-.3-3.1-1.8 7.6 13.2h-11.6V240h-9.3v-11.5l13.3 7.6-3.1-5.3 1.1 1.8 2 3.5 1.1.6 2 1.1.4.3 3.1 1.8 3.5 2 1.3.7 6.2-6.1-1.3 4.7-1 3.7 2.2 1.3zm5.5 5.2-.7.4-5.1 2.9-2.1 1.2 2.3 8.4-6.2-6.1-7.6 4.4 6.5-11.1 12.9-.1zm-5.7 106.2 5.5 3.2.1.1-.1-.1h-13l-.1-.1-6.4-11.1-.4-.3-3.1-1.8 7.6 13.2h-11.6v-9.3h-9.3v-11.5l13.3 7.6-3.1-5.3 1.1 1.8 2 3.5 1.1.6 2 1.1.4.3 3.1 1.8 3.5 2 1.3.7 6.2-6.1-1.3 4.7-1 3.7 2.2 1.3zm5.5 5.3-.7.4-5.1 2.9-2.1 1.2 2.3 8.4-6.2-6.1-7.6 4.4 6.5-11.1 12.9-.1.1-.1-.1.1zm-5.6 106.2 5.5 3.2h-13l-.1-.1-6.4-11.1-.4-.3-3.1-1.8 7.6 13.2h-11.6v-9.3h-9.3v-11.5l13.3 7.6-3.1-5.3 1.1 1.8 2 3.5 1.1.6 2 1.1.4.3 3.1 1.8 3.5 2 1.3.7 6.2-6.1-1.3 4.7-1 3.7 2.2 1.3zm7.3 4.2zm-40.1 8.2h-7.3v-7.3h7.3v7.3zm-58.7-9.4H183l-6.7-3.8-2.6-1.5 2.4-9 .3-1.3 15-14.8 2.5 9.4 2.9 10.8-1.1 3.9-1.6 6.3zm-13.4 1zm-37.9-37 1.8 3.1 2.4 4.1.4.7 6.7-1.8 1.8-.5-6.2 6.1.3.5 2.2 3.9 1.9 3.2-11.2-6.5-.1-12.8zm-23 36 7.7-13.1 13.3-7.6v11.2h-9.3v9.6l-11.7-.1zm8.1-30.7 3.9 1 2.3.6 2.3.6 2.3-3.9 2.1-3.6V449l-.1.1-11.2 6.4-.3.4-.3.5.3-.5.3-.4.1-.2 4.4-7.5.1-.2-6.2-6.2zm12.7-43.1-4.4-7.5-8.4 2.2 6.2-6.1-.8-1.4-.8-1.3-2.8-4.9 11.2 6.5v12.9l-.2-.4zm.2.4zm0-36v7.3h-7.3v-7.3h7.3zm-13.2-15.3 13.3-7.6V351h-9.3v9.6H120l7.6-13.2zm.4-17.5 3.9 1 2.3.6 2.3.6 2.3-3.9 2.1-3.6v12.9l-.1.1-11.2 6.4-.3.4-.3.5.3-.5.3-.4.1-.2 4.4-7.5.1-.2-6.2-6.2zm12.7-43.1-4.4-7.5-8.4 2.2 6.2-6.1-.8-1.4-.8-1.3-2.8-4.9 11.2 6.5v12.9l-.2-.4zm.2.4zm.1-36v7.3h-7.3v-7.3h7.3zM127.7 236l13.3-7.6v11.2h-9.3v9.6h-11.6l7.6-13.2zm.5-17.5 3.9 1 2.3.6 2.3.6 2.3-3.9 2.1-3.6v12.9l-.1.1-11.2 6.4-.3.4-.3.5.3-.5.3-.4.1-.2 4.4-7.5.1-.2-6.2-6.2zm12.6-43.1-4.4-7.5-8.4 2.2 6.2-6.1-.8-1.4-.8-1.3-2.8-4.9 11.2 6.5v12.9l-.2-.4zm.3.4zm0-36v7.3h-7.3v-7.3h7.3zm98.9-15.1 13.3-7.6v11.2H244v9.6h-11.6l7.6-13.2zm14.3 53zm8 47.9 2.2 3.8 1.9 3.2-11.2-6.5v-12.9l1.8 3 2.4 4.1.4.7 6.7-1.8 1.8-.5-6.2 6.1.2.8zm-8.2 63.6zm8.1 47.8 2.2 3.8 1.9 3.3-11.2-6.5v-12.9l1.8 3 2.4 4.1.4.7 6.7-1.8 1.8-.5-6.2 6.1.2.7zm-8.2 63.6zm8 47.9 2.2 3.8 1.9 3.2-11.2-6.5v-12.9l1.8 3 2.4 4.1.4.7 6.7-1.8 1.8-.5-6.2 6.1.2.8zm-30.1 23.7 7.7-13.1 13.3-7.6v11.2h-9.3v9.6l-11.7-.1zm-89.8-294.6zm1-1.7v-13h.1l11.2-6.4 2-3.5-13.3 7.6v-11.2h9.4v-9.6h11.6l-7.7 13.2-1.8 3.1-1 1.7-3.8 6.6 6.2 6.1-8.4-2.3-4.5 7.7zm39.9 3.6.1.4.4.1 7 1.9 2-7.5 5.4 5.4 5.5-5.5 2 7.3 7.5-2-.1.4-1.9 7 7.5 2-5.4 5.4 5.5 5.5-7.4 2 2 7.5-.4-.1-7-1.9-2 7.5-5.4-5.4-5.5 5.5-2-7.3-7.5 2 .1-.4 1.9-7-7.5-2 5.4-5.4-5.5-5.5 7.4-2-2-7.5-.1-.4-.5-1.9-.9-3.2-4-14.8 13.2 13.2-1.8 6.7-6.6-1.8.6 1.8zm70.2-3.6zm0-4.2v4.2l-.2-.4-4.4-7.5-8.4 2.2 6.2-6.1-.8-1.4-.8-1.3-2.8-4.9 11.2 6.5v8.7zm-9.3-7.9-7.6 7.5-17.8 4.7-1.4.4-.9.2-.2.1-.2.1 5.5-20.2 7.6-7.5 7 4 1.2.7 1.4.8 2.7 4.7 2.7 4.5zM224 190.4l14.9 4-18.1 4.8-4.9-4.9 4.8-4.8-1.3-.3 1 .3h.2l3.4.9zm-7.1 60.9h13l.1.1 6.4 11.1 3.5 2-7.6-13.2h11.6v9.3h9.3v11.5l-4.5-2.6-8.7-5 .2.3-.2-.3-3.1-1.8-2.8-1.6-5.6-3.2-6.2 6.1 2.3-8.4-1.7-1-1-.6-5-2.7zm36.2 36.1zm-.2-.4-4.4-7.5-8.4 2.2 6.2-6.1-.8-1.4-.8-1.3-2.8-4.9 11.2 6.5v12.9l-.2-.4zm-29 14.9 14.9 4-18.1 4.8-4.9-4.9 4.8-4.8-1.3-.3 1 .3h.2l3.4.9zm29.1 96.9zm-.3-.3-4.4-7.5-8.4 2.2 6.2-6.1-.8-1.4-.8-1.3-2.8-4.9 11.2 6.5v12.9l-.2-.4zm-29 14.8 14.9 4-18.1 4.8-4.9-4.9 4.8-4.8-1.3-.3 1 .3h.2l3.4.9zm9.6 24.3-18.1-4.8-1.8-6.7 6.6-1.7 13.3 13.2zm-13.4-27.4-6.7-1.8 1.8-6.5 3.3-.9 14.9-3.9-13.3 13.1zm-15.1-14.7 13.3-13.2.7-2.5-.7 2.5-1.2 4.6-3.6 13.4-6.7 1.8-1.8-6.6zm-8.1-22.5-4.8 17.6-.7 2.7-14.9-14.8-2.8-10.3 7.1-4 2.6-1.5h10.7l2.4 9 1.4 5.2 4.8 18-4.9 4.9-4.8-4.8.9-3.2 4-14.8-1-4zm-53.8-10.4h7.3v7.6h-7.3v-7.6zm0-2v-7.3h7.3v7.3h-7.3zm36.2.1h-13l-.1-.1-6.4-11.1-.4-.3-3.1-1.8 7.6 13.2h-11.6v-9.3h-9.3v-11.5l13.3 7.6-3.1-5.4 1.1 1.8 2 3.5 1.1.6 2 1.1.4.3 3.1 1.8 3.5 2 1.3.7 6.2-6.1-1.3 4.7-1 3.7 2.1 1.2 5.6 3.4zm3.8-69.4-.1-.4-.5-1.9-.9-3.2-4-14.8 13.2 13.2-1.8 6.7-6.6-1.8.5 1.9.2.3.4.1 7 1.9 2-7.5 5.4 5.4 5.5-5.5 2 7.3 7.5-2-.1.4-1.9 7 7.5 2-5.4 5.4 5.5 5.5-7.4 2 2 7.5-.4-.1-7-1.9-2 7.5-5.4-5.4-5.5 5.5-2-7.3-7.5 2 .1-.4 1.9-7-7.5-2 5.4-5.4-5.5-5.5 7.4-2-2-7.5zM143 249.2v-7.3h7.3v7.3H143zm36.3 0h-13l-.1-.1-6.4-11.1-.4-.3-3.1-1.8 7.6 13.2h-11.6v-9.3H143v-11.5l13.3 7.6-3.1-5.4 1.1 1.8 2 3.5 1.1.6 2 1.1.4.3 3.1 1.8 3.5 2 1.3.7 6.2-6.1-1.3 4.7-1 3.7 2.1 1.2 5.6 3.4zm-3.2-47.4 6.7 1.8-1.8 6.5 1.9-.5-5.1 1.4-14.9 4 13.2-13.2zm-.6-2.3-3.3-.9-14.9-4 18.1-4.8 4.9 4.9-4.8 4.8zm18.8 28.7 2.9 10.8-1.1 3.9-1.7 6.3h-11.1l-6.7-3.8-2.6-1.5 2.4-9 .3-1.3 15-14.8 2.6 9.4zm25.4 5.3 2.8 10.3-7 4-2.6 1.5h-10.8l-2.4-9-.3-1.3 4.8-17.6.7-2.7 14.8 14.8zm-14.3-17.1 1.8-6.7 6.6 1.8.9 3.2 4 14.8-13.3-13.1zm17.2 20 6.2 6.1 2.5-1.4 1.8-1 3.3-1.9-6.5 11.1h-13l6.1-3.5 1.8-1-2.2-8.4zm17.3-.3 13.3-7.6v11.2h-9.3v9.6h-11.6l7.6-13.2zm5.9 13.2v-7.5h7.3v7.5h-7.3zM205 284l13.3-13.2.7-2.5-.7 2.5-1.2 4.6-3.6 13.4-6.7 1.8-1.8-6.6zm14.3-17.1-15 14.8-4.7-17.5-.7-2.7 2.8-10.3h11.1l9.3 5.4-2.4 9-.1.3-.3 1zm-22.5-5.3-4.8 17.6-.7 2.7-14.9-14.8-2.8-10.3 7.1-4 2.6-1.5H194l2.4 9 1.4 5.2 4.8 18-4.9 4.9-4.8-4.8.9-3.2 4-14.8-1-4zM181 250.2zm15.1.7 2.2-8 1.8 6.7-2.2 8-1.8-6.7zm19-.6zm-12.8-30-4 14.8-4.8-18 4.9-4.9 4.8 4.8-.9 3.3zm-11.1-3.8-13.3 13.2 4.9-17.9 2.2-.6 4.5-1.2 1.7 6.5zm-13.4-3.4 2.3-.6.4-.1-5.5 20.2-7.6 7.5-7-4-2.6-1.5-5.4-9.3 7.6-7.5 17.8-4.7zM143 251.2h7.3v7.6H143v-7.6zm23.3 0h13l-.7.4-5.1 2.9-2.1 1.2 2.3 8.4-6.2-6.1-7.6 4.4 6.4-11.2zm-8.6 14.7 9.3-5.3 7.6 7.5 4.7 17.7.6 2.3.1.4-20.3-5.4-7.6-7.5 4.1-7 1.5-2.7zm64.7 81.9 6.2 6.1 2.5-1.4 1.8-1 3.3-1.9-6.5 11.1h-13l-.1.1.1-.1 6.1-3.5 1.8-1-2.2-8.4zm17.3-.2L253 340v11.2h-9.3v9.6h-11.6l7.6-13.2zm6 13.2v-7.6h7.3v7.6h-7.3zm-64.8.9zm10.7-31.5 2.5 9.4 2.9 10.8-1.1 3.9-1.7 6.3h-11.1l-6.7-3.8-2.6-1.5 2.4-9 .3-1.3 15.1-14.8zm-13.9 10.9 4.9-17.9 2.2-.6 4.5-1.2 1.8 6.5-13.4 13.2zm15.6-12.6 4.9-4.9 4.8 4.8-.9 3.2-4 14.8-4.8-17.9zm4.8 25.8 1.8 6.8-2.2 8.1-1.8-6.8 2.2-8.1zm16.8 7.4zm.4-2.5-2.6 1.5h-10.8l-2.4-9-.3-1.3 4.8-17.6.7-2.7 14.9 14.8 2.8 10.3-7.1 4zm-10-31.3 1.8-6.7 6.6 1.8.9 3.2 4 14.8-13.3-13.1zm-25.1-21.7-4.8 4.8-3.3-.9-14.9-4 18.1-4.8 4.9 4.9zm-4.2 7 6.7 1.8-1.8 6.5 1.9-.5-5.1 1.4-14.9 4 13.2-13.2zm1.6 11.3 2.3-.6.4-.1-5.5 20.2-7.6 7.5-7-4-2.6-1.5-5.4-9.3 7.6-7.5 17.8-4.7zm-11.5 38.2h13l.1-.1-.1.1-.7.4-5.1 2.9-2.1 1.2 2.3 8.4-6.2-6.1-7.6 4.4 6.4-11.2zm-8.5 14.7 9.3-5.3 7.6 7.5 4.7 17.7.6 2.3.1.4-20.3-5.4-7.6-7.5 4.1-7 1.5-2.7zm41.9-1.7-.7-2.7 2.8-10.3h11.1l9.3 5.4-2.4 9-.1.3-.3 1-15 14.8-4.7-17.5zm18.7 23.2-1.4.4-.9.2-.2.1-.2.1 5.5-20.2 7.6-7.5 7 4 1.2.7 1.4.8 2.7 4.7 2.7 4.6-7.6 7.5-17.8 4.6zm34.8-28.8h-7.3v-7.3h7.3v7.3zm-36.2-7.3h13l.1.1 6.4 11.1 3.5 2-7.6-13.2h11.6v9.3h9.3v11.5l-4.5-2.6-8.7-5 .2.3-.2-.3-3.1-1.8-2.8-1.6-5.6-3.2-6.2 6.1 2.3-8.4-1.7-1-1-.6-5-2.7zm37.3-39.8zm-1.1 14.6-11.2 6.4-.3.4-.3.5.3-.5.3-.4.1-.2 4.4-7.5.1-.2-6.2-6.1 3.9 1 2.3.6 2.3.6 2.3-3.9 2.1-3.6-.1 12.9zm-9.2-1.1-4.1 7-1.5 2.6-9.3 5.3-7.6-7.5-4.7-17.6-.6-2.3-.1-.4 20.3 5.4 7.6 7.5zm-28.5-15.2-1.8-6.7 6.6-1.7 13.3 13.2-18.1-4.8zm4.7-22.5-6.7-1.8 1.8-6.5 3.3-.9 14.9-3.9-13.3 13.1zm-1.6-11.3-1.4.4-.9.2-.2.1-.2.1 5.5-20.2 7.6-7.5 7 4 1.2.7 1.4.8 2.7 4.7 2.7 4.6-7.6 7.5-17.8 4.6zm35.8-75.9zm-1 14.6-11.2 6.4-.3.4-.3.5.3-.5.3-.4.1-.2 4.4-7.5.1-.2-6.2-6.1 3.9 1 2.3.6 2.3.6 2.3-3.9 2.1-3.6-.1 12.9zm-9.2-1.1-4.1 7-1.5 2.6-9.3 5.3-7.6-7.5-4.7-17.6-.6-2.3-.1-.4 20.3 5.4 7.6 7.5zm-28.5-15.2-1.8-6.7 6.6-1.7 13.3 13.2-18.1-4.8zm4.7-22.6-6.7-1.8 1.8-6.5 3.3-.9 14.9-3.9-13.3 13.1zm-1.8-27.9-1.2 4.6-3.6 13.4-6.7 1.8-1.8-6.5 13.3-13.3.7-2.5-.7 2.5zm-38.9 14.9.6 2.3.1.4-20.3-5.4-7.6-7.5 4.1-7 1.5-2.6 9.3-5.3 7.6 7.5 4.7 17.6zm-36.4 5.5 3.3-5.6 2.1-3.6 9 2.4h.1l1.2.3 3.9 1.1 18.1 4.8.5 1.9 1.3 4.7-6.6 1.7-13.3-13.2-3.9-1.1 15 14.9-20 5.3-.4.1-2.2-.6-8.1-2.2v-10.9zm9 16.3 1.3-.3 17.7 4.8 2.7.7-14.9 14.7-10.4 2.7-4-7-1.5-2.6v-10.7l9.1-2.3zm-9 17.1 1.8 3 2.4 4.1.4.7 6.7-1.8 1.8-.5-6.2 6.1.3.5 2.2 3.9 1.9 3.2-11.2-6.5-.1-12.7zM142 289zm1-1.6v-13h.1l11.2-6.4 2-3.5L143 272v-11.2h9.4v-9.6H164l-7.7 13.2-1.8 3.1-1 1.7-3.8 6.6 6.2 6.1-8.4-2.3-4.5 7.8zm0 3.9 3.3-5.6 2.1-3.6 9 2.4h.1l1.2.3 3.9 1.1 18.1 4.8.5 1.9 1.3 4.7-6.6 1.7-13.3-13.2-3.9-1.1 15 14.9-20 5.3-.4.1-2.2-.6-8.1-2.2v-10.9zm9 16.2 1.3-.3L171 312l2.7.7-14.9 14.8-10.4 2.7-4-7-1.5-2.6v-10.7l9.1-2.4zm-9.1 17.1 1.8 3 2.4 4.1.4.7 6.7-1.8 1.8-.5-6.2 6.1.3.5 2.2 3.8 1.9 3.2-11.2-6.5-.1-12.6zm-1.1 75.9zm1-1.7v-13h.1l11.2-6.4 2-3.5-13.3 7.6v-11.2h9.4v-9.6h11.6l-7.7 13.2-1.8 3.1-1 1.7-3.8 6.6 6.2 6.1-8.4-2.3-4.5 7.7zm0 3.9 3.3-5.6 2.1-3.6 9 2.4h.1l1.2.3 3.9 1.1 18.1 4.8.5 1.9 1.3 4.7-6.6 1.7-13.3-13.2-3.9-1.1 15 14.9-20 5.3-.4.1-2.2-.6-8.1-2.2v-10.9zm37.3 15-4.8 4.8-3.3-.9-14.9-4 18.1-4.8 4.9 4.9zm-28.3 1.3 1.3-.3 17.7 4.8 2.7.7-14.9 14.8-10.4 2.7-4-7-1.5-2.6v-10.7l9.1-2.4zm24 5.7 6.7 1.8-1.8 6.5 1.9-.5-5.1 1.4-14.9 4 13.2-13.2zm8.9 9.4 4.5-1.2 1.8 6.5-13.3 13.2 4.9-17.9 2.1-.6zm5.9-3.7-7.5 2 .1-.4 1.9-7-7.5-2 5.4-5.4-5.5-5.5 7.4-2-2-7.5-.1-.4-.5-1.9-.9-3.2-4-14.8 13.2 13.2-1.8 6.7-6.6-1.8.5 1.9.1.4.4.1 7 1.9 2-7.5 5.4 5.4 5.5-5.5 2 7.3 7.5-2-.1.4-1.9 7 7.5 2-5.4 5.4 5.5 5.5-7.4 2 2 7.5-.4-.1-7-1.9-2 7.5-5.4-5.4-5.5 5.5-1.9-7.4zm16.4 2.3 6.6 1.8.9 3.2 4 14.8-13.2-13.2 1.7-6.6zm9.5 5-.6-2.3-.1-.4 20.3 5.4 7.6 7.5-4.1 7-1.5 2.6-9.3 5.3-7.6-7.5-4.7-17.6zm37.4-3.2zm-1 14.6-11.2 6.4-.3.4-.3.5.3-.5.3-.4.1-.2 4.4-7.5.1-.2-6.2-6.1 3.9 1 2.3.6 2.3.6 2.3-3.9 2.1-3.6-.1 12.9zm-7.3 15.6h7.3v7.5h-7.3v-7.5zm16.6 7.5h-7.3v-7.3h7.3v7.3zm-9.3-43.5v3.5l-5.4 9.2-9-2.4-1.3-.4-14.9-14.9 20.4-5.4 10.3 2.8-.1 7.6zm-10.3-12.4-1.3.4 1.3-.4-11.1-3-6.6-1.8-1-.3-1.7-.5 14.9-14.8 6.2-1.6 4.1-1.1 4.1 7 .5.8 1 1.8v10.7l-9 2.4-1.4.4zm12.4-53.5h7.3v7.6H255v-7.6zm7.3-2H255v-7.3h7.3v7.3zm-9.2-43.6v3.5l-5.4 9.2-9-2.4-1.3-.4-14.9-14.9 20.4-5.4 10.3 2.8-.1 7.6zm-10.4-12.4-1.3.4 1.3-.4-11.1-3-6.6-1.8-1-.3-1.7-.5 14.9-14.8 6.2-1.6 4.1-1.1 4.1 7 .5.8 1 1.8V302l-9 2.4-1.4.4zm10.4-46.2h-7.3v-7.3h7.3v7.3zm2.1-7.2h7.3v7.6h-7.3v-7.6zm7.3-2.1h-7.3V242h7.3v7.3zm-9.3-43.5v3.5l-5.4 9.2-9-2.4-1.3-.4-14.9-14.9 20.4-5.4 10.3 2.8-.1 7.6zm-10.3-12.4-1.3.4 1.3-.4-11.1-3-6.6-1.8-1-.3-1.7-.5 14.9-14.8 6.2-1.6 4.1-1.1 4.1 7 .5.8 1 1.8v10.7l-9 2.4-1.4.4zm10.4-46.2H246v-7.3h7.3v7.3zm2-7.3h7.3v7.6h-7.3v-7.6zm7.3-2h-7.3v-7.3h7.3v7.3zm-8.3-37.7zm-8.3 30.2h7.3v7.5H246v-7.5zm-29 9.5h13l.1.1 6.4 11.1 3.5 2-7.6-13.2H244v9.3h9.3v11.5l-4.5-2.6-8.7-5 .1.2-.1-.2-3.1-1.8-2.8-1.6-5.6-3.2-6.2 6.1 2.3-8.4-1.7-1-1-.6-5-2.7zm-15.1 0H213l9.3 5.4-2.4 9-.1.3-.3 1-15 14.8-4.7-17.5-.7-2.7 2.8-10.3zm.9 32.1-4.9 4.9-4.8-4.8.9-3.2 4-14.8-1.1-3.9-4.8 17.6-.7 2.7-14.9-14.8-2.8-10.3 7.1-4 2.6-1.5h10.7l2.4 9 1.4 5.2 4.9 17.9zm-21.6-33.2zm-1.8 1-.8.4-5.1 2.9-2.1 1.2 2.3 8.4-6.2-6.1-7.6 4.4 6.5-11.1 13-.1zm-28.9 0v7.6h-7.3v-7.5l7.3-.1zm-9.1 52.7 8.1 2.2-6.8 1.8-8.1-2.2 6.8-1.8zm-7.7 49.1h7.3v7.5h-7.3v-7.5zm7.6 62.3 8.1 2.2-6.8 1.8-8.1-2.2 6.8-1.8zm-7.8 49.2h7.3v7.6h-7.3v-7.6zm7.6 62.3 8.1 2.2-6.8 1.8-8.1-2.2 6.8-1.8zm-7.7 56.7v-7.5h7.3v7.5h-7.3zm16.6 0h-7.3v-7.3h7.3v7.3zm9.7-31.4 17.8-4.7 2.3-.6.4-.1-5.5 20.2-7.6 7.5-7-4-2.6-1.5-5.4-9.3 7.6-7.5zm33.5-.7 4.9-4.9 4.8 4.8-.9 3.2-4 14.8-4.8-17.9zm10.6 4.2.7-2.7 14.9 14.8 2.8 10.3-7 4-2.6 1.5h-10.8l-2.4-9-.3-1.3 4.7-17.6zm11.1 29zm7.2-1h-5.4l6.1-3.5 1.8-1-2.3-8.4 6.2 6.1 2.5-1.4 1.8-1 3.3-1.9-6.5 11.1h-7.5zm32.8 2.1h7.3v7.6h-7.3v-7.6zm24.4-11.2-7-4-2.6-1.5-5.4-9.3 7.6-7.5 17.8-4.7 2.3-.6.4-.1-5.5 20.2-7.6 7.5zm-8.5-24.1-10.4 2.7-4-7-1.5-2.6v-10.7l9-2.4 1.3-.3 17.7 4.8 2.7.7-14.8 14.8zm-16.2-19.5-8.1-2.2 6.8-1.8 8.1 2.2-6.8 1.8zm.4-20.6v-13h.1l11.2-6.4 2-3.5-13.3 7.6v-11.2h9.4v-9.6H276l-7.7 13.2-1.8 3.1-1 1.7-3.8 6.6 6.2 6.1-8.4-2.3-4.5 7.7zm38.1-37.1zm-13.7-10.1-7-4-2.6-1.5-5.4-9.3 7.6-7.5 17.8-4.7 2.3-.6.4-.1-5.5 20.2-7.6 7.5zm-8.4-24.2-10.4 2.7-4-7-1.5-2.6v-10.7l9-2.4 1.3-.3 17.7 4.8 2.7.7-14.8 14.8zM254.7 308l-8.1-2.2 6.8-1.8 8.1 2.2-6.8 1.8zm.4-20.5v-13h.1l11.2-6.4 2-3.5-13.3 7.6V261h9.4v-9.6h11.6l-7.7 13.2-1.8 3.1-1 1.7-3.8 6.6 6.2 6.1-8.4-2.3-4.5 7.7zm38.1-37.1zm-13.7-10.2-7-4-2.6-1.5-5.4-9.3 7.6-7.5 17.8-4.7 2.3-.6.4-.1-5.5 20.2-7.6 7.5zm-8.4-24.1-10.4 2.7-4-7-1.5-2.6v-10.7l9-2.4 1.3-.3 17.7 4.8 2.7.7-14.8 14.8zm-16.2-19.5-8.1-2.2 6.8-1.8 8.1 2.2-6.8 1.8zm.4-20.5v-13h.1l11.2-6.4 2-3.5-13.3 7.6v-11.2h9.4V140h11.6l-7.7 13.2-1.8 3.1-1 1.7-3.8 6.6 6.2 6.1-8.4-2.3-4.5 7.7zm38-37.1zm-13.6-10.2-7-4-2.6-1.5-5.4-9.3 7.6-7.5 17.8-4.7 2.3-.6.4-.1-5.5 20.2-7.6 7.5zm-17.5-15.1.3.5 2.2 3.8 1.9 3.3-11.2-6.5v-12.9l1.8 3 2.4 4.1.4.7 6.7-1.8 1.8-.5-6.3 6.3zm-8.9 1.1-11.2 6.4-.3.4-.3.5.3-.5.3-.4.1-.2 4.4-7.5.1-.2-6.2-6.1 3.9 1 2.3.6 2.3.6 2.3-3.9 2.1-3.6-.1 12.9zm-9.2-1.1-4.1 7-1.5 2.6-9.3 5.3-7.6-7.5-4.7-17.6-.6-2.3-.1-.4 20.3 5.4 7.6 7.5zm-28.8 25.2zm-17.3 7.3-1.8-6.7 2.2-8 1.8 6.7-2.2 8zm-64.2-8.4v-7.5h7.3v7.5h-7.3zm7.3-9.6h-9.3v9.6h-11.6l7.7-13.1 13.3-7.6-.1 11.1zm-14.7-5.1-9.3 5.3-7.6-7.5-4.7-17.6-.6-2.3-.1-.4 20.3 5.4 7.6 7.5-4.1 7-1.5 2.6zm-23.3 15.6zm13.6 10.2 7 4 1.2.7 1.4.8 2.7 4.7 2.7 4.6-7.6 7.5-17.8 4.7-1.4.4-.9.2-.2.1-.2.1 5.5-20.2 7.6-7.6zm14 46.4 10.3 2.8v11l-5.4 9.3-9-2.4-1.3-.4-14.9-14.9 20.3-5.4zm1.1 29.7-4.1 7-1.5 2.6-9.3 5.3-7.6-7.5-4.7-17.6-.6-2.3-.1-.4 20.3 5.4 7.6 7.5zM103 250.2zm13.6 10.1 7 4 1.2.7 1.4.8 2.7 4.7 2.7 4.6-7.6 7.5-17.8 4.7-1.4.4-.9.2-.2.1-.2.1 5.5-20.2 7.6-7.6zm14 46.5 10.3 2.8v11l-5.4 9.3-9-2.4-1.3-.4-14.9-14.9 20.3-5.4zm1.1 29.6-4.1 7-1.5 2.6-9.3 5.3-7.6-7.5-4.7-17.6-.6-2.3-.1-.4 20.3 5.4 7.6 7.5zm-28.9 25.2zm13.7 10.2 7 4 1.2.7 1.4.8 2.7 4.7 2.7 4.6-7.6 7.5-17.8 4.7-1.4.4-.9.2-.2.1-.2.1 5.5-20.2 7.6-7.6zm13.9 46.4 10.3 2.8v11l-5.4 9.3-9-2.4-1.3-.4-14.9-14.9 20.3-5.4zm1.1 29.7-4.1 7-1.5 2.6-9.3 5.3-7.6-7.5-4.7-17.6-.6-2.3-.1-.4 20.3 5.4 7.6 7.5zM102.7 473zm38 8.4h-7.3v-7.3h7.3v7.3zm2-7.3h7.3v7.6h-7.3v-7.6zm0-11.3v-11.5l13.3 7.6-3.1-5.4 1.1 1.8 2 3.5 1.1.6 2 1.1.4.3 3.1 1.8 3.5 2 1.3.7 6.2-6.1-1.3 4.7-1 3.7 2.1 1.2 5.5 3.2h-13 .1l-6.4-11.1-.4-.3-3.1-1.8 7.6 13.2h-11.6v-9.3l-9.4.1zm55.3 3 1.8 6.7-2.2 8-1.8-6.7 2.2-8zm30.5 17.5 7 4 1.2.7 1.4.8 2.7 4.7 2.7 4.6-7.6 7.5-17.8 4.7-1.4.4-.9.2-.2.1-.2.1 5.5-20.2 7.6-7.6zm24.3 26.9zm1.1 1.9zm.9-1.7v-13h.1l11.2-6.4 2-3.5-13.3 7.6v-11.2h9.4v-9.6h11.6l-7.7 13.2-1.8 3.1-1 1.7-3.8 6.6 6.2 6.1-8.4-2.3-4.5 7.7zm50.5-70.2 4.9-4.9 4.8 4.8-.9 3.2-4 14.8-4.8-17.9zm6.6 32.4-2.2 8-1.8-6.7 2.2-8 1.8 6.7zm-8.9-33.1-13.3 13.2 4.9-17.9 2.2-.6 4.5-1.2 1.7 6.5zm-15.6-16.9-3.3-.9-14.9-4 18.1-4.8 4.9 4.9-4.8 4.8zm.5-11.9-13.3-13.2-3.9-1.1 15 14.9-20 5.3-.4.1-2.2-.6-8.1-2.2v-11l3.3-5.6 2.1-3.6 9 2.4h.1l1.2.3 3.9 1.1 18.1 4.8.5 1.9 1.3 4.7-6.6 1.8zm-16.1-16.1-7.6-7.5 4.1-7 1.5-2.6 9.3-5.3 7.6 7.5 4.7 17.7.6 2.3.1.4-20.3-5.5zm38.1-25.3-1.8-6.8 2.2-8.1 1.8 6.8-2.2 8.1zm-4.4-40.6 4.9-4.9 4.8 4.8-.9 3.2-4 14.8-4.8-17.9zm-2.3-.6-13.3 13.2 4.9-17.9 2.2-.6 4.5-1.2 1.7 6.5zm-15.7-17-3.3-.9-14.9-4 18.1-4.8 4.9 4.9-4.8 4.8zm.6-11.9L274.8 286l-3.9-1.1 15 14.9-20 5.3-.4.1-2.2-.6-8.1-2.2v-11l3.3-5.6 2.1-3.6 9 2.4h.1l1.2.3 3.9 1.1 18.1 4.8.5 1.9 1.3 4.7-6.6 1.8zm-16.2-16.1-7.6-7.5 4.1-7 1.5-2.6 9.3-5.3 7.6 7.5 4.7 17.7.6 2.3.1.4-20.3-5.5zm38.1-25.3-1.8-6.7 2.2-8 1.8 6.7-2.2 8zm-4.4-40.5 4.9-4.9 4.8 4.8-.9 3.2-4 14.8-4.8-17.9zm-2.3-.6L290 229.8l4.9-17.9 2.2-.6 4.5-1.2 1.7 6.6zm-15.6-17-3.3-.9-14.9-4 18.1-4.8 4.9 4.9-4.8 4.8zm.5-11.9-13.3-13.2-3.9-1.1 15 14.9-20 5.3-.4.1-2.2-.6-8.1-2.2v-11l3.3-5.6 2.1-3.6 9 2.4h.1l1.2.3 3.9 1.1 18.1 4.8.5 1.9 1.3 4.7-6.6 1.8zM272 171.7l-7.6-7.5 4.1-7 1.5-2.6 9.3-5.3 7.6 7.5 4.7 17.7.6 2.3.1.4-20.3-5.5zm38.2-25.3-1.8-6.7 2.2-8 1.8 6.7-2.2 8zm-4.5-40.6 4.9-4.9 4.8 4.8-.9 3.2-4 14.8-4.8-17.9zm-2.2-.6-13.3 13.2 4.9-17.9 2.2-.6 4.5-1.2 1.7 6.5zm-15.7-16.9-3.3-.9-14.9-4 18.1-4.8 4.9 4.9-4.8 4.8zm-4.3.9 2.7.7-14.9 14.8-10.4 2.7-4-7-1.5-2.6V87.1l9-2.4 1.3-.3 17.8 4.8zm-30.2-2.4v11l-5.4 9.2-9-2.4-1.3-.4-14.9-14.9 20.4-5.4 10.2 2.9zm-19.6 16.5-18.1-4.8-1.8-6.7 6.6-1.7 13.3 13.2zm-19.8-3.2.9 3.2 4 14.8-13.2-13.1 1.8-6.7 6.5 1.8zm5.9 22 2.8 10.3-7 4-2.6 1.5h-10.8l-2.4-9-.3-1.3 4.8-17.6.7-2.7 14.8 14.8zm-17.4-13.3-4 14.8-4.8-18 4.9-4.9 4.8 4.8-.9 3.3zm-11.1-3.7L178 118.3l4.9-17.9 2.2-.6 4.5-1.2 1.7 6.5zm-15.6-17-3.3-.9-14.9-4 18.1-4.8 4.9 4.9-4.8 4.8zm-4.4.9 2.7.7-14.9 14.8-10.4 2.7-4-7-1.5-2.6V86.9l9-2.4 1.3-.3 17.8 4.8zm-28.1 12.8 1.8 3 2.4 4.1.4.7 6.7-1.8 1.8-.5-6.2 6.1.3.5 2.2 3.8 1.9 3.2-11.2-6.5-.1-12.6zm-2-.1v12.9l-.1.1-11.2 6.4-.3.4-.3.5.3-.5.3-.4.1-.2 4.4-7.5.1-.2-6.2-6.1 3.9 1 2.3.6 2.3.6 2.3-3.9 2.1-3.7zm0-4-5.4 9.3-9-2.4-1.3-.4-14.9-14.9 20.4-5.4 10.3 2.8-.1 11zm-19.7 5.4-18.1-4.8-1.8-6.7 6.6-1.7 13.3 13.2zm-19.7-3.1.9 3.2 4 14.8-13.2-13.2 1.8-6.7 6.5 1.9zm5.9 21.9 2.8 10.3-7 4-2.6 1.5H90.1l-2.4-9-.3-1.3 4.8-17.6.7-2.7 14.8 14.8zm-17.4-13.2-4 14.8-4.8-18 4.9-4.9 4.8 4.8-.9 3.3zM88 138l-2.2 8-1.8-6.7 2.2-8L88 138zm-.4 14.7-.7-2.7 2.8-10.3h11.1l9.3 5.4-2.4 9-.1.3-.3 1-15 14.8-4.7-17.5zm15.4 26.2 3.3-.9 14.9-3.9-13.2 13.1-6.7-1.8 1.7-6.5zm18.4 35.7-18.1-4.8-1.8-6.7 6.6-1.7 13.3 13.2zm-19.8-3.2.9 3.2 4 14.8-13.2-13.2 1.8-6.7 6.5 1.9zm5.9 22 2.8 10.3-7 4-2.6 1.5H89.9l-2.4-9-.3-1.3 4.8-17.6.7-2.7 14.8 14.8zm-17.4-13.3-4 14.8-4.8-18 4.9-4.9 4.8 4.8-.9 3.3zm-2.2 29.4-2.2 8-1.8-6.7 2.2-8 1.8 6.7zm-.4 14.6-.7-2.7 2.8-10.3h11.1l9.3 5.4-2.4 9-.1.3-.3 1-15 14.8-4.7-17.5zm15.4 26.2 3.3-.9 14.9-3.9-13.3 13.1-6.7-1.8 1.8-6.5zm18.3 35.7-18.1-4.8-1.8-6.7 6.6-1.7 13.3 13.2zm-19.7-3.2.9 3.2 4 14.8-13.2-13.2 1.8-6.7 6.5 1.9zm5.9 22 2.8 10.3-7 4-2.6 1.5H89.8l-2.4-9-.3-1.3 4.8-17.6.7-2.7 14.8 14.8zM90 331.5l-4 14.8-4.8-18 4.9-4.9 4.8 4.8-.9 3.3zm-2.2 29.4-2.2 8.1-1.8-6.8 2.2-8.1 1.8 6.8zm-.4 14.7-.7-2.7 2.8-10.3h11.1l9.3 5.4-2.4 9-.1.3-.3 1-15 14.8-4.7-17.5zm15.4 26.2 3.3-.9L121 397l-13.3 13.1-6.7-1.8 1.8-6.5zm18.3 35.7-18.1-4.8-1.8-6.7 6.6-1.7 13.3 13.2zm-19.7-3.2.9 3.2 4 14.8L93 439.2l1.8-6.7 6.6 1.8zm5.8 22 2.8 10.3-7 4-2.6 1.5H89.6l-2.4-9-.3-1.3 4.8-17.6.7-2.7 14.8 14.8zM89.8 443l-4 14.8-4.8-18 4.9-4.9 4.8 4.8-.9 3.3zm-2.2 29.4-2.2 8-1.8-6.7 2.2-8 1.8 6.7zm-.4 14.6-.7-2.7 2.8-10.3h11.1l9.3 5.4-2.4 9-.1.3-.3 1-15 14.8-4.7-17.5zm15.4 26.2 3.3-.9 14.9-3.9-13.3 13.1-6.7-1.8 1.8-6.5zm38-3.1zm1.1 1.8zm1-1.7v-13h.1l11.2-6.4 2-3.5-13.3 7.6v-11.2h9.4v-9.6h11.6l-7.7 13.2-1.8 3.1-1 1.7-3.8 6.6 6.2 6.1-8.4-2.3-4.5 7.7zm16.8-4.3-7.6-7.5 4.1-7 1.5-2.6 9.3-5.3 7.6 7.5 4.7 17.7.6 2.3.1.4-20.3-5.5zm39.9-18.8-.7-2.7 2.8-10.3h11.1l9.3 5.4-2.4 9-.1.3-.3 1-15 14.8-4.7-17.5zm15.4 26.2 3.3-.9 14.9-3.9-13.3 13.1-6.7-1.8 1.8-6.5zm38.4 13.7 8.1 2.2-6.8 1.8-8.1-2.2 6.8-1.8zm1.6 5.9 9-2.4 1.3-.3 17.7 4.8 2.7.7-14.9 14.8-10.4 2.7-4-7-1.5-2.6.1-10.7zm32.5 1.1-3.3-.9-14.9-4 18.1-4.8 4.9 4.9-4.8 4.8zm.5-11.9-13.3-13.2-3.9-1.1 15 14.9-20 5.3-.4.1-2.2-.6-8.1-2.2v-11l3.3-5.6 2.1-3.6 9 2.4h.1l1.2.3 3.9 1.1 18.1 4.8.5 1.9 1.3 4.7-6.6 1.8zM271.6 506l-7.6-7.5 4.1-7 1.5-2.6 9.3-5.3 7.6 7.5 4.7 17.7.6 2.3.1.4-20.3-5.5zm55.4-32.7zm.3-2.5-2.6 1.5h-10.8l-2.4-9-.3-1.3 4.8-17.6.7-2.7 14.9 14.8 2.8 10.3-7.1 4zm-10-31.3 1.8-6.7 6.6 1.8.9 3.2 4 14.8-13.3-13.1zm1.4-37.3-1.8-6.5 13.3-13.2.7-2.5-.7 2.5-1.2 4.6-3.6 13.4-6.7 1.7zm12.7-23.7-15 14.8-4.7-17.5-.7-2.7 2.8-10.3h11.1l9.3 5.4-2.4 9-.1.3-.3 1zm-4.3-16.6zm.3-2.5-2.6 1.5H314l-2.4-9-.3-1.3 4.8-17.6.7-2.7 14.9 14.8 2.8 10.3-7.1 4zm-10-31.4 1.8-6.7 6.6 1.8.9 3.2 4 14.8-13.3-13.1zm1.5-37.3-1.8-6.5 13.3-13.2.7-2.5-.7 2.5-1.2 4.6-3.6 13.4-6.7 1.7zm12.6-23.6-15 14.8-4.7-17.5-.7-2.7 2.8-10.3H325l9.3 5.4-2.4 9-.1.3-.3 1zm-4.2-16.7zm.3-2.5-2.6 1.5h-10.8l-2.4-9-.3-1.3 4.8-17.6.7-2.7 14.9 14.8 2.8 10.3-7.1 4zm-10-31.3 1.8-6.7 6.6 1.8.9 3.2 4 14.8-13.3-13.1zm1.4-37.3-1.8-6.5 13.3-13.2.7-2.5-.7 2.5-1.2 4.6-3.6 13.4-6.7 1.7zm12.6-23.7-15 14.8-4.7-17.5-.7-2.7L314 140h11.1l9.3 5.4-2.4 9-.1.3-.3.9zm-4.2-16.6zm.3-2.5-2.6 1.5h-10.8l-2.4-9-.3-1.3 4.8-17.6.7-2.7 14.9 14.8 2.8 10.3-7.1 4zm-10-31.4 1.8-6.7 6.6 1.8.9 3.2 4 14.8-13.3-13.1zm-24.1-35.2 1.3 4.7-6.6 1.7L275 63.1l-3.9-1.1 15 14.9-20 5.3-.4.1-2.2-.6-8.1-2.2v-11l3.3-5.6 2.1-3.6 9 2.4h.1l1.2.3 3.9 1.1 18.1 4.8.5 2zm-39.2-3.6zm-34.1 9.6-6.7-1.8 1.8-6.5 3.3-.9 14.9-3.9-13.3 13.1zm-6.6-10-6.7 1.8-1.8-6.5L218.6 48l.7-2.5-.7 2.5-1.2 4.6-3.7 13.3zm-32.2 3.9 1.3 4.7-6.6 1.7L162.9 63l-3.9-1.1 15 14.9-20 5.3-.4.1-2.2-.6-8.1-2.2v-11l3.3-5.6 2.1-3.6 9 2.4h.1l1.2.3 3.9 1.1 18.1 4.8.5 2zm-73.4 6-6.7-1.8 1.8-6.5 3.3-.9 14.9-3.9-13.3 13.1zm-6.6-10-6.7 1.8-1.7-6.6 13.3-13.2.7-2.5-.7 2.5-1.2 4.6-3.7 13.4zM68.3 83.2 63.5 88l-3.3-.9-14.9-4 18.1-4.8 4.9 4.9zm-4.2 7 6.7 1.8-1.8 6.5 1.9-.5-5.1 1.4-14.9 4 13.2-13.2zm8.8 9.4 4.5-1.2 1.8 6.5-13.3 13.2 4.9-17.9 2.1-.6zm6.9 7.6 2.5 9.4 2.9 10.8-1.1 3.9-1.7 6.3H71.3l-6.7-3.8-2.6-1.5 2.4-9 .3-1.3 15.1-14.8zM69 138.7zm-23.3 15.6L55 149l7.6 7.5 4.7 17.7.6 2.3.1.4-20.3-5.4-7.6-7.5 4.1-7 1.5-2.7zm22.5 40.3-4.8 4.8-3.3-.9-14.9-4 18.1-4.8 4.9 4.9zm-4.2 7.1 6.7 1.8-1.8 6.5 1.9-.5-5.1 1.4-14.9 4L64 201.7zm8.8 9.3 4.5-1.2 1.8 6.5-13.3 13.2 4.9-17.9 2.1-.6zm6.8 7.6 2.5 9.4 2.9 10.8-1.1 3.9-1.7 6.3H71.1l-6.7-3.8-2.6-1.5 2.4-9 .3-1.3 15.1-14.8zm-10.7 31.5zm-23.3 15.7 9.3-5.3 7.6 7.5 4.7 17.7.6 2.3.1.4-20.3-5.4-7.6-7.5 4.1-7 1.5-2.7zM68 306.1l-4.8 4.8-3.2-.9-15-4 18.1-4.8 4.9 4.9zm-4.2 7 6.7 1.8-1.8 6.5 1.9-.5-5.1 1.4-14.9 4 13.2-13.2zm8.8 9.4 4.5-1.2 1.8 6.5L65.6 341l4.9-17.9 2.1-.6zm6.9 7.6 2.5 9.4 2.9 10.8-1.1 3.9-1.7 6.3H71l-6.7-3.8-2.6-1.5 2.4-9 .3-1.3 15.1-14.8zm-10.7 31.5zm-23.4 15.6 9.3-5.3 7.6 7.5 4.7 17.7.6 2.3.1.4-20.3-5.4-7.6-7.5 4.1-7 1.5-2.7zm22.5 40.3-4.8 4.8-3.3-.9-14.9-4 18.1-4.8 4.9 4.9zm-4.2 7.1 6.7 1.8-1.8 6.5 1.9-.5-5.1 1.4-14.9 4 13.2-13.2zm8.8 9.3 4.5-1.2 1.8 6.5-13.3 13.2 4.9-17.9 2.1-.6zm6.8 7.6 2.5 9.4 2.9 10.8-1.1 3.9L82 472H70.9l-6.7-3.8-2.6-1.5 2.4-9 .3-1.3 15-14.9zM68.6 473zm-23.3 15.6 9.3-5.3 7.6 7.5 4.7 17.7.6 2.3.1.4-20.3-5.4-7.6-7.5 4.1-7 1.5-2.7zm49.4 55.3 6.6 1.8.9 3.2 4 14.8L93 550.5l1.7-6.6zm6.4-6.5 6.6-1.7 13.3 13.2-18.1-4.8-1.8-6.7zm8.8-2.4 20.4-5.4 10.3 2.8v11l-5.4 9.3-9-2.4-1.3-.4-15-14.9zm24.3-6.4 6.8-1.8 8.1 2.2-6.8 1.8-8.1-2.2zm25.4 23.5 17.8-4.7 2.3-.6.4-.1-5.5 20.2-7.6 7.5-7-4-2.6-1.5-5.4-9.3 7.6-7.5zm22.7-6 2.2-.6 4.5-1.2 1.8 6.5-13.4 13.2 4.9-17.9zm8.2-4.3-7.5 2 .1-.4 1.9-7-7.5-2 5.4-5.4-5.5-5.5 7.4-2-2-7.5-.1-.4-.5-1.9-.9-3.2-4-14.8 13.2 13.2-1.8 6.7-6.6-1.8.5 1.9.1.4.4.1 7 1.9 2-7.5 5.4 5.4 5.5-5.5 2 7.3 7.5-2-.1.4-1.9 7 7.5 2-5.4 5.4 5.5 5.5-7.4 2 2 7.5-.4-.1-7-1.9-2 7.5-5.4-5.4-5.5 5.5-1.9-7.4zm16.3 2.3 6.6 1.8.9 3.2 4 14.8-13.3-13.2 1.8-6.6zm6.5-6.6 6.6-1.7 13.3 13.2-18.1-4.8-1.8-6.7zm8.8-2.3 20.4-5.4 10.3 2.8v11l-5.4 9.2-9-2.4-1.3-.4-15-14.8zm31.7 10.7zm1 1.7 1.8 3 2.4 4.1.4.7 6.7-1.8 1.8-.5-6.2 6.1.3.5 2.2 3.8 1.9 3.2-11.2-6.5-.1-12.6zm16.9 4.6 17.8-4.7 2.3-.6.4-.1-5.5 20.2-7.6 7.5-7-4-2.6-1.5-5.4-9.3 7.6-7.5zm22.8-6 2.2-.6 4.5-1.2 1.8 6.5-13.3 13.2 4.8-17.9zm8.1-4.2-7.5 2 .1-.4 1.9-7-7.5-2 5.4-5.4-5.5-5.5 7.4-2-2-7.5-.1-.4-.5-1.9-.9-3.2-4-14.8 13.2 13.2-1.8 6.7-6.6-1.8.5 1.9.1.4.4.1 7 1.9 2-7.5 5.4 5.4 5.5-5.5 2 7.3 7.5-2-.1.4-1.9 7 7.5 2-5.4 5.4 5.5 5.5-7.4 2 2 7.5-.4-.1-7-1.9-2 7.5-5.4-5.4-5.5 5.5-1.9-7.4zm16.4 2.2 6.6 1.8.9 3.2 4 14.8-13.2-13.2 1.7-6.6zm6.4-6.5 6.6-1.7 13.3 13.2-18.1-4.8-1.8-6.7zm6.5-15.9-6.7-1.8 1.8-6.5 3.3-.9 14.9-3.9-13.3 13.1zm-1.6-11.3-1.4.4-.9.2-.2.1-.2.1L333 491l7.6-7.5 7 4 1.2.7 1.4.8 2.7 4.7 2.7 4.6-7.6 7.5-17.7 4.7zm34.7-.1.2.4-.2-.4zm0-26.7v11.5l-4.5-2.6-8.7-5 .2.3-.2-.3-3.1-1.8-2.8-1.6-5.6-3.2-6.2 6.1 2.3-8.4-1.7-1-1-.6-4.9-2.8h13l.1.1 6.4 11.1 3.5 2-7.6-13.2h11.6v9.3l9.2.1zm0-2.1h-7.3v-7.3h7.3v7.3zm-9.3-9.3h-11.6l7.7-13.1 13.3-7.6v11.2h-9.3l-.1 9.5zm-5.4-14.6L341 463l-7.6-7.5-4.7-17.6-.6-2.3-.1-.4 20.3 5.4 7.6 7.5-4.1 7-1.5 2.6zm-23-24.8-1.8-6.7 6.6-1.7 13.3 13.2-18.1-4.8zm4.7-22.5-6.7-1.8 1.8-6.5 3.3-.9 14.9-3.9-13.3 13.1zm-1.6-11.3-1.4.4-.9.2-.2.1-.2.1 5.5-20.2 7.6-7.5 7 4 1.2.7 1.4.8 2.7 4.7 2.7 4.6-7.6 7.5-17.8 4.6zm34.7-.1.2.4-.2-.4zm-9.3-38.1h-11.6l7.7-13.1 13.3-7.6v11.2h-9.3l-.1 9.5zm-5.4-14.7-9.3 5.3-7.6-7.5-4.7-17.6-.6-2.3-.1-.4 20.3 5.4 7.6 7.5-4.1 7-1.5 2.6zm-22.9-24.8-1.8-6.7 6.6-1.7 13.3 13.2-18.1-4.8zm4.7-22.5-6.7-1.8 1.8-6.5 3.3-.9 14.9-3.9-13.3 13.1zm-1.7-11.3-1.4.4-.9.2-.2.1-.2.1 5.5-20.2 7.6-7.5 7 4 1.2.7 1.4.8 2.7 4.7 2.7 4.6-7.6 7.5-17.8 4.6zm34.7-.1.2.4-.2-.4zm-9.3-38h-11.6l7.7-13.1 13.3-7.6V240H356l-.1 9.5zm-5.4-14.7-9.3 5.3-7.6-7.5-4.7-17.6-.6-2.3-.1-.4 20.3 5.4 7.6 7.5-4.1 7-1.5 2.6zM327.6 210l-1.8-6.7 6.6-1.7 13.3 13.2-18.1-4.8zm4.7-22.5-6.7-1.8 1.8-6.5 3.3-.9 14.9-3.9-13.3 13.1zm-1.6-11.3-1.4.4-.9.2-.2.1-.2.1 5.5-20.2 7.6-7.5 7 4 1.2.7 1.4.8 2.7 4.7 2.7 4.6-7.6 7.5-17.8 4.6zm34.7-.1.2.4-.2-.4zm-9.3-38.1h-11.6l7.7-13.1 13.3-7.6v11.2h-9.3l-.1 9.5zm-5.4-14.6-9.3 5.3-7.6-7.5-4.7-17.6-.6-2.3-.1-.4 20.3 5.4 7.6 7.5-4.1 7-1.5 2.6zm-22.9-24.8-1.8-6.7 6.6-1.7 13.3 13.2-18.1-4.8zm4.6-22.6-6.7-1.8 1.8-6.5 3.3-.9 14.9-3.9L332.4 76zm-18.2-47.4h11.1l9.3 5.4-2.4 9-.1.3-.3 1-15 14.8-4.7-17.5-.7-2.7 2.8-10.3zm-21 1.4 2.6-1.5h10.7l2.4 9 1.4 5.2 4.8 18-4.9 4.9-4.8-4.8.9-3.2 4-14.8-1.1-3.9-4.8 17.6-.7 2.7-14.9-14.8-2.8-10.3 7.2-4.1zm-6.1 15.4 4.7 17.7.6 2.3.1.4-20.3-5.4-7.6-7.5 4.1-7 1.5-2.6 9.3-5.3 7.6 7.4zm-22.3-16.9h11.6l-7.7 13.2-1.8 3.1-1 1.7-3.8 6.6 6.2 6.1-8.4-2.3-4.4 7.7v-13h.1l11.2-6.4 2-3.5-13.3 7.6V38.1h9.4l-.1-9.6zm-2-.3V36h-7.3v-7.8h7.3zm-16.7 7.6v-7.3h7.3v7.3h-7.3zm7.3 15.8v12.9l-.2-.4-4.4-7.5-8.4 2.2 6.2-6.1-.8-1.4-.8-1.3-2.8-4.9 11.2 6.5zm-24.4-14 7 4 1.2.7 1.4.8 2.7 4.7 2.7 4.6-7.6 7.5-17.8 4.7-1.4.4-.9.2-.2.1-.2.1 5.5-20.2 7.6-7.6zm-27-9.2h11.1l9.3 5.4-2.4 9-.1.3-.3 1-15 14.8-4.7-17.5-.7-2.7 2.8-10.3zm-21 1.5 2.6-1.5h10.7l2.4 9 1.4 5.2 4.8 18-4.9 4.9-4.8-4.8.9-3.2 4-14.8-1.1-3.9-4.8 17.6-.7 2.7-14.9-14.8-2.6-10.4 7-4zm-6.1 15.3 4.7 17.7.6 2.3.1.4-20.3-5.5-7.6-7.5 4.1-7L158 43l9.3-5.3 7.6 7.5zm-31.6-17.1h7.3v7.8h-7.3v-7.8zm0 21V37.9h9.4v-9.6h11.6l-7.7 13.2-1.8 3.1-1 1.7-3.8 6.6 6.2 6.1-8.4-2.3-4.5 7.7v-13h.1l11.2-6.4 2-3.5-13.3 7.6zm-2.1 15.3zm0-12.9v12.9l-.2-.4-4.4-7.5-8.4 2.2 6.2-6.1-.8-1.4-.8-1.3L130 45l11.2 6.5zm-24.3-14 7 4 1.2.7 1.4.8 2.7 4.7 2.7 4.6-7.6 7.5-17.8 4.7-1.4.4-.9.2-.2.1-.2.1 5.5-20.2 7.6-7.6zm-27.1-9.2h11.1l9.3 5.4-2.4 9-.1.3-.3 1-15 14.8-4.7-17.5-.7-2.7 2.8-10.3zm-20.9 1.4 2.6-1.5h10.7l2.4 9 1.4 5.2 4.8 18-4.9 4.9-4.8-4.8.9-3.2 4-14.8-1.1-3.9-4.8 17.6-.7 2.7-14.8-14.8-2.8-10.3 7.1-4.1zm-6.2 15.4 4.7 17.7.6 2.3.1.4L47.9 60l-7.6-7.5 4.1-7 1.5-2.6 9.3-5.3 7.5 7.5zM31.1 28h7.3v7.8h-7.3V28zm0 21V37.8h9.4v-9.6h11.6l-7.7 13.2-1.8 3.1-1 1.7-3.8 6.6 6.2 6.1-8.4-2.3-5.6 9.7 1.2-2.1v-13h.1l11.2-6.4 2-3.5L31.1 49zm0 30.3v-11l3.3-5.6 2.1-3.6 9 2.4h.1l1.2.3 3.9 1.1 18.1 4.8.5 1.9 1.3 4.7-6.6 1.8-13.3-13.3-3.9-1.1 15 14.9-20 5.3-.4.1-2.2-.6-8.1-2.1zm5.5 27.8-4-7-1.6-2.5V86.9l9-2.4 1.3-.3L59 89l2.7.7-14.9 14.8-10.2 2.6zm11.4-.9 17.8-4.7 2.3-.6.4-.1L63 121l-7.6 7.5-7-4-2.6-1.5-5.4-9.3 7.6-7.5zm-17 24.2h7.3v7.3H31v-7.3zm36.2 7.3h-13l-.1-.1-6.4-11.1-.4-.3-3.1-1.8 7.6 13.2H40.2v-9.3h-9.3v-11.5l13.3 7.6-3.1-5.3 1 1.8 2 3.5 1.1.6 2 1.1.4.3 3.1 1.8 3.5 2 1.3.7 6.2-6.1-1.3 4.7-1 3.7 2.1 1.2 5.7 3.3zm-28.9 2v7.6H31v-7.5l7.3-.1zM31 160.4v-11.2h9.4v-9.6H52l-7.7 13.2-1.8 3.1-1 1.7-3.8 6.6 6.2 6.1-8.4-2.3-5.6 9.7 1.2-2.1v-13h.1l11.2-6.4 2-3.5-13.4 7.7zm-.1 30.3v-11l3.3-5.6 2.1-3.6 9 2.4h.1l1.2.3 3.9 1.1 18.1 4.8.5 1.9 1.3 4.7-6.6 1.7-13.3-13.2-3.9-1.1 15 14.9-20 5.3-.4.1-2.2-.6-8.1-2.1zm5.5 27.9-4-7-1.5-2.6v-10.7l9-2.4 1.3-.3 17.7 4.8 2.7.7-14.9 14.8-10.3 2.7zm11.4-1 17.8-4.7 2.3-.6.4-.1-5.5 20.2-7.6 7.5-7-4-2.6-1.5-5.4-9.3 7.6-7.5zm-16.9 24.2h7.3v7.3h-7.3v-7.3zm36.2 7.3h-13l-.1-.1-6.4-11.1-.4-.3-3.1-1.8 7.6 13.2H40.1v-9.3h-9.3v-11.5l13.3 7.6-3.1-5.3 1 1.8 2 3.5 1.1.6 2 1.1.4.3 3.1 1.8 3.5 2 1.3.7 6.2-6.1-1.3 4.7-1 3.7 2.1 1.2 5.7 3.3zm-28.9 2v7.6h-7.3v-7.5l7.3-.1zm-7.4 20.8v-11.2h9.4v-9.6h11.6l-7.7 13.2-1.8 3.1-1 1.7-3.8 6.6 6.2 6.1-8.4-2.3-5.6 9.7 1.2-2.1v-13h.1l11.2-6.4 2-3.5-13.4 7.7zm0 30.3v-11l3.3-5.6 2.1-3.6 9 2.4h.1l1.2.3 3.9 1.1 18.1 4.8.5 1.9 1.3 4.7-6.6 1.7-13.3-13.2-3.9-1.1 15 14.9-20 5.3-.4.1-2.2-.6-8.1-2.1zm5.5 27.8-4-7-1.5-2.6v-10.7l9-2.4 1.3-.3 17.7 4.8 2.7.7-14.9 14.8-10.3 2.7zm11.4-.9 17.8-4.7 2.3-.6.4-.1-5.5 20.2-7.6 7.5-7-4-2.6-1.5-5.4-9.3 7.6-7.5zm-17 24.1H38v7.3h-7.3v-7.3zm36.3 7.3H54l-.1-.1-6.4-11.1-.4-.3-3.1-1.8 7.6 13.2H40v-9.3h-9.3v-11.5l13.3 7.6-3.1-5.3 1 1.8 2 3.5 1.1.6 2 1.1.4.3 3.1 1.8 3.5 2 1.3.7 6.2-6.1-1.3 4.7-1 3.7 2.1 1.2 5.7 3.3zm-29 2v7.6h-7.3v-7.6H38zm-7.3 20.8v-11.2h9.4v-9.6h11.6L44 375.7l-1.8 3.1-1 1.7-3.8 6.6 6.2 6.1-8.4-2.3-5.6 9.7 1.2-2.1v-13h.1l11.2-6.4 2-3.5-13.4 7.7zm-.1 30.3v-11l3.3-5.6 2.1-3.6 9 2.4h.1l1.2.3 3.9 1.1 18.1 4.8.5 1.9 1.3 4.7-6.6 1.7-13.3-13.2-3.9-1.1 15 14.9-20 5.3-.4.1-2.2-.6-8.1-2.1zm5.5 27.9-4-7-1.5-2.6v-10.7l9-2.4 1.3-.3 17.7 4.8 2.7.7-14.9 14.8-10.3 2.7zm11.5-1 17.8-4.7 2.3-.6.4-.1-5.5 20.2-7.6 7.5-7-4-2.6-1.5L40 448l7.6-7.5zm-17 10.7 13.3 7.6-3.1-5.3 1 1.8 2 3.5 1.1.6 2 1.1.4.3 3.1 1.8 3.5 2 1.3.7 6.2-6.1-1.3 4.7-1 3.7 2.1 1.2 5.5 3.2h-13l-.1-.1-6.4-11.1-.4-.3-3.1-1.8 7.6 13.2H39.7v-9.3h-9.3l.2-11.4zm0 13.5h7.3v7.3h-7.3v-7.3zm7.3 9.3v7.6h-7.3v-7.5l7.3-.1zm-7.4 20.8v-11.2h9.4V474h11.6l-7.7 13.2-1.8 3.1-1 1.7-3.8 6.6 6.2 6.1-8.4-2.3-5.7 9.8 1.2-2.1v-13h.1l11.2-6.4 2-3.5-13.3 7.6zm0 30.2v-11l3.3-5.6 2.1-3.6 9 2.4h.1l1.2.3 3.9 1.1 18.1 4.8.5 1.9L70 520l-6.6 1.7-13.3-13.2-3.9-1.1 15 14.9-20 5.3-.4.1-2.2-.6-8.1-2.1zm5.5 27.9-4-7-1.5-2.6v-10.7l9-2.4 1.3-.3 17.7 4.8 2.7.7-14.9 14.8-10.3 2.7zm11.4-.9 17.8-4.7 2.3-.6.4-.1-5.5 20.2-7.6 7.5-7-4-2.6-1.5-5.4-9.3 7.6-7.5zm-9.7 31.4h-7.3v-7.3h7.3v7.3zm29 0h-13l-.1-.1-6.4-11.1-.4-.3-3.1-1.8 7.6 13.2H39.7V574h-9.3v-11.5l13.3 7.6-3.1-5.3 1 1.8 2 3.5 1.1.6 2 1.1.4.3 3.1 1.8 3.5 2 1.3.7 6.2-6.1-1.3 4.7-1 3.7 2.1 1.2 5.7 3.3 2.1 1.2-2.1-1.2zm17.9-10.2-1.1 3.9-1.7 6.3H70.7l-6.7-3.8-2.6-1.5 2.4-9 .3-1.3 15-14.8 2.5 9.4 3 10.8zm-3.7-21.9 4.9-4.9 4.8 4.8-.9 3.2-4 14.8-4.8-17.9zm21.9 30.7-2.6 1.5H89.4l-2.4-9-.3-1.3 4.8-17.6.7-2.7 14.9 14.8 2.8 10.3-7.1 4zm13.7-7.8-7.6-7.5-4.7-17.6-.6-2.3-.1-.4 20.3 5.4 7.6 7.5-4.1 7-1.5 2.6-9.3 5.3zm24.1 9.6h-7.3V576h7.3v7.8zm0-9.9h-9.3v9.6h-11.6l7.7-13.1 13.3-7.6-.1 11.1zm0-26.4v12.9l-.1.1-11.2 6.4-.3.4-.3.5.3-.5.3-.4.1-.2 4.4-7.5.1-.2-6.2-6.1 3.9 1 2.3.6 2.3.6 2.3-3.9 2.1-3.7zm9.3 36h-7.3v-7.3h7.3v7.3zm28.9 0h-13l-.1-.1-6.4-11.1-.4-.3-3.1-1.8 7.6 13.2h-11.6v-9.3h-9.3v-11.5l13.3 7.6-3.1-5.4 1.1 1.8 2 3.5 1.1.6 2 1.1.4.3 3.1 1.8 3.5 2 1.3.7 6.2-6.1-1.3 4.7-1 3.7 2.1 1.2 5.6 3.4 2.1 1.2-2.1-1.2zm18-10.2-1.1 3.9-1.7 6.3h-11.1l-6.7-3.8-2.6-1.5 2.4-9 .3-1.3 15-14.8 2.5 9.4 3 10.8zm-3.8-21.9 4.9-4.9 4.8 4.8-.9 3.2-4 14.8-4.8-17.9zm22 30.7-2.6 1.5h-10.8l-2.4-9-.3-1.3 4.8-17.6.7-2.7 14.9 14.8 2.8 10.3-7.1 4zm13.7-7.8-7.6-7.5-4.7-17.6-.6-2.3-.1-.4 20.3 5.4 7.6 7.5-4.1 7-1.5 2.6-9.3 5.3zm14.7 9.3h-11.6l7.7-13.1 13.3-7.6v11.2h-9.3l-.1 9.5zm2 .3v-7.8h7.3v7.8h-7.3zm16.7-.3h-7.3v-7.3h7.3v7.3zm28.9.1h-13l-.1-.1-6.4-11.1-.4-.3-3.1-1.8 7.6 13.2H264v-9.3h-9.3v-11.5l13.3 7.6-3.1-5.3 1.1 1.8 2 3.5 1.1.6 2 1.1.4.3 3.1 1.8 3.5 2 1.3.7 6.2-6.1-1.3 4.7-1 3.7 2.1 1.2 5.6 3.3 2.1 1.2-2.1-1.2zm17.9-10.3-1.1 3.9-1.7 6.3H295l-6.7-3.8-2.6-1.5 2.4-9 .3-1.3 15-14.8 2.5 9.4 3 10.8zm-3.7-21.8 4.9-4.9 4.8 4.8-.9 3.2-4 14.8-4.8-17.9zm21.9 30.7-2.6 1.5h-10.8l-2.4-9-.3-1.3 4.8-17.6.7-2.7 14.9 14.8 2.8 10.3-7.1 4zm13.7-7.9-7.6-7.5-4.7-17.6-.6-2.3-.1-.4 20.3 5.4 7.6 7.5-4.1 7-1.5 2.6-9.3 5.3zm24.1 9.6h-7.3v-7.8h7.3v7.8zm0-9.8h-9.3v9.6H344l7.7-13.1 13.3-7.6-.1 11.1zm0-26.4v12.9l-.1.1-11.2 6.4-.3.4-.3.5.3-.5.3-.4.1-.2 4.4-7.5.1-.2-6.2-6.1 3.9 1 2.3.6 2.3.6 2.3-3.9 2.1-3.7 1-1.8-1 1.8zm0-15.1v11l-5.4 9.3-9-2.4-1.3-.4-14.9-14.9 20.4-5.4 10.2 2.8zm.1-7.6-9.1 2.4-1.3.3-1.3.4 1.3-.4-11.1-3-6.6-1.8-1-.3-1.7-.5 14.9-14.8 6.2-1.6 4.1-1.1 4.1 7 .5.8 1 1.8v10.8zm-7.3-52.7v-7.5h7.3v7.5h-7.3zm7.4-36v12.9l-.1.1-11.2 6.4-.3.4-.3.5.3-.5.3-.4.1-.2 4.4-7.5.1-.2-6.2-6.1 3.9 1 2.3.6 2.3.6 2.3-3.9 2.1-3.7 1-1.8-1 1.8zm0-15.1v11l-5.4 9.3-9-2.4-1.3-.4-14.9-14.9 20.4-5.4 10.2 2.8zm0-7.6-9.1 2.4-1.3.3-1.3.4 1.3-.4-11.1-3-6.6-1.8-1-.3-1.7-.5 14.9-14.8 6.2-1.6 4.1-1.1 4.1 7 .5.8 1 1.8v10.8zm-7.3-52.8v-7.6h7.3v7.6h-7.3zm7.4-36v12.9l-.1.1-11.2 6.4-.3.4-.3.5.3-.5.3-.4.1-.2 4.4-7.5.1-.2-6.2-6.1 3.9 1 2.3.6 2.3.6 2.3-3.9 2.1-3.7 1-1.8-1 1.8zm0-15.1v11l-5.4 9.3-9-2.4-1.3-.4-14.9-14.9L355 307l10.2 2.8zm0-7.6-9.1 2.4-1.3.3-1.3.4 1.3-.4-11.1-3-6.6-1.8-1-.3-1.7-.5 14.9-14.8 6.2-1.6 4.1-1.1 4.1 7 .5.8 1 1.8v10.8zm-7.2-52.7V242h7.3v7.5H358zm7.3-36v12.9l-.1.1-11.2 6.4-.3.4-.3.5.3-.5.3-.4.1-.2 4.4-7.5.1-.2-6.2-6.1 3.9 1 2.3.6 2.3.6 2.3-3.9 2.1-3.7 1-1.8-1 1.8zm.1-15.1v11l-5.4 9.3-9-2.4-1.3-.4-15-14.9 20.4-5.4 10.3 2.8zm0-7.6-9.1 2.4-1.3.3-1.3.4 1.3-.4-11.1-3-6.6-1.8-1-.3-1.7-.5 14.9-14.8 6.2-1.6 4.1-1.1 4.1 7 .5.8 1 1.8v10.8zm-7.3-52.8v-7.5h7.3v7.5h-7.3zm7.4-36v12.9l-.1.1-11.2 6.4-.3.4-.3.5.3-.5.3-.4.1-.2 4.4-7.5.1-.2-6.2-6.1 3.9 1 2.3.6 2.3.6 2.3-3.9 2.1-3.7 1-1.8-1 1.8zm0-15v11l-5.4 9.3-9-2.4-1.3-.4-14.9-14.9 20.4-5.4 10.2 2.8zm0-7.6-9.1 2.4-1.3.3-1.3.4 1.3-.4-11.1-3-6.6-1.8-1-.3-1.7-.5 14.9-14.8 6.2-1.6 4.1-1.1 4.1 7 .5.8 1 1.8v10.8z" style="opacity:.2;fill:#09676a;enable-background:new"/><path d="M198 424.9c-31.6 0-61.5-12.4-84.1-35S78.8 337.5 78.8 306s12.5-61.4 35.1-83.9c22.6-22.6 52.5-35 84.1-35 31 0 60.4 12 82.9 33.8s35.3 50.8 36.2 81.7v3.4c0 31.6-12.5 61.4-35.1 83.9-22.5 22.6-52.4 35-84 35z" style="fill:#09676a"/><path d="M269.9 267.8v84.3c0 .5 0 1-.1 1.6-1.3 2.2-3.6 1.9-5.5 1.8-4.9-.4-9.7-1.3-14.4-2.5-7.1-1.8-14-4.5-21-6.4-4.5-1.3-9.1-1.9-13.8-1.1-7 1.1-11.9 4.9-15.1 11.2-.5 1-.8 2.3-2.4 2.3-.6-.3-.7-.8-.7-1.4.5-1.9-.1-3.7-.1-5.5v-76.4c0-1.2-.3-2.5.6-3.6.8 0 .8-.7 1.1-1.2 4.7-10.7 14.5-14.2 24.7-12.8 7.5 1 14.4 4.1 21.6 6.1 6.8 1.9 13.6 3.9 20.8 3.9 1.5-.2 2.9-.8 4.3-.3z" style="fill:#eaeaea"/><path d="M197.4 271.9c.4 1 .4 2 .4 3.1v80.2c0 .9.2 1.8-.4 2.6-1.4-.2-1.7-1.4-2.2-2.3-3.2-6.1-8.4-9.3-14.9-10.3-5.1-.8-10 .3-14.9 1.7-7.5 2.2-14.7 5-22.3 6.7-4.6 1-9.1 1.9-13.8 1.6-1.2-.1-2.4-.2-3.1-1.4 0-7.9-.1-15.9-.1-23.8v-60c0-1.7.1-2.3 2.2-2.1 6.7.7 13.1-1 19.4-2.8 6.3-1.8 12.5-4 18.9-5.8 7.2-2 14.5-2.6 21.4 1.1 4.7 2.5 7.7 6.4 9.4 11.5z" style="fill:#fff"/><path d="M126.2 353.8c4 1.1 7.9.4 11.9-.2 9.3-1.6 18.1-5 27.1-7.7 6.8-2 13.6-3 20.5-.4 5.8 2.2 9.5 6.6 11.8 12.2.1.3.3.7.4 1 .3.2.5.4.6.6.5 3.6.8 7.2-.6 10.7 0 .1-.3 0-.4.1-5-11.4-14.3-15.8-27.5-13.1-7.2 1.5-14 4.4-21 6.3s-14 3.8-21.4 3.3c-.9-.4-1.4-1-1.4-2.1v-10.7z" style="fill:#eaeaea"/><path d="M197.4 370.2c.8-2.8.2-5.7.4-8.5.1-1 0-1.9 0-2.9 1.6-3.5 3.4-6.9 6.4-9.5 4.9-4.2 10.6-5.5 16.9-5.1 8.7.6 16.5 4.3 24.7 6.6 5.9 1.6 11.8 3.1 17.9 3.7 2.1.2 4.1 0 6.1-.8 0 3.3.1 6.7.1 10 0 2.7-.2 2.9-2.9 3-6.4.3-12.6-1.2-18.7-2.9-6.2-1.8-12.4-3.9-18.6-5.7-4.9-1.4-9.9-2.2-15.1-1.3-7.6 1.3-12.8 5.6-15.9 12.7-.5 1.1-.6 1.1-1.3.7z" style="fill:#bbbdbf"/></svg>