<svg xmlns="http://www.w3.org/2000/svg" viewBox="0 0 198 306" style="enable-background:new 0 0 198 306" xml:space="preserve"><path style="fill:#09676a" d="M0 0h198v306H0z"/><path d="M183.6 18.9v-5.7h-20.9l1.8 1h6.5l3.2 5.5 1.8 1-3.8-6.6h5.8v4.6h4.7v5.7l-2.3-1.3-4.4-2.5.1.2-.1-.2-1.5-.9-1.4-.8-2.8-1.6-3.1 3.1 1.1-4.2-.8-.5-.5-.3-2.5-1.4-1.8-1h-6.6l-1.1 4.2-1.1-4.2h-6.4l-.4.2-1.4.8-.4.2-2.5 1.5-1.1.6 1.1 4.2-3.1-3.1-3.8 2.2 3.2-5.6h6.5l.2-.1 1.5-.9h-40.8l1.8 1h6.5l3.2 5.5 1.8 1-3.8-6.6h5.8v4.6h4.7v5.7l-2.3-1.3-4.4-2.5.2.6-.1-.2-1.5-.9-1.4-.8-2.8-1.6-3.1 3.1 1.1-4.2-.8-.5-.5-.3-2.5-1.4-1.8-1H100l-1.1 4.2-1.1-4.2h-6.4l-.4.2-1.4.8-.4.2-2.5 1.5-1.1.6 1.1 4.2-3.1-3.1-3.8 2.2 3.2-5.6h6.5l.2-.1 1.5-.9H50.6l1.8 1h6.5l3.2 5.5 1.8 1-3.9-6.5h5.8v4.6h4.7v5.7l-2.3-1.3-4.4-2.5.1.2-.1-.2-1.5-.9-1.4-.8-2.8-1.6-3.1 3.2 1.1-4.2-.8-.5-.5-.3-2.5-1.4-1.8-1H44l-1.1 4.2-1.1-4.2h-6.5l-.4.2-1.4.8-.4.2-2.5 1.5-1.1.6 1.1 4.2-3.1-3.1-3.8 2.2 3.2-5.6h6.5l.2-.1 1.5-.9H14.4v27.3l4.2 1.1-4.2 1.1v6.4l.2.4.6 1 .1.1.1.2.9 1.5 1.2 2.1.2.3L21 54l.9-.2-3.1 3.1.2.1 1.1 1.9.9 1.6-5.6-3.2v-6.5l-.1-.2-.7-1.1-.2-.4v47.1l4.2 1.1-4.2 1.1v6.4l.2.4.6 1 .1.1.1.2.9 1.5 1.2 2.1.2.3 3.3-.9.9-.2-3.1 3.1.1.2 1.1 1.9.9 1.6-5.6-3.2v-6.5l-.1-.2-.7-1.1-.2-.4v47.1l4.2 1.1-4.2 1.1v6.4l.2.4.6 1 .1.1.1.2.9 1.5 1.2 2.1.2.3 3.3-.9.9-.2-3.1 3.1.1.2 1.1 1.9L21 172l-5.6-3.2v-6.5l-.1-.2-.7-1.1-.2-.4v47.1l4.2 1.1-4.2 1.1v6.4l.2.4.6 1 .1.1.1.2.9 1.5 1.2 2.1.2.3 3.3-.9.9-.2-3.1 3.1.1.2L20 226l.9 1.6-5.6-3.2v-6.5l-.1-.2-.7-1.1-.2-.4v47.2l4.2 1.1-4.2 1.1v6.4l.2.4.6 1 .1.1.1.2.9 1.5 1.2 2.1.2.3 3.3-.9.9-.2-3.1 3.1.1.2 1.1 1.9.9 1.6-5.6-3.2v-6.5l-.1-.2-.7-1.1-.2-.4v20.8h27.5l1.1-4.2 1.1 4.2h6.5l.6-.3.8-.5h.1l.1-.1 3.1-1.8.9-.5-1.1-4.2 3.1 3.1 1.2-.7.9-.5 1.7-.9-3.2 5.6h-6.5l-.1.1h-.1l-.8.5-.6.3h-.1H98l1.1-4.2 1.1 4.2h6.5l.6-.3.8-.5h.1l.1-.1 3.1-1.8.9-.5-1.1-4.2 3.1 3.1 1.2-.7.9-.5 1.7-.9-3.2 5.6h-6.5l-.1.1h-.1l-.8.5-.6.3h-.1 47.4l1.1-4.2 1.1 4.2h6.5l.6-.3.8-.5h.1l.1-.1 3.1-1.8.9-.5-1.1-4.2 3.1 3.1 1.2-.7.9-.5 1.7-.9-3.2 5.6h-6.5l-.1.1h-.1l-.8.5-.6.3h-.1 20.9v-27.6l-4.2-1.1 4.2-1.1v-6.4l-.6-1.1-.1-.1v-.1l-.2-.3.6 1.1.3.4v-47.1l-4.2-1.1 4.2-1.1V201l-.7-1-.1-.1v-.1l-.2-.3.6 1.1.3.4v-47l-4.2-1.1 4.2-1.1v-6.4l-.6-1.1-.1-.1v-.1l-.2-.3.6 1.1.3.4V98.1l-4.2-1.1 4.2-1.1v-6.4l-.6-1.1-.1-.1v-.1l-.2-.3.6 1.1.3.4V42.6l-4.2-1.1 4.2-1.1V34l-.6-1.1-.1-.1v-.1l-.2-.3.6 1.1.3.4v-15zm-1-1.1H179v-3.6h3.7v3.6zm-112.2 0h-3.7v-3.6h3.7v3.6zm112.2 14.4.1.2-.1-.2zm0-6.4v6.4l-.1-.2-2.2-3.7-4.2 1.1 3.1-3.1-.4-.7-.4-.7-1.4-2.4 5.6 3.3zm-12.2-7 3.5 2 .6.3.7.4 1.4 2.3 1.3 2.3-3.8 3.8-8.9 2.4-.7.2-.4.1h-.2l2.7-10.1 3.8-3.7zM168 39.5l7.5 2-9 2.4-2.5-2.4 2.4-2.4-.6-.2.5.1h.1l1.6.5zm14.6 30.4v3.6H179v-3.6h3.6zm-18.1 0h6.5l3.2 5.5 1.8 1-3.8-6.6h5.8v4.6h4.7v5.7l-2.3-1.3-4.4-2.5.1.1-.1-.1-1.5-.9-1.4-.8-2.8-1.6-3.1 3.1 1.1-4.2-.8-.5-.5-.3-2.5-1.2zm18 17.8-2.2-3.7-4.2 1.1 3.1-3.1-.4-.7-.4-.7-1.4-2.4 5.6 3.2v6.4l-.1-.1zM168 95.2l7.5 2-9 2.4-2.5-2.4 2.4-2.4-.6-.2.5.1h.1l1.6.5zm14.6 30.4v3.6H179v-3.6h3.6zm-18.1 0h6.5l3.2 5.5 1.8 1-3.8-6.6h5.8v4.6h4.7v5.7l-2.3-1.3-4.4-2.5.1.2-.1-.2-1.5-.9-1.4-.8-2.8-1.6-3.1 3.1 1.1-4.2-.8-.5-.5-.3-2.5-1.2zm18 17.9-2.2-3.7-4.2 1.1 3.1-3.1-.4-.7-.4-.7-1.4-2.4 5.6 3.2v6.4l-.1-.1zm-14.5 7.4 7.5 2-9 2.4-2.5-2.4 2.4-2.4-.6-.2.5.1h.1l1.6.5zm14.6 30.5v3.6H179v-3.6h3.6zm-18.1 0h6.5l3.2 5.5 1.8 1-3.8-6.6h5.8v4.6h4.7v5.7l-2.3-1.3-4.4-2.3.1.2-.1-.2-1.5-.9-1.4-.8-2.8-1.6-3.1 3.1 1.1-4.2-.8-.5-.5-.3-2.5-1.4zm18 17.8-2.2-3.7-4.2 1.1 3.1-3.1-.4-.7-.4-.7-1.4-2.4 5.6 3.2v6.4l-.1-.1zm-14.5 7.5 7.5 2-9 2.4-2.5-2.4 2.4-2.4-.6-.2.5.1h.1l1.6.5zm14.5 48.2-2.2-3.7-4.2 1.1 3.1-3.1-.4-.7-.4-.7-1.4-2.4 5.6 3.2v6.4l-.1-.1zm-14.5 7.5 7.5 2-9 2.4-2.5-2.4 2.4-2.4-.6-.2.5.1h.1l1.6.5zm-47.9 14 2 .5 1.1.3 1.1.3 1.1-2 1.1-1.8v6.4l-5.6 3.2-.1.2-.2.3.2-.3.1-.2.1-.1 2.2-3.7v-.1l-3.1-3zm-48.6-2.6.9 1.5 1.2 2.1.2.3 3.3-.9.9-.2-3.1 3.1.1.2 1.1 1.9.9 1.6-5.6-3.2.1-6.4zm-39.6-5.7 3.4.9-.9 3.3.9-.2-2.6.7-7.5 2 6.7-6.7zm-.3-1.2-1.6-.4-7.5-2 9-2.4 2.5 2.4-2.4 2.4zm4.7 5.9 2.2-.6.9 3.3-6.7 6.6 2.4-9 1.2-.3zm3-1.9-3.8 1 .1-.2.9-3.5-3.8-1 2.7-2.7-2.8-2.7 3.7-1-1-3.7-.1-.2-.2-.9-.4-1.6-2-7.4 6.6 6.6-.9 3.3-3.3-.9.3.9v.2l.2.1 3.5.9 1-3.7 2.7 2.7 2.8-2.7 1 3.7 3.8-1-.1.2-.9 3.5 3.8 1-2.7 2.7 2.8 2.7-3.7 1 1 3.7-.2-.1-3.5-.9-1 3.7-2.7-2.7-2.8 2.7-1-3.7zM27 237.1h6.5l-.4.2-2.5 1.5-1.1.6 1.1 4.2-3.1-3.1-3.8 2.2 3.3-5.6zm8.4-35.7-.1-.2-.2-.9-.4-1.6-2-7.4 6.6 6.6-.9 3.3-3.3-.9.3.9v.2l.2.1 3.5.9 1-3.7 2.7 2.7 2.8-2.7 1 3.7 3.8-1-.1.2-.9 3.5 3.8 1-2.7 2.7 2.8 2.7-3.7 1 1 3.7-.2-.1-3.5-.9-1 3.7-2.7-2.7-2.8 2.7-1-3.7-3.8 1 .1-.2.9-3.5-3.8-1 2.7-2.7-2.8-2.7 3.7-1-1-3.7zm-8.4-20h6.5-.1l-.4.2-2.5 1.5-1.1.6 1.1 4.2-3.1-3.1-3.8 2.2 3.4-5.6zm8.4-35.8-.1-.2-.2-.9-.4-1.6-2-7.4 6.6 6.6-.9 3.3-3.3-.9.3.9v.2l.2.1 3.5.9 1-3.7 2.7 2.7 2.8-2.7 1 3.7 3.8-1-.1.2-.9 3.5 3.8 1-2.7 2.7 2.8 2.7-3.7 1 1 3.7-.2-.1-3.5-.9-1 3.7-2.7-2.7-2.8 2.7-1-3.7-3.8 1 .1-.2.9-3.5-3.8-1 2.7-2.7-2.8-2.7 3.7-1-1-3.7zm-8.4-20h6.5l-.4.2-2.5 1.5-1.1.6 1.1 4.2-3.1-3.1-3.8 2.2 3.3-5.6zm8.4-35.7-.1-.2-.2-.9-.4-1.6-2-7.4 6.6 6.6-.9 3.3-3.3-.9.3.9v.2l.2.1 3.5.9 1-3.7 2.7 2.7 2.8-2.7 1 3.7 3.8-1-.1.1-.9 3.5 3.8 1-2.7 2.7 2.8 2.7-3.7 1 1 3.7-.2-.1-3.5-.9-1 3.7-2.7-2.7-2.8 2.7-1-3.7-3.8 1 .1-.2.9-3.5-3.8-1 2.7-2.7-2.8-2.7 3.7-1-1-3.6zm-8.4-20h6.5l-.4.2-2.5 1.5-1.1.6 1.1 4.2-3.1-3.1-3.8 2.2 3.3-5.6zm8.4-35.7-.1-.2-.2-.9-.4-1.6-2-7.4 6.6 6.6-.9 3.3-3.3-.9.3.9v.2l.2.1 3.5.9 1-3.7 2.7 2.7 2.8-2.7 1 3.7 3.8-1-.1.2-.9 3.5 3.8 1-2.7 2.7 2.8 2.7-3.7 1 1 3.7-.2-.1-3.5-.9-1 3.7L43 49l-2.8 2.7-1-3.7-3.8 1 .1-.2.9-3.5-3.8-1 2.7-2.7-2.8-2.7 3.7-1-.8-3.7zM69.7 33l.2.4.5.9v5.3l-4.5 1.2-.6.2-.7.2.7-.2-5.6-1.5-3.3-.9-.5-.1-.9-.2 7.4-7.4 3.1-.8 2.1-.6 2.1 3.5zm1.3.1zm-.4 7.5 4 1.1-3.4.9-4-1.1 3.4-.9zM91.4 34v.2l.2.1 3.5.9 1-3.7 2.7 2.7 2.8-2.7 1 3.7 3.8-1-.1.2-.9 3.5 3.8 1-2.7 2.7 2.8 2.7-3.7 1 1 3.7-.2-.1-3.5-.9-1 3.7-2.8-2.7-2.8 2.7-1-3.7-3.8 1 .1-.2.9-3.5-3.8-1 2.7-2.7-2.8-2.7 3.7-1-1-3.7.1-.2-.3-.9-.4-1.6-2-7.4 6.6 6.6-.9 3.3-3.3-.9.3.9zm34.4-1 .2.4.5.9v5.3l-4.5 1.2-.7.2-.7.2.7-.2-5.6-1.5-3.3-.9-.5-.1-.9-.2 7.4-7.4 3.1-.8 2.1-.6 2.2 3.5zm.7-.8zm21 1.8v.2l.2.1 3.5.9 1-3.7 2.7 2.7 2.8-2.7 1 3.7 3.8-1-.1.2-.9 3.5 3.8 1-2.7 2.7 2.8 2.7-3.7 1 1 3.7-.2-.1-3.5-.9-1 3.7-2.7-2.7-2.8 2.7-1-3.7-3.8 1 .1-.2.9-3.5-3.8-1 2.7-2.7-2.8-2.7 3.7-1-1-3.7V34l-.3-.9-.4-1.6-2-7.4 6.6 6.6-.9 3.3-3.3-.9.3.9zm11-3.4 6.7-6.6.3-1.3-.3 1.3-.6 2.3-1.8 6.7-3.4.9-.9-3.3zm8.8 31.8 3.1 3.1 1.2-.7.9-.5 1.7-.9L171 69h-6.5l3.1-1.8.9-.5-1.2-4.3zm-2 32.1-2.7 2.7 2.8 2.7-3.7 1 1 3.7-.2-.1-3.5-.9-1 3.7-2.7-2.7-2.8 2.7-1-3.7-3.8 1 .1-.2.9-3.5-3.8-1 2.7-2.7-2.8-2.7 3.7-1-1-3.7-.1-.2-.2-.9-.4-1.6-2-7.4 6.6 6.6-.9 3.3-3.3-.9.3.9v.2l.2.1 3.5.9 1-3.7 2.7 2.7 2.8-2.7 1 3.7 3.8-1-.1.2-.9 3.5 3.8 1zm2 23.7 3.1 3.1 1.2-.7.9-.5 1.7-.9-3.2 5.6h-6.5l3.1-1.8.9-.5-1.2-4.3zm-2 32-2.7 2.7 2.8 2.7-3.7 1 1 3.7-.2-.1-3.5-.9-1 3.7-2.7-2.7-2.8 2.7-1-3.7-3.8 1 .1-.2.9-3.5-3.8-1 2.7-2.7-2.8-2.7 3.7-1-1-3.7-.1-.2-.2-.9-.4-1.6-2-7.4 6.6 6.6-.9 3.3-3.3-.9.3.9v.2l.2.1 3.5.9 1-3.7 2.7 2.7 2.8-2.7 1 3.7 3.8-1-.1.2-.9 3.5 3.8 1zm2 23.7 3.1 3.1 1.2-.7.9-.5 1.7-.9-3.2 5.6h-6.6.1l3.1-1.8.9-.5-1.2-4.3zm-2 32-2.7 2.7 2.8 2.7-3.7 1 1 3.7-.2-.1-3.5-.9-1 3.7-2.7-2.7-2.8 2.7-1-3.7-3.8 1 .1-.2.9-3.5-3.8-1 2.7-2.7-2.8-2.7 3.7-1-1-3.7-.1-.2-.2-.9-.4-1.6-2-7.4 6.6 6.6-.9 3.3-3.3-.9.3.9v.2l.2.1 3.5.9 1-3.7 2.7 2.7 2.8-2.7 1 3.7 3.8-1-.1.2-.9 3.5 3.8 1zm2 23.7 3.1 3.1 1.2-.7.9-.5 1.7-.9-3.2 5.6h-6.4l3.1-1.8.9-.5-1.3-4.3zm-8.8 23.9 6.7-6.6.3-1.3-.3 1.3-.6 2.3-1.8 6.7-3.4.9-.9-3.3zm7.2-8.6-7.5 7.4-2.4-8.8-.4-1.3 1.4-5.1h5.6l4.7 2.7-1.2 4.5v.1l-.2.5zm-11.2-2.7-2.4 8.8-.4 1.3-7.4-7.4-1.4-5.1 3.5-2 1.3-.7h5.4l1.2 4.5.7 2.6 2.4 9-2.5 2.4-2.4-2.4.4-1.6 2-7.4-.4-2zm-7 29.8-2.6.7-7.5 2 6.6-6.6 3.4.9-.9 3.3 1-.3zm-31.7-9.7-3.3-.9-.5-.1-.9-.2 7.4-7.4 3.1-.8 2.1-.6 2 3.5.2.4.5.9v5.3l-4.5 1.2-.7.2-.7.2.7-.2-5.4-1.5zm-6.1-.5.5.1h.1l1.6.4 7.5 2-9 2.4-2.5-2.4 2.4-2.4-.6-.1zm-7.2-8.3 6.7-6.6.3-1.3-.3 1.3-.6 2.3-1.8 6.7-3.4.9-.9-3.3zm-4.1-11.3L96 251l-.4 1.3-7.4-7.4-1.4-5.1 3.5-2 1.3-.7H97l1.2 4.5.7 2.6 2.4 9-2.5 2.4-2.4-2.4.4-1.6 2-7.4-.4-2zm-7 29.8-2.6.7-7.5 2 6.6-6.6 3.4.9-.9 3.3 1-.3zm-12 3.2-5.2 1.4-2-3.5-.7-1.3v-5.3l4.5-1.2.7-.2 8.9 2.4 1.3.4-7.5 7.3zm8.3-8.3-1.6-.4-7.5-2 9-2.4 2.5 2.4-2.4 2.4zm.2-5.9-6.6-6.6-2-.5 7.5 7.4-10 2.7-.2.1-1.1-.3-4.1-1.1v-5.5l1.6-2.8 1.1-1.8 4.5 1.2.6.2 2 .5 9 2.4.3 1 .6 2.4-3.2.7zm-28.2 1.3-3.3-.9-.5-.1-.9-.2 7.4-7.4 3.1-.8 2.1-.6 2 3.5.2.4.5.9v5.3l-4.5 1.2-.7.2-.7.2.7-.2-5.4-1.5zm-6.1-.5.5.1h.1l1.6.4 7.5 2-9 2.4-2.5-2.4 2.4-2.4-.6-.1zm-7.2-8.3 6.7-6.6.3-1.3-.3 1.3-.6 2.3-1.8 6.7-3.4.9-.9-3.3zm-4.1-11.3-2.4 8.8-.4 1.3-7.4-7.4-1.4-5.1 3.5-2 1.3-.7h5.4l1.2 4.5.7 2.6 2.4 9-2.5 2.4-2.4-2.4.4-1.6 2-7.4-.4-2zM53.6 206l.5.1h.1l1.6.4 7.5 2-9 2.4-2.5-2.4 2.4-2.4-.6-.1zm-7.2-8.3 6.7-6.6.3-1.3-.3 1.3-.6 2.3-1.8 6.7-3.4.9-.9-3.3zm-4.1-11.2-2.4 8.8-.4 1.3-7.4-7.4-1.4-5.1 3.5-2 1.3-.7h5.4l1.2 4.5.7 2.6 2.4 9-2.5 2.4-2.4-2.4.4-1.6 2-7.4-.4-2zm11.3-36.2.5.1h.1l1.6.4 7.5 2-9 2.4-2.5-2.4 2.4-2.4-.6-.1zm-7.2-8.3 6.7-6.6.3-1.3-.3 1.3-.6 2.3-1.8 6.7-3.4.9-.9-3.3zm-4.1-11.2-2.4 8.8-.4 1.3-7.4-7.4-1.4-5.1 3.5-2 1.3-.7h5.4l1.2 4.5.7 2.6 2.4 9-2.5 2.4-2.4-2.4.4-1.6 2-7.4-.4-2zm11.3-36.2.5.1h.1l1.6.4 7.5 2-9 2.4-2.5-2.4 2.4-2.4-.6-.1zm-7.2-8.3 6.7-6.6.3-1.3-.4 1.3-.6 2.3-1.8 6.7-3.4.9-.8-3.3zm-4.1-11.2-2.4 8.8-.4 1.3-7.4-7.4-1.4-5.1 3.5-2 1.3-.7h5.4l1.2 4.5.7 2.6 2.4 9-2.5 2.4-2.3-2.5.4-1.6 2-7.4-.5-1.9zm11.3-36.2.5.1h.1l1.6.4 7.5 2-9 2.4-2.5-2.4 2.4-2.4-.6-.1zm37.8 10.2-2.6.7-7.5 2 6.6-6.6 3.4.9-.9 3.3 1-.3zm5.7 9.3 1.5 5.4-.5 2-.9 3.2h-5.5l-3.4-2-1.3-.8 1.2-4.5.2-.6 7.5-7.4 1.2 4.7zm12.6-19.5.5.1h.1l1.6.4 7.5 2-9 2.4-2.5-2.4 2.4-2.4-.6-.1zm17 1.7 4 1.1-3.4.9-4-1.1 3.4-.9zm20.8 8.5-2.6.7-7.5 2 6.6-6.6 3.4.9-.9 3.3 1-.3zm5.7 9.3 1.5 5.4-.5 2-.9 3.2h-5.5l-3.3-1.9-1.3-.8 1.2-4.5.2-.6 7.5-7.4 1.1 4.6zm1.3 16.7-2.4 8.8-.4 1.3-7.4-7.4-1.4-5.1 3.5-2 1.3-.7h5.4l1.2 4.5.7 2.5 2.4 9-2.5 2.4-2.4-2.4.4-1.6 2-7.4-.4-1.9zm-7 29.7-2.6.7-7.5 2 6.6-6.6 3.4.9-.9 3.3 1-.3zm5.7 9.3 1.5 5.4-.5 2-.9 3.2h-5.5l-3.3-1.9-1.5-.8 1.2-4.5.2-.6 7.5-7.4 1.3 4.6zm1.3 16.7-2.4 8.8-.4 1.3-7.4-7.4-1.4-5.1 3.5-2 1.3-.7h5.4l1.2 4.5.7 2.6 2.4 9-2.5 2.4-2.4-2.4.4-1.6 2-7.4-.4-2zm-7 29.7-2.6.7-7.5 2 6.6-6.6 3.4.9-.9 3.3 1-.3zm5.7 9.3 1.5 5.4-.5 2-.9 3.2h-5.6l-3.3-1.9-1.3-.8 1.2-4.5.2-.6 7.5-7.4 1.2 4.6zm1.3 16.7-2.4 8.8-.4 1.3-7.4-7.4-1.4-5.1 3.5-2 1.3-.7h5.4l1.2 4.5.7 2.6 2.4 9-2.5 2.4-2.4-2.4.4-1.6 2-7.4-.4-2zm-7 29.8-2.6.7-7.5 2 6.6-6.6 3.4.9-.9 3.3 1-.3zm5.7 9.2 1.5 5.4-.5 2-.9 3.2h-5.6l-3.3-1.9-1.3-.8 1.2-4.5.2-.6 7.5-7.4 1.2 4.6zm-7.5 11.6-.4.2-2.5 1.5-1.1.6 1.1 4.2-3.1-3.1-3.8 2.2 3.2-5.6h6.6zm-19.3 17.8-2.2-3.7-4.2 1.1 3.1-3.1-.4-.7-.4-.7-1.4-2.4 5.6 3.2v6.4l-.1-.1zm-15-16.1-.5-.3-2.5-1.4h6.5l3.2 5.5 1.8 1-3.8-6.6h5.8v4.6h4.7v5.7l-2.3-1.3-4.4-2.5.1.2-.1-.2-1.5-.9-1.4-.6-2.8-1.6-3.1 3.1 1.1-4.2-.8-.5zm-21.8-1.7-.4.2-2.5 1.5-1.1.6 1.1 4.2-3.1-3.1-3.8 2.2 3.2-5.6h6.6zm-19.3 17.8-2.2-3.7-4.2 1.1 3.1-3.1-.4-.7-.4-.7-1.4-2.4 5.6 3.2v6.4l-.1-.1zm-4.5-5.9-3.8 3.8-8.9 2.4-.7.2-.4.1h-.2l2.7-10.1 3.8-3.8 3.5 2 .6.3.7.4 1.4 2.3 1.3 2.4zm4.6-7.3v5.7l-2.3-1.3-4.4-2.5.1.2-.1-.2-1.5-.9-1.4-.8-2.8-1.6-3.1 3.1 1.1-4.2-.8-.5-.5-.3-2.5-1.4h6.5l3.2 5.5 1.8 1-3.8-6.6h5.8v4.6l4.7.2zm-15.2-12.1 3.1 3.1 1.2-.7.9-.5 1.7-.9-3.2 5.6h-6.4l3.1-1.8.9-.5-1.3-4.3zm4.5-23-3.3-.9-.5-.1-.9-.2 7.4-7.4 3.1-.8 2.1-.6 2 3.5.2.4.5.9v5.3l-4.5 1.2-.7.2-.7.2.7-.2-5.4-1.5zm-4.4-23.5-.5-.3-2.5-1.4h6.5l3.2 5.5 1.8 1-3.8-6.6h5.8v4.6h4.7v5.7l-2.3-1.3-4.4-2.5.1.2-.1-.2-1.5-.9-1.4-.8-2.8-1.6-3.1 3.1 1.1-4.2-.8-.3zm-.1-9.2 3.1 3.1 1.2-.7.9-.5 1.7-.9-3.2 5.6h-6.6.1l3.1-1.8.9-.5-1.2-4.3zm4.5-23-3.3-.9-.5-.1-.9-.2 7.4-7.4 3.1-.8 2.1-.6 2 3.5.2.4.5.9v5.3l-4.5 1.2-.7.2-.7.2.7-.2-5.4-1.5zm-4.4-23.5-.5-.3-2.5-1.4h6.5l3.2 5.5 1.8 1-3.8-6.6h5.8v4.6h4.7v5.7l-2.3-1.3-4.4-2.5.1.2-.1-.2-1.5-.9-1.4-.8-2.8-1.6L55 132l1.1-4.2-.8-.4zm-.1-9.2 3.1 3.1 1.2-.7.9-.5 1.7-.9-3.2 5.6h-6.5l3.1-1.8.9-.5-1.2-4.3zm4.5-23-3.3-.9-.5-.1-.9-.2 7.4-7.4 3.1-.8 2.1-.6 2 3.5.2.4.5.9v5.3l-4.5 1.2-.7.2-.7.2.7-.2-5.4-1.5zm-4.4-23.6-.5-.3-2.5-1.4h6.5l3.2 5.5 1.8 1-3.8-6.5h5.8v4.6h4.7v5.7L68.2 79l-4.4-2.5.1.1-.1-.1-1.5-.9-1.4-.8-2.8-1.6-3.1 3.1 1.1-4.2-.8-.5zm-.1-9.2 3.1 3.1 1.2-.7.9-.5 1.7-.9-3.2 5.6h-6.5l3.1-1.8.9-.5-1.2-4.3zm16.3 6.5v-3.6h3.7v3.6h-3.7zm18.1 0h-6.5l-3.2-5.5-.2-.1-1.5-.9L82 69h-5.8v-4.6h-4.7v-5.8l6.6 3.8-1.6-2.7.5.9 1 1.7.5.3 1 .6.2.1 1.6.9 1.8 1 .6.4 3.1-3.1-.6 2.3-.5 1.9 1 .6 2.9 1.6zM76.2 57l3.8-3.8 8.9-2.4 1.2-.3.2-.1-2.7 10.1-3.8 3.8-3.5-2-1.3-.7-2.8-4.6zm35 5.4 3.1 3.1 1.2-.7.9-.5 1.7-.9-3.2 5.6h-6.5l3.1-1.8.9-.5-1.2-4.3zm31.7 4.9 2.8 1.6h-6.5l-3.2-5.5-.2-.1-1.5-.9 3.8 6.6h-5.8v-4.6h-4.7v-5.8l6.6 3.8-1.6-2.7.5.9 1 1.7.5.3 1 .6.2.1 1.6.9 1.8 1 .6.4 3.1-3.1-.6 2.3-.5 1.9 1.1.6zm2.8 2.6-.4.2-2.5 1.5-1.1.6 1.1 4.2-3.1-3.1-3.8 2.2 3.2-5.6h6.6zm-2.8 53.1 2.8 1.6h-6.5l-3.2-5.5-.2-.1-1.5-.9 3.8 6.6h-5.8V120h-4.7v-5.8l6.6 3.8-1.6-2.7.5.9 1 1.7.5.3 1 .6.2.1 1.6.9 1.8 1 .6.4 3.1-3.1-.6 2.3-.5 1.9 1.1.7zm2.8 2.6-.4.2-2.5 1.5-1.1.6 1.1 4.2-3.1-3.1-3.8 2.2 3.2-5.6h6.6zm-2.8 53.1 2.8 1.6h-6.5l-3.2-5.5-.2-.1-1.5-.9 3.8 6.6h-5.8v-4.6h-4.7V170l6.6 3.8-1.6-2.7.5.9 1 1.7.5.3 1 .6.2.1 1.6.9 1.8 1 .6.4 3.1-3.1-.6 2.3-.5 1.9 1.1.6zm2.8 2.7-.4.2-2.5 1.5-1.1.6 1.1 4.2-3.1-3.1-3.8 2.2 3.2-5.6h6.6zm-2.8 53.1 2.8 1.6h-6.5l-3.2-5.5-.2-.1-1.5-.9 3.8 6.6h-5.8v-4.6h-4.7v-5.8l6.6 3.8-1.6-2.7.5.9 1 1.7.5.3 1 .6.2.1 1.6.9 1.8 1 .6.4 3.1-3.1-.6 2.3-.5 1.9 1.1.6zm3.6 2.1zm-20 4.1h-3.7v-3.6h3.7v3.6zm-29.3-4.6h-5.6l-3.3-1.9-1.3-.8 1.2-4.5.2-.6 7.5-7.4 1.3 4.7 1.5 5.4-.5 2-1 3.1zm-6.7.5zm-19-18.5.9 1.5 1.2 2.1.2.3 3.3-.9.9-.2-3.1 3.1.1.2 1.1 1.9.9 1.6-5.6-3.2.1-6.4zm-11.5 18 3.8-6.6 6.6-3.8v5.6h-4.7v4.8H60zm4-15.4 2 .5 1.1.3 1.1.3 1.1-2 1.1-1.8v6.4l-5.6 3.2-.1.2-.2.3.2-.3.1-.2.1-.1 2.2-3.7v-.1l-3.1-3zm6.3-21.5-2.2-3.7-4.2 1.1 3.1-3.1-.4-.7-.4-.7-1.4-2.4 5.6 3.2v6.4l-.1-.1zm.1.2zm0-18v3.6h-3.7v-3.6h3.7zm-6.6-7.6 6.6-3.8v5.6h-4.7v4.8H60l3.8-6.6zm.2-8.8 2 .5 1.1.3 1.1.3 1.1-2 1.1-1.8v6.4l-5.6 3.2-.1.2-.2.3.2-.3.1-.2.1-.1 2.2-3.7v-.1l-3.1-3zm6.3-21.5-2.2-3.7-4.2 1.1 3.1-3.1-.4-.7-.4-.7-1.4-2.4 5.6 3.2v6.4l-.1-.1zm.1.1zm0-18v3.6h-3.7v-3.6h3.7zm-6.6-7.6 6.6-3.8v5.6h-4.7v4.8H60l3.8-6.6zm.2-8.7 2 .5 1.1.3 1.1.3 1.1-2 1.1-1.8v6.4l-5.6 3.2-.1.2-.2.3.2-.3.1-.2.1-.1 2.2-3.7v-.1l-3.1-3zm6.3-21.6L68.2 84 64 85.1l3-3.1-.4-.7-.4-.7-1.4-2.4 5.6 3.2v6.4l-.1-.1zm.1.2zm0-18v3.6h-3.7v-3.6h3.7zm49.5-7.6 6.6-3.8v5.6h-4.7v4.8H116l3.9-6.6zm7.2 26.5zm4 24 1.1 1.9.9 1.6-5.6-3.2v-6.5l.9 1.5 1.2 2.1.2.3 3.3-.9.9-.2-3.1 3.1.2.3zm-4 31.7zm4 24 1.1 1.9.9 1.6-5.6-3.2v-6.5l.9 1.5 1.2 2.1.2.3 3.3-.9.9-.2-3.1 3.1.2.3zm-4 31.8zm4 23.9 1.1 1.9.9 1.6-5.6-3.2V218l.9 1.5 1.2 2.1.2.3 3.3-.9.9-.2-3 3.2.1.2zm-15 11.9 3.8-6.6 6.6-3.8v5.6h-4.7v4.8h-5.7zM71 88.8zm.5-.8v-6.5l5.6-3.2 1-1.7-6.6 3.8v-5.6h4.7V70H82l-3.8 6.6-.9 1.5-.5.8-1.9 3.3 3.1 3.1-4.2-1.1-2.3 3.8zm19.9 1.7v.2l.2.1 3.5.9 1-3.7 2.7 2.7 2.8-2.7 1 3.7 3.8-1-.1.2-.9 3.5 3.8 1-2.7 2.7 2.8 2.7-3.7 1 1 3.7-.2-.1-3.5-.9-1 3.7-2.7-2.7-2.8 2.7-1-3.7-3.8 1 .1-.2.9-3.5-3.8-1 2.7-2.7-2.8-2.7 3.7-1-1-3.7v-.2l-.3-.9-.4-1.6-2-7.4 6.6 6.6-.9 3.3-3.3-.9.3.9zm35.1-1.8zm0-2.1v2.1l-.1-.2-2.2-3.7-4.2 1.1 3.1-3.1-.4-.7-.4-.7-1.4-2.4 5.6 3.2v4.4zm-4.7-3.9-3.8 3.8-8.9 2.4-.7.2-.4.1h-.2l2.7-10.1 3.8-3.8 3.5 2 .6.3.7.4 1.4 2.3 1.3 2.4zm-9.9 13.3 7.5 2-9 2.4-2.5-2.4 2.4-2.4-.6-.2.5.1h.1l1.6.5zm-3.5 30.4h6.5l3.2 5.5 1.8 1-3.8-6.6h5.8v4.6h4.7v5.7l-2.3-1.3-4.4-2.5.1.2-.1-.2-1.5-.9-1.4-.8-2.8-1.6-3.1 3.1 1.1-4.2-.8-.5-.5-.3-2.5-1.2zm18.1 18zm-.1-.1-2.2-3.7-4.2 1.1 3.1-3.1-.4-.7-.4-.7-1.4-2.4 5.6 3.2v6.4l-.1-.1zm-14.5 7.4 7.5 2-9 2.4-2.5-2.4 2.4-2.4-.6-.2.5.1h.1l1.6.5zm14.6 48.5zm-.1-.2-2.2-3.7-4.2 1.1 3.1-3.1-.4-.7-.4-.7-1.4-2.4 5.6 3.2v6.4l-.1-.1zm-14.5 7.5 7.5 2-9 2.4-2.5-2.4 2.4-2.4-.6-.2.5.1h.1l1.6.5zm4.8 12.1-9-2.4-.9-3.3 3.3-.9 6.6 6.6zm-6.7-13.7-3.4-.9.9-3.3 1.6-.4 7.5-2-6.6 6.6zm-7.5-7.4 6.7-6.6.3-1.3-.3 1.3-.6 2.3-1.8 6.7-3.4.9-.9-3.3zm-4.1-11.2-2.4 8.8-.4 1.3-7.4-7.4-1.4-5.1 3.5-2 1.3-.7H97l1.2 4.5.7 2.6 2.4 9-2.5 2.4-2.4-2.4.4-1.6 2-7.4-.4-2zm-26.9-5.1h3.7v3.8h-3.7v-3.8zm0-1.1v-3.6h3.7v3.6h-3.7zm18.1 0h-6.5l-3.2-5.5-.2-.1-1.5-.9 3.8 6.6h-5.8v-4.6h-4.7V170l6.6 3.8-1.6-2.7.5.9 1 1.7.5.3 1 .6.2.1 1.6.9 1.8 1 .6.4 3.1-3.1-.6 2.3-.5 1.9 1 .6 2.9 1.6zm1.9-34.7-.1-.2-.2-.9-.4-1.6-2-7.4 6.6 6.6-.9 3.3-3.3-.9.3.9v.2l.2.1 3.5.9 1-3.7 2.7 2.7 2.8-2.7 1 3.7 3.8-1-.1.2-.9 3.5 3.8 1-2.7 2.7 2.8 2.7-3.7 1 1 3.7-.2-.1-3.5-.9-1 3.7-2.7-2.7-2.8 2.7-1-3.7-3.8 1 .1-.2.9-3.5-3.8-1 2.7-2.7-2.8-2.7 3.7-1-1-3.7zm-20-21V121h3.7v3.6h-3.7zm18.1 0h-6.5l-3.2-5.5-.2-.1-1.5-.9 3.8 6.6h-5.8V120h-4.7v-5.8l6.6 3.8-1.6-2.7.5.9 1 1.7.5.3 1 .6.2.1 1.6.9 1.8 1 .6.4 3.1-3.1-.6 2.3-.5 1.9 1 .6 2.9 1.7zM88 100.9l3.4.9-.9 3.3.9-.2-2.6.7-7.5 2 6.7-6.7zm-.3-1.1-1.6-.4-7.5-2 9-2.4 2.5 2.4-2.4 2.4zm9.4 14.3 1.5 5.4-.5 2-.9 3.2h-5.5l-3.3-1.9-1.4-.8 1.2-4.5.2-.6 7.5-7.4 1.2 4.6zm12.7 2.6 1.4 5.1-3.5 2-1.3.7H101l-1.2-4.5-.2-.7 2.4-8.8.4-1.3 7.4 7.5zm-7.1-8.5.9-3.3 3.3.9.4 1.6 2 7.4-6.6-6.6zm8.5 10 3.1 3.1 1.2-.7.9-.5 1.7-.9-3.2 5.6h-6.5l3.1-1.8.9-.5-1.2-4.3zm8.7-.2 6.6-3.8v5.6h-4.7v4.8H116l3.9-6.6zm3 6.6v-3.8h3.7v3.8h-3.7zM102.5 142l6.7-6.6.3-1.3-.3 1.3-.6 2.3-1.8 6.7-3.4.9-.9-3.3zm7.1-8.6-7.5 7.4-2.4-8.8-.4-1.3 1.4-5.1h5.6l4.7 2.7-1.2 4.5v.1l-.2.5zm-11.2-2.6-2.4 8.8-.4 1.3-7.4-7.4-1.4-5.1 3.5-2 1.3-.7H97l1.2 4.5.7 2.6 2.4 9-2.5 2.4-2.4-2.4.4-1.6 2-7.4-.4-2zm-7.9-5.7zm7.5.4 1.1-4 .9 3.4-1.1 4-.9-3.4zm9.5-.4zm-6.4-15-2 7.4-2.4-9 2.5-2.4 2.4 2.4-.5 1.6zm-5.6-1.8-6.7 6.6 2.4-9 1.1-.3 2.2-.6 1 3.3zm-6.7-1.8 1.2-.3.2-.1-2.7 10.1-3.8 3.8-3.5-2-1.3-.7-2.7-4.6 3.8-3.8 8.8-2.4zm-17.3 19.1h3.7v3.7h-3.7v-3.7zm11.6 0h6.5l-.4.2-2.5 1.5-1.1.6 1.1 4.2-3.1-3.1-3.8 2.2 3.3-5.6zm-4.3 7.4 4.7-2.7 3.8 3.8 2.4 8.8.3 1.1v.2l-10.2-2.7-3.8-3.8 2-3.5.8-1.2zm32.4 40.9 3.1 3.1 1.2-.7.9-.5 1.7-.9-3.2 5.6h-6.6.1l3.1-1.8.9-.5-1.2-4.3zm8.7-.1 6.6-3.8v5.6h-4.7v4.8H116l3.9-6.6zm3 6.6v-3.8h3.7v3.8h-3.7zm-32.4.5zm5.3-15.8 1.3 4.7 1.5 5.4-.5 2-.9 3.2h-5.6l-3.3-1.9-1.3-.8 1.2-4.5.2-.6 7.4-7.5zm-6.9 5.5 2.4-9 1.1-.3 2.2-.6.9 3.3-6.6 6.6zm7.8-6.3 2.5-2.4 2.4 2.4-.4 1.6-2 7.4-2.5-9zm2.4 12.9.9 3.4-1.1 4-.9-3.4 1.1-4zm8.4 3.7zm.2-1.3-1.3.7H101l-1.2-4.5-.2-.7 2.4-8.8.4-1.3 7.4 7.4 1.4 5.1-3.5 2.1zm-5-15.7.9-3.3 3.3.9.4 1.6 2 7.4-6.6-6.6zm-12.6-10.8-2.4 2.4-1.6-.4-7.5-2 9-2.4 2.5 2.4zm-2.1 3.5 3.4.9-.9 3.3.9-.2-2.6.7-7.5 2 6.7-6.7zm.8 5.7 1.2-.3.2-.1-2.8 10.1-3.8 3.8-3.5-2-1.3-.7-2.7-4.6 3.8-3.8 8.9-2.4zm-5.7 19.1h6.5-.1l-.4.2-2.5 1.5-1.1.6 1.1 4.2-3.1-3.1-3.8 2.2 3.4-5.6zm-4.3 7.3 4.7-2.7 3.8 3.8 2.4 8.8.3 1.2v.2l-10.2-2.7-3.8-3.8 2-3.5.8-1.3zm21-.8-.4-1.3 1.4-5.1h5.6l4.7 2.7-1.2 4.5v.1l-.1.5-7.5 7.4-2.5-8.8zm9.4 11.6-.7.2-.4.1h-.2l2.7-10.1 3.8-3.8 3.5 2 .6.3.7.4 1.4 2.3 1.3 2.3-3.8 3.8-8.9 2.5zm17.3-14.5h-3.7v-3.6h3.7v3.6zm-18.1-3.6h6.5l3.2 5.5 1.8 1-3.8-6.6h5.8v4.6h4.7v5.7l-2.3-1.3-4.4-2.5.1.2-.1-.2-1.5-.9-1.4-.8-2.8-1.6-3.1 3.1 1.1-4.2-.8-.5-.5-.3-2.5-1.2zm18.6-19.9zm-.5 7.3-5.6 3.2-.1.2-.2.3.2-.3.1-.2.1-.1 2.2-3.7v-.1l-3.1-3.1 2 .5 1.1.3 1.1.3 1.1-2 1.1-1.8v6.5zm-4.6-.6-2 3.5-.7 1.3-4.7 2.7-3.8-3.8-2.4-8.8-.3-1.1-.1-.2 10.2 2.7 3.8 3.7zm-14.2-7.6-.9-3.3 3.3-.9 6.7 6.6-9.1-2.4zm2.3-11.2-3.4-.9.9-3.3 1.6-.4 7.5-2-6.6 6.6zm-.8-5.7-.7.2-.5.1h-.2l2.7-10.1 3.8-3.8 3.5 2 .6.3.7.4 1.4 2.3 1.3 2.3-3.8 3.8-8.8 2.5zm17.8-37.9zm-.5 7.3-5.6 3.2-.1.2-.2.3.2-.3.1-.2.1-.1 2.2-3.7v-.1l-3.1-3.1 2 .5 1.1.3 1.1.3 1.1-2 1.1-1.8v6.5zm-4.6-.6-2 3.5-.7 1.3-4.7 2.7-3.8-3.8-2.4-8.8-.3-1.1-.1-.2 10.2 2.7 3.8 3.7zm-14.2-7.6-.9-3.3 3.3-.9 6.7 6.6-9.1-2.4zm2.3-11.3-3.4-.9.9-3.3 1.6-.4 7.5-2-6.6 6.6zm-.9-13.9-.6 2.3-1.8 6.7-3.4.9-.9-3.3 6.7-6.6.3-1.3-.3 1.3zm-19.4 7.5.3 1.2v.2l-10.2-2.7-3.7-3.9 2-3.5.7-1.3 4.7-2.7 3.8 3.8 2.4 8.9zM71.5 90l1.6-2.8 1.1-1.8 4.5 1.2.6.2 2 .5 9 2.4.3 1 .6 2.4-3.2.7-6.7-6.6-2-.5 7.5 7.4-10 2.7-.2.1-1.1-.3-4.1-1.1V90zm4.5 8.1.7-.2 8.9 2.4 1.3.4-7.4 7.4-5.2 1.4-2-3.5-.7-1.3v-5.3l4.4-1.3zm-4.5 8.5.9 1.5 1.2 2.1.2.3 3.3-.9.9-.2-3.1 3.1.1.2 1.1 1.9.9 1.6-5.6-3.2.1-6.4zm-.5 38zm.5-.9v-6.5l5.6-3.2 1-1.7-6.6 3.8v-5.6h4.7v-4.8H82l-3.8 6.6-.9 1.5-.5.8-1.9 3.3L78 141l-4.2-1.1-2.3 3.8zm0 2 1.6-2.8 1.1-1.8 4.5 1.2.6.2 2 .5 9 2.4.3 1 .6 2.4-3.3.9-6.7-6.6-2-.5 7.5 7.4-10 2.7-.2.1-1.1-.3-4.1-1.1v-5.7zm4.5 8.1.7-.2 8.9 2.4 1.3.4-7.4 7.4-5.2 1.4-2-3.5-.7-1.3v-5.3l4.4-1.3zm-4.5 8.5.9 1.5 1.2 2.1.2.3 3.3-.9.9-.2-3.1 3.1.1.2 1.1 1.9.9 1.6-5.6-3.2.1-6.4zm-.5 38zm.5-.9v-6.5l5.6-3.2 1-1.7-6.6 3.8v-5.6h4.7v-4.8H82l-3.8 6.6-.9 1.5-.5.8-1.9 3.3 3.1 3.1-4.2-1.1-2.3 3.8zm0 2 1.6-2.8 1.1-1.8 4.5 1.2.6.2 2 .5 9 2.4.3 1 .6 2.4-3.3.9-6.7-6.6-2-.5 7.5 7.4-10 2.7-.2.1-1.1-.3-4.1-1.1v-5.7zm18.6 7.4-2.4 2.4-1.6-.4-7.5-2 9-2.4 2.5 2.4zm-14.1.7.7-.2 8.9 2.4 1.3.4-7.4 7.4-5.2 1.4-2-3.5-.7-1.3v-5.3l4.4-1.3zm12 2.9 3.4.9-.9 3.3.9-.2-2.6.7-7.5 2 6.7-6.7zm4.4 4.6 2.2-.6.9 3.3-6.7 6.6 2.4-9 1.2-.3zm3-1.8-3.8 1 .1-.2.9-3.5-3.8-1 2.7-2.7-2.8-2.7 3.7-1-1-3.7-.1-.2-.2-.9-.4-1.6-2-7.4 6.6 6.6-.9 3.3-3.3-.9.3.9v.2l.2.1 3.5.9 1-3.7 2.7 2.7 2.8-2.7 1 3.7 3.8-1-.1.2-.9 3.5 3.8 1-2.7 2.7 2.8 2.7-3.7 1 1 3.7-.2-.1-3.5-.9-1 3.7-2.7-2.7-2.8 2.7-1-3.7zm8.2 1.1 3.3.9.4 1.6 2 7.4-6.6-6.6.9-3.3zm4.7 2.5-.3-1.1-.1-.2 10.2 2.7 3.8 3.8-2 3.5-.7 1.3-4.7 2.7-3.8-3.8-2.4-8.9zm18.7-1.6zm-.5 7.3-5.6 3.2-.1.2-.2.3.2-.3.1-.2.1-.1 2.2-3.7v-.1l-3.1-3.1 2 .5 1.1.3 1.1.3 1.1-2 1.1-1.8v6.5zm-3.6 7.8h3.7v3.8h-3.7v-3.8zm8.3 3.8h-3.6v-3.6h3.7v3.6zm-4.7-21.8v1.8l-2.7 4.6-4.5-1.2-.7-.2-7.5-7.4 10.2-2.7 5.2 1.4v3.7zm-5.1-6.2-.7.2.7-.2-5.6-1.5-3.3-.9-.5-.1-.9-.2 7.4-7.4 3.1-.8 2.1-.6 2 3.5.2.4.5.9v5.3l-4.5 1.2-.5.2zm6.2-26.7h3.7v3.8h-3.6v-3.8zm3.6-1.1h-3.7v-3.6h3.7v3.6zm-4.7-21.7v1.8l-2.7 4.6-4.5-1.2-.7-.2-7.5-7.4 10.2-2.7 5.2 1.4v3.7zm-5.1-6.2-.7.2.7-.2-5.6-1.5-3.3-.9-.5-.1-.9-.2 7.4-7.4 3.1-.8 2.1-.6 2 3.5.2.4.5.9v5.3l-4.5 1.2-.5.2zm5.1-23.1h-3.7v-3.6h3.7v3.6zm1.1-3.7h3.7v3.7h-3.6v-3.7zm3.6-1h-3.7V121h3.7v3.6zm-4.7-21.7v1.8l-2.7 4.6-4.5-1.2-.7-.2-7.5-7.4 10.2-2.7 5.2 1.4v3.7zm-5.1-6.2-.7.2.7-.2-5.6-1.5-3.3-.9-.5-.1-.9-.2 7.4-7.4 3.1-.8 2.1-.6 2 3.5.2.4.5.9v5.3l-4.5 1.2-.5.2zm5.1-23.1h-3.7V70h3.7v3.6zm1.1-3.7h3.7v3.7h-3.6v-3.7zm3.6-1h-3.7v-3.6h3.7v3.6zM127 50zm-4.1 15.1h3.7v3.8h-3.7v-3.8zm-14.5 4.8h6.5l3.2 5.5 1.8 1-3.8-6.6h5.8v4.6h4.7v5.7l-2.3-1.3-4.4-2.5.1.1-.1-.1-1.5-.9-1.4-.8-2.8-1.6-3.1 3.1 1.1-4.2-.8-.5-.5-.3-2.5-1.2zm-7.6 0h5.6l4.7 2.7-1.2 4.5v.1l-.1.5-7.5 7.4-2.4-8.8-.4-1.3 1.3-5.1zm.5 16.1-2.5 2.4-2.3-2.4.4-1.6 2-7.4-.5-1.9-2.4 8.8-.4 1.3-7.4-7.4-1.4-5.1 3.5-2 1.3-.7H97l1.2 4.5.7 2.6 2.4 8.9zM90.5 69.4zm-.9.5-.4.2-2.5 1.5-1.1.6 1.1 4.2-3.1-3.1-3.8 2.2 3.2-5.6h6.6zm-14.5 0v3.7h-3.7v-3.8l3.7.1zm-4.5 26.4 4 1.1-3.4.9-4-1.1 3.4-.9zm-3.8 24.6h3.7v3.8h-3.7v-3.8zm3.8 31.1 4 1.1-3.4.9-4-1.1 3.4-.9zm-3.8 24.6h3.7v3.8h-3.7v-3.8zm3.8 31.1 4 1.1-3.4.9-4-1.1 3.4-.9zm-3.8 28.4v-3.8h3.7v3.8h-3.7zm8.3 0h-3.7v-3.6h3.7v3.6zm4.8-15.7 8.9-2.4 1.2-.3.2-.1-2.7 10.1-3.8 3.8-3.5-2-1.3-.7-2.7-4.6 3.7-3.8zm16.8-.4 2.5-2.4 2.4 2.4-.4 1.6-2 7.4-2.5-9zm5.3 2.1.4-1.3 7.4 7.4 1.4 5.1-3.5 2-1.3.7H101l-1.2-4.5-.2-.7 2.4-8.7zm5.5 14.5zm3.7-.5h-2.7l3.1-1.8.9-.5-1.1-4.2 3.1 3.1 1.2-.7.9-.5 1.7-.9-3.2 5.6h-3.9zm16.4 1h3.7v3.7h-3.6v-3.7zm12.1-5.6-3.5-2-1.3-.7-2.7-4.6 3.8-3.8 8.9-2.4 1.2-.3.2-.1-2.7 10.1-3.9 3.8zm-4.2-12-5.2 1.4-2-3.5-.7-1.3v-5.3l4.5-1.2.7-.2 8.9 2.4 1.3.4-7.5 7.3zm-8.1-9.8-4-1.1 3.4-.9 4 1.1-3.4.9zm.1-10.3v-6.5l5.6-3.2 1-1.7-6.6 3.8v-5.6h4.7v-4.8h5.8l-3.8 6.6-.9 1.5-.5.8-1.9 3.3 3.1 3.1-4.2-1.1-2.3 3.8zm19.1-18.5zm-6.9-5.1-3.5-2-1.3-.7-2.7-4.6 3.8-3.8 8.9-2.4 1.2-.3.2-.1-2.7 10.1-3.9 3.8zm-4.2-12.1-5.2 1.4-2-3.5-.7-1.3V155l4.5-1.2.7-.2 8.9 2.4 1.3.4-7.5 7.3zm-8.1-9.7-4-1.1 3.4-.9 4 1.1-3.4.9zm.1-10.3v-6.5l5.6-3.2 1-1.7-6.6 3.8v-5.6h4.7v-4.8h5.8l-3.8 6.6-.9 1.5-.5.8-1.9 3.3 3.1 3.1-4.2-1.1-2.3 3.8zm19.1-18.6zm-6.9-5-3.5-2-1.3-.7-2.7-4.6 3.8-3.8 8.9-2.4 1.2-.3.2-.1-2.7 10.1-3.9 3.8zm-4.2-12.1-5.2 1.4-2-3.5-.7-1.3v-5.3l4.5-1.2.7-.2 8.9 2.4 1.3.4-7.5 7.3zm-8.1-9.7-4-1.1 3.4-.9 4 1.1-3.4.9zm.1-10.3v-6.5l5.6-3.2 1-1.7-6.6 3.8v-5.6h4.7V70h5.8l-3.8 6.6-.9 1.5-.5.8-1.9 3.3 3.1 3.1-4.2-1.1-2.3 3.8zm19.1-18.6zm-6.9-5.1-3.5-2-1.3-.7-2.7-4.6 3.8-3.8 8.9-2.4 1.2-.3.2-.1-2.7 10.1-3.9 3.8zm-8.7-7.5.1.2 1.1 1.9.9 1.6-5.6-3.2v-6.5l.9 1.5 1.2 2.1.2.3 3.3-.9.9-.2-3 3.2zm-4.5.6-5.6 3.2-.1.2-.2.3.2-.3.1-.2.1-.1 2.2-3.7v-.1l-3.1-3.1 2 .5 1.1.3 1.1.3 1.1-2 1.1-1.8v6.5zm-4.6-.6-2 3.5-.7 1.3-4.7 2.7-3.8-3.8-2.4-8.8-.3-1.1-.1-.2 10.2 2.7 3.8 3.7zm-14.4 12.6zm-8.6 3.7-.9-3.4 1.1-4 .9 3.4-1.1 4zm-32.1-4.2v-3.8h3.7v3.8h-3.7zm3.6-4.8h-4.7v4.8H60l3.8-6.6 6.6-3.8v5.6zm-7.3-2.5-4.7 2.7-3.8-3.8-2.4-8.8-.3-1.1-.1-.2L62.1 53l3.8 3.8-2 3.5-.8 1.3zm-11.7 7.8zm6.9 5.1 3.5 2 .6.3.7.4 1.4 2.3 1.3 2.3-3.8 3.8-8.9 2.4-.7.2-.4.1h-.2l2.7-10.1 3.8-3.7zm7 23.2 5.2 1.4v5.5l-2.7 4.6-4.5-1.2-.7-.2-7.5-7.4 10.2-2.7zm.6 14.8-2 3.5-.7 1.3-4.7 2.7-3.8-3.8-2.4-8.8-.3-1.1-.1-.2 10.2 2.7 3.8 3.7zm-14.5 12.6zm6.9 5.1 3.5 2 .6.3.7.4 1.4 2.3 1.3 2.3-3.8 3.8-8.9 2.4-.7.2-.4.1h-.2l2.7-10.1 3.8-3.7zm7 23.2 5.2 1.4v5.5l-2.7 4.6-4.5-1.2-.7-.2-7.5-7.4 10.2-2.7zm.6 14.8-2 3.5-.7 1.3-4.7 2.7-3.8-3.8-2.4-8.8-.3-1.1-.1-.2 10.2 2.7 3.8 3.7zm-14.5 12.7zm6.9 5 3.5 2 .6.3.7.4 1.4 2.3 1.3 2.3L62 197l-8.9 2.4-.7.2-.4.1h-.2l2.7-10.1 3.8-3.7zm7 23.3 5.2 1.4v5.5l-2.7 4.6-4.5-1.2-.7-.2-7.5-7.4 10.2-2.7zm.6 14.8-2 3.5-.7 1.3-4.7 2.7-3.8-3.8-2.4-8.8-.3-1.1-.1-.2 10.2 2.7 3.8 3.7zm-14.5 12.6zm19 4.1h-3.7v-3.6h3.7v3.6zm1.1-3.6h3.7v3.7h-3.7v-3.7zm0-5.7v-5.8l6.6 3.8-1.6-2.7.5.9 1 1.7.5.3 1 .6.2.1 1.6.9 1.8 1 .6.4 3.1-3.1-.6 2.3-.5 1.9 1 .6 2.8 1.6H83l-3.2-5.5-.2-.1-1.5-.9 3.8 6.6h-5.8v-4.6h-4.6zm27.6 1.5.9 3.4-1.1 4-.9-3.4 1.1-4zm15.3 8.8 3.5 2 .6.3.7.4 1.4 2.3 1.3 2.3-3.8 3.8-8.9 2.4-.7.2-.4.1h-.2l2.7-10.1 3.8-3.7zm12.1 13.4zm.6.9zm.4-.9v-6.5l5.6-3.2 1-1.7-6.6 3.8v-5.6h4.7v-4.8h5.8l-3.8 6.6-.9 1.5-.5.8-1.9 3.3 3.1 3.1-4.2-1.1-2.3 3.8zm25.2-35.1 2.5-2.4 2.4 2.4-.4 1.6-2 7.4-2.5-9zm3.4 16.2-1.1 4-.9-3.4 1.1-4 .9 3.4zm-4.5-16.5-6.7 6.6 2.4-9 1.1-.3 2.2-.6 1 3.3zm-7.8-8.5-1.6-.4-7.5-2 9-2.4 2.5 2.4-2.4 2.4zm.2-5.9-6.6-6.6-2-.5 7.5 7.4-10 2.7-.2.1-1.1-.3-4.1-1.1v-5.5l1.6-2.8 1.1-1.8 4.5 1.2.6.2 2 .5 9 2.4.3 1 .6 2.4-3.2.7zm-8.1-8.1-3.8-3.8 2-3.5.7-1.3 4.7-2.7 3.8 3.8 2.4 8.8.3 1.2v.2l-10.1-2.7zm19.1-12.6-.9-3.4 1.1-4 .9 3.4-1.1 4zm-2.3-20.3 2.5-2.4 2.4 2.4-.4 1.6-2 7.4-2.5-9zm-1.1-.3-6.7 6.6 2.4-9 1.1-.3 2.2-.6 1 3.3zm-7.8-8.5-1.6-.4-7.5-2 9-2.4 2.5 2.4-2.4 2.4zm.2-6-6.6-6.6-2-.5 7.5 7.4-10 2.7-.2.1-1.1-.3-4.1-1.1v-5.5l1.6-2.8 1.1-1.8 4.5 1.2.6.2 2 .5 9 2.4.3 1 .6 2.4-3.2.7zm-8.1-8-3.8-3.8 2-3.5.7-1.3 4.7-2.7 3.8 3.8 2.4 8.8.3 1.2v.2l-10.1-2.7zm19.1-12.7-.9-3.4 1.1-4 .9 3.4-1.1 4zm-2.3-20.2 2.5-2.4 2.4 2.4-.4 1.6-2 7.4-2.5-9zm-1.1-.3-6.7 6.6 2.4-9 1.1-.3 2.2-.6 1 3.3zm-7.8-8.5-1.6-.4-7.5-2 9-2.4 2.5 2.4-2.4 2.4zm.2-6-6.6-6.6-2-.5 7.5 7.4-10 2.7-.2.1-1.1-.3-4.1-1.1V90l1.6-2.8 1.1-1.8 4.5 1.2.6.2 2 .5 9 2.4.3 1 .6 2.4-3.2.7zm-8.1-8-3.8-3.8 2-3.5.7-1.3 4.7-2.7 3.8 3.8 2.4 8.8.3 1.2v.2l-10.1-2.7zM155 73.1l-.9-3.4 1.1-4 .9 3.4-1.1 4zm-2.3-20.3 2.5-2.4 2.4 2.4-.4 1.6-2 7.4-2.5-9zm-1.1-.3-6.7 6.6 2.4-9 1.1-.3 2.2-.6 1 3.3zm-7.8-8.4-1.6-.4-7.5-2 9-2.4 2.5 2.4-2.4 2.4zm-2.2.4 1.3.4-7.4 7.4-5.2 1.4-2-3.5-.7-1.3v-5.3l4.5-1.2.7-.2 8.8 2.3zm-15.1-1.1V49l-2.7 4.6-4.5-1.2-.7-.2-7.5-7.4 10.2-2.7 5.2 1.3zm-9.8 8.2-9-2.4-.9-3.3 3.3-.9 6.6 6.6zm-9.9-1.6.4 1.6 2 7.4-6.6-6.6.9-3.3 3.3.9zm3 11 1.4 5.1-3.5 2-1.3.7H101l-1.2-4.5-.2-.7L102 55l.4-1.3 7.4 7.3zm-8.7-6.6-2 7.4-2.4-9 2.5-2.4 2.4 2.4-.5 1.6zm-5.6-1.9-6.7 6.6 2.4-9 1.1-.3 2.2-.6 1 3.3zm-7.8-8.4-1.6-.4-7.5-2 9-2.4 2.5 2.4-2.4 2.4zm-2.2.4 1.3.4-7.4 7.4-5.2 1.4-2-3.5-.7-1.3v-5.3l4.5-1.2.7-.2 8.8 2.3zm-14 6.4.9 1.5 1.2 2.1.2.3 3.3-.9.9-.2-3.1 3.1.1.2 1.1 1.9.9 1.6-5.6-3.2.1-6.4zm-1 0v6.4l-5.6 3.2-.1.2-.2.3.2-.3.1-.2.1-.1 2.2-3.7v-.1l-3.2-3 2 .5 1.1.3 1.1.3 1.1-2 1.2-1.8zm0-2-2.7 4.6-4.5-1.2-.7-.2-7.5-7.4L65.3 42l5.2 1.4v5.5zm-9.9 2.7-9-2.4-.9-3.3L54 45l6.6 6.6zM50.8 50l.4 1.6 2 7.4-6.6-6.6.9-3.3 3.3.9zm2.9 11 1.4 5.1-3.5 2-1.3.7h-5.4l-1.2-4.5-.2-.7 2.4-8.8.4-1.3 7.4 7.5zM45 54.4l-2 7.4-2.4-9 2.5-2.4 2.4 2.4-.5 1.6zm-1.1 14.7-1.1 4-.9-3.4 1.1-4 .9 3.4zm-.2 7.3-.4-1.3 1.4-5.1h5.6l4.7 2.7-1.2 4.5v.1l-.1.5-7.5 7.4-2.5-8.8zm7.7 13.1 1.6-.4 7.5-2-6.6 6.6-3.4-.9.9-3.3zm9.2 17.8-9-2.4-.9-3.3 3.3-.9 6.6 6.6zm-9.8-1.5.4 1.6 2 7.4-6.6-6.6.9-3.3 3.3.9zm2.9 10.9 1.4 5.1-3.5 2-1.3.7h-5.4l-1.2-4.5-.2-.7 2.4-8.8.4-1.3 7.4 7.5zm-8.7-6.6-2 7.4-2.4-9 2.5-2.4 2.4 2.4-.5 1.6zm-1.1 14.7-1.1 4-.9-3.4 1.1-4 .9 3.4zm-.2 7.3-.4-1.3 1.4-5.1h5.6l4.7 2.7-1.2 4.5v.1l-.1.5-7.5 7.4-2.5-8.8zm7.7 13.1 1.6-.4 7.5-2-6.6 6.6-3.4-.9.9-3.3zm9.2 17.8-9-2.4-.9-3.3 3.3-.9 6.6 6.6zm-9.8-1.5.4 1.6 2 7.4-6.6-6.6.9-3.3 3.3.9zm2.9 10.9 1.4 5.1-3.5 2-1.3.7h-5.4l-1.2-4.5-.2-.7 2.4-8.8.4-1.3 7.4 7.5zm-8.7-6.6-2 7.4-2.4-9 2.5-2.4 2.4 2.4-.5 1.6zm-1.1 14.7-1.1 4-.9-3.4 1.1-4 .9 3.4zm-.2 7.4-.4-1.3 1.4-5.1h5.6L55 184l-1.2 4.5v.1l-.1.5-7.5 7.4-2.5-8.6zm7.7 13 1.6-.4 7.5-2-6.6 6.6-3.4-.9.9-3.3zm9.2 17.9-9-2.4-.9-3.3 3.3-.9 6.6 6.6zm-9.8-1.6.4 1.6 2 7.4-6.6-6.6.9-3.3 3.3.9zm2.9 11 1.4 5.1-3.5 2-1.3.7h-5.4l-1.2-4.5-.2-.7 2.4-8.8.4-1.3 7.4 7.5zm-8.7-6.6-2 7.4-2.4-9 2.5-2.4 2.4 2.4-.5 1.6zm-1.1 14.6-1.1 4-.9-3.4 1.1-4 .9 3.4zm-.2 7.4-.4-1.3 1.4-5.1h5.6l4.7 2.7-1.2 4.5v.1l-.1.5-7.5 7.4-2.5-8.8zm7.7 13 1.6-.4 7.5-2-6.6 6.6-3.4-.9.9-3.3zm19-1.5zm.6.9zm.5-.8v-6.5l5.6-3.2 1-1.7-6.6 3.8V242h4.7v-4.8H82l-3.8 6.6-.9 1.5-.5.8-1.9 3.3 3.1 3.1-4.2-1.1-2.3 3.8zm8.4-2.2-3.8-3.8 2-3.5.7-1.3 4.7-2.7 3.8 3.8 2.4 8.8.3 1.2v.2L79.9 253zm19.9-9.4-.4-1.3 1.4-5.1h5.6l4.7 2.7-1.2 4.5v.1l-.1.5-7.5 7.4-2.5-8.8zm7.7 13 1.6-.4 7.5-2-6.6 6.6-3.4-.9.9-3.3zm19.2 6.8 4 1.1-3.4.9-4-1.1 3.4-.9zm.8 3 4.5-1.2.7-.2 8.9 2.4 1.3.4-7.4 7.4-5.2 1.4-2-3.5-.7-1.3v-5.4zm16.3.5-1.6-.4-7.5-2 9-2.4 2.5 2.4-2.4 2.4zm.2-5.9-6.6-6.6-2-.5 7.5 7.4-10 2.7-.2.1-1.1-.3-4.1-1.1v-5.5l1.6-2.8 1.1-1.8 4.5 1.2.6.2 2 .5 9 2.4.3 1 .6 2.4-3.2.7zm-8.1-8-3.8-3.8 2-3.5.7-1.3 4.7-2.7 3.8 3.8 2.4 8.8.3 1.2v.2l-10.1-2.7zm27.7-16.4zm.1-1.3-1.3.7H157l-1.2-4.5-.2-.7 2.4-8.8.4-1.3 7.4 7.4 1.4 5.1-3.5 2.1zm-5-15.6.9-3.3 3.3.9.4 1.6 2 7.4-6.6-6.6zm.7-18.7-.9-3.3 6.7-6.6.3-1.3-.3 1.3-.6 2.3-1.8 6.7-3.4.9zm6.3-11.8-7.5 7.4-2.4-8.8-.4-1.3 1.4-5.1h5.6l4.7 2.7-1.2 4.5v.1l-.2.5zm-2.1-8.3zm.1-1.3-1.3.7H157l-1.2-4.5-.2-.7 2.4-8.8.4-1.3 7.4 7.4 1.4 5.1-3.5 2.1zm-5-15.7.9-3.3 3.3.9.4 1.6 2 7.4-6.6-6.6zm.7-18.6-.9-3.3 6.7-6.6.3-1.3-.3 1.3-.6 2.3-1.8 6.7-3.4.9zm6.3-11.9-7.5 7.4-2.4-8.8-.4-1.3 1.4-5.1h5.6l4.7 2.7-1.2 4.5v.1l-.2.5zm-2.1-8.3zm.1-1.2-1.3.7H157l-1.2-4.5-.2-.7 2.4-8.8.4-1.3 7.4 7.4 1.4 5.1-3.5 2.1zm-5-15.7.9-3.3 3.3.9.4 1.6 2 7.4-6.6-6.6zm.7-18.6-.9-3.3 6.7-6.6.3-1.3-.3 1.3-.6 2.3-1.8 6.7-3.4.9zm6.3-11.9-7.5 7.4-2.4-8.8-.4-1.3 1.4-5.1h5.6l4.7 2.7-1.2 4.5v.1l-.2.5zm-2.1-8.3zm.1-1.2-1.3.7H157l-1.2-4.5-.2-.7 2.4-8.8.4-1.3 7.4 7.4 1.4 5.1-3.5 2.1zm-5-15.7.9-3.3 3.3.9.4 1.6 2 7.4-6.6-6.6zm-12-17.6.6 2.4-3.3.9-6.7-6.6-2-.5 7.5 7.4-10 2.7-.2.1-1.1-.3-4.1-1.1v-5.5l1.6-2.8 1.1-1.8 4.5 1.2.6.2 2 .5 9 2.4.5.8zm-19.6-1.8zM110 37.9l-3.4-.9.9-3.3 1.6-.4 7.5-2-6.6 6.6zm-3.3-4.9-3.4.9-.9-3.3 6.7-6.6.3-1.3-.3 1.3-.6 2.3-1.8 6.7zm-16.1 1.9.6 2.4-3.2.8-6.7-6.6-2-.5 7.5 7.4-10 2.7-.2.1-1.1-.3-4.1-1.1v-5.5l1.6-2.8 1.1-1.8 4.5 1.2.6.2 2 .5 9 2.4.4.9zm-36.7 3-3.3-.9.9-3.3 1.6-.4 7.5-2-6.7 6.6zM50.6 33l-3.4.9-.9-3.3L53 24l.3-1.3L53 24l-.6 2.3-1.8 6.7zM34 41.7l-2.4 2.4-1.6-.5-7.5-2 9-2.4 2.5 2.5zm-2.1 3.5 3.4.9-.9 3.3.9-.2-2.6.7-7.5 2 6.7-6.7zm4.4 4.7 2.2-.6.9 3.3-6.7 6.6 2.4-9 1.2-.3zm3.5 3.8 1.3 4.7 1.5 5.4-.5 2-.9 3.2h-5.6l-3.4-2-1.3-.8 1.2-4.5.2-.6 7.5-7.4zm-5.4 15.7zm-11.6 7.9 4.7-2.7 3.8 3.8 2.4 8.8.3 1.2v.2l-10.2-2.7L20 82l2-3.5.8-1.2zM34 97.4l-2.4 2.4-1.6-.4-7.5-2 9-2.4 2.5 2.4zm-2.1 3.5 3.4.9-.9 3.3.9-.2-2.6.7-7.5 2 6.7-6.7zm4.4 4.7 2.2-.6.9 3.3-6.7 6.6 2.4-9 1.2-.3zm3.5 3.8 1.3 4.7 1.5 5.4-.5 2-.9 3.2h-5.6l-3.3-1.9-1.3-.8 1.2-4.5.2-.6 7.4-7.5zm-5.4 15.7zM22.8 133l4.7-2.7 3.8 3.8 2.4 8.8.3 1.2v.2l-10.2-2.7-3.8-3.8 2-3.5.8-1.3zM34 153.1l-2.4 2.4-1.6-.4-7.5-2 9-2.4 2.5 2.4zm-2.1 3.5 3.4.9-.9 3.3.9-.2-2.6.7-7.5 2 6.7-6.7zm4.4 4.7 2.2-.6.9 3.3-6.7 6.6 2.4-9 1.2-.3zm3.5 3.8 1.3 4.7 1.5 5.4-.5 2-.9 3.2h-5.6l-3.3-1.9-1.3-.8 1.2-4.5.2-.6 7.4-7.5zm-5.4 15.8zm-11.6 7.8 4.7-2.7 3.8 3.8 2.4 8.8.3 1.2v.2l-10.2-2.7-3.8-3.8 2-3.5.8-1.3zM34 208.8l-2.4 2.4-1.6-.4-7.5-2 9-2.4 2.5 2.4zm-2.1 3.6 3.4.9-.9 3.3.9-.2-2.6.7-7.5 2 6.7-6.7zm4.4 4.6 2.2-.6.9 3.3-6.7 6.6 2.4-9 1.2-.3zm3.5 3.8 1.3 4.7 1.5 5.4-.5 2-.9 3.2h-5.7l-3.3-1.9-1.3-.8 1.2-4.5.2-.6 7.5-7.5zm-5.4 15.8zm-11.6 7.8 4.7-2.7 3.8 3.8 2.4 8.8.3 1.2v.2L23.8 253l-3.8-3.8 2-3.5.8-1.3zM47.5 272l3.3.9.4 1.6 2 7.4-6.6-6.6.9-3.3zm3.2-3.2 3.3-.9 6.7 6.6-9-2.4-1-3.3zm4.4-1.2 10.2-2.7 5.2 1.4v5.5l-2.7 4.6-4.5-1.2-.7-.2-7.5-7.4zm12.1-3.3 3.4-.9 4 1.1-3.4.9-4-1.1zm12.7 11.8 8.9-2.4 1.2-.3.2-.1-2.7 10.1-3.8 3.8-3.5-2-1.3-.7-2.7-4.6 3.7-3.8zm11.4-3.1 1.1-.3 2.2-.6.9 3.3-6.7 6.6 2.5-9zm4.1-2.1-3.8 1 .1-.2.9-3.5-3.8-1 2.7-2.7-2.8-2.7 3.7-1-1-3.7-.1-.2-.2-.9-.4-1.6-2-7.4 6.6 6.6-.9 3.3-3.3-.9.3.9v.2l.2.1 3.5.9 1-3.7 2.7 2.7 2.8-2.7 1 3.7 3.8-1-.1.2-.9 3.5 3.8 1-2.7 2.7 2.8 2.7-3.7 1 1 3.7-.2-.1-3.5-.9-1 3.7-2.7-2.7-2.8 2.7-1-3.7zm8.2 1.1 3.3.9.4 1.6 2 7.4-6.6-6.6.9-3.3zm3.2-3.2 3.3-.9 6.7 6.6-9-2.4-1-3.3zm4.4-1.2 10.2-2.7 5.2 1.4v5.6l-2.7 4.6-4.5-1.2-.7-.2-7.5-7.5zm15.8 5.3zm.5.9.9 1.5 1.2 2.1.2.3 3.3-.9.9-.2-3.1 3.1.1.2 1.1 1.9.9 1.6-5.6-3.2v-6.4zm8.5 2.3 8.9-2.4 1.2-.3.2-.1-2.7 10.1-3.8 3.8-3.5-2-1.3-.7-2.7-4.6 3.7-3.8zm11.4-3.1 1.1-.3 2.2-.6.9 3.3-6.6 6.6 2.4-9zm4-2.1-3.8 1 .1-.2.9-3.5-3.8-1 2.7-2.7-2.8-2.7 3.7-1-1-3.7-.1-.2-.2-.9-.4-1.6-2-7.4 6.6 6.6-.9 3.3-3.3-.9.3.9v.2l.2.1 3.5.9 1-3.7 2.7 2.7 2.8-2.7 1 3.7 3.8-1-.1.2-.9 3.5 3.8 1-2.7 2.7 2.8 2.7-3.7 1 1 3.7-.2-.1-3.5-.9-1 3.7-2.7-2.7-2.8 2.7-1-3.7zm8.2 1.1 3.3.9.4 1.6 2 7.4-6.6-6.6.9-3.3zm3.2-3.2 3.3-.9 6.7 6.6-9-2.4-1-3.3zm3.3-8-3.4-.9.9-3.3 1.6-.4 7.5-2-6.6 6.6zm-.8-5.6-.7.2-.4.1h-.2l2.7-10.1 3.8-3.8 3.5 2 .6.3.7.4 1.4 2.3 1.3 2.3-3.8 3.8-8.9 2.5zm17.3-.1.1.2-.1-.2zm0-13.4v5.7l-2.3-1.3-4.4-2.5.1.2-.1-.2-1.5-.9-1.4-.7-2.8-1.6-3.1 3.1 1.1-4.2-.8-.5-.5-.3-2.5-1.4h6.5l3.2 5.5 1.8 1-3.8-6.6h5.8v4.6l4.7.1zm0-1H179v-3.6h3.7v3.6zm-4.7-4.6h-5.8l3.8-6.6 6.6-3.8v5.6h-4.7v4.8zm-2.7-7.4-4.7 2.7-3.8-3.8-2.4-8.8-.3-1.1-.1-.2 10.2 2.7 3.8 3.8-2 3.5-.7 1.2zm-11.5-12.3-.9-3.3 3.3-.9 6.7 6.6-9.1-2.4zm2.4-11.3-3.4-.9.9-3.3 1.6-.4 7.5-2-6.6 6.6zm-.8-5.6-.7.2-.4.1h-.2l2.7-10.1 3.8-3.8 3.5 2 .6.3.7.4 1.4 2.3 1.3 2.3-3.8 3.8-8.9 2.5zm17.3-.1.1.2-.1-.2zm-4.7-19.1h-5.8l3.8-6.6 6.6-3.8v5.6h-4.7v4.8zm-2.7-7.3-4.7 2.7-3.8-3.8-2.4-8.8-.3-1.1-.1-.2 10.2 2.7 3.8 3.8-2 3.5-.7 1.2zm-11.5-12.4-.9-3.3 3.3-.9 6.7 6.6-9.1-2.4zm2.4-11.2-3.4-.9.9-3.3 1.6-.4 7.5-2-6.6 6.6zm-.8-5.7-.7.2-.4.1h-.2l2.7-10.1 3.8-3.8 3.5 2 .6.3.7.4 1.4 2.3 1.3 2.3-3.8 3.8-8.9 2.5zm17.3-.1.1.2-.1-.2zm-4.7-19h-5.8l3.8-6.6 6.6-3.8v5.6h-4.7v4.8zm-2.7-7.3-4.7 2.7-3.8-3.8-2.4-8.8-.3-1.1-.1-.2 10.2 2.7 3.8 3.8-2 3.5-.7 1.2zm-11.5-12.4-.9-3.3 3.3-.9 6.7 6.6-9.1-2.4zm2.4-11.3-3.4-.9.9-3.3 1.6-.4 7.5-2-6.6 6.6zm-.8-5.6-.7.2-.4.1h-.2l2.7-10.1 3.8-3.8 3.5 2 .6.3.7.4 1.4 2.3 1.3 2.3-3.8 3.8-8.9 2.5zm17.3-.1.1.2-.1-.2zm-4.7-19h-5.8l3.8-6.6 6.6-3.8v5.6h-4.7v4.8zm-2.7-7.3-4.7 2.7-3.8-3.8-2.4-8.8-.3-1.1-.1-.2 10.2 2.7 3.8 3.8-2 3.5-.7 1.2zm-11.5-12.4-.9-3.3 3.3-.9 6.7 6.6-9.1-2.4zm2.4-11.3-3.4-.9.9-3.3 1.6-.4 7.5-2-6.6 6.6zm-9.2-23.7h5.6l4.7 2.7-1.2 4.5v.1l-.1.5-7.5 7.4-2.4-8.8-.4-1.3 1.3-5.1zm-10.5.8 1.3-.7h5.4l1.2 4.5.7 2.6 2.4 9-2.5 2.4-2.4-2.4.4-1.6 2-7.4-.5-1.9-2.4 8.8-.4 1.3-7.4-7.4-1.4-5.1 3.6-2.1zm-3 7.6 2.4 8.8.3 1.2v.2l-10.2-2.7-3.8-3.8 2-3.5.7-1.3 4.7-2.7 3.9 3.8zm-11.2-8.4h5.8l-3.8 6.6-.9 1.5-.5.8-1.9 3.3 3.1 3.1-4.2-1.1-2.2 3.8v-6.5l5.6-3.2 1-1.7-6.6 3.8V19h4.7v-4.8zm-1-.1V18h-3.6v-3.9h3.6zm-8.3 3.7v-3.6h3.7v3.6h-3.7zm3.6 8v6.4l-.1-.2-2.2-3.7-4.2 1.1 3.1-3.1-.4-.7-.4-.7-1.4-2.4 5.6 3.3zm-12.1-7 3.5 2 .6.3.7.4 1.4 2.3 1.3 2.3-3.8 3.8-8.9 2.4-.7.2-.4.1h-.2l2.7-10.1 3.8-3.7zm-13.6-4.6h5.6l4.7 2.7-1.2 4.5v.1l-.1.5-7.5 7.4-2.4-8.8-.4-1.3 1.3-5.1zm-10.5.8 1.3-.7H97l1.2 4.5.7 2.6 2.4 9-2.5 2.4-2.4-2.4.4-1.6 2-7.4-.5-1.9-2.3 8.7-.4 1.3-7.4-7.4-1.4-5.1 3.5-2zm-3 7.6 2.4 8.8.3 1.2v.2l-10.2-2.7-3.8-3.8 2-3.5.7-1.3 4.7-2.7 3.9 3.8zm-15.8-8.5h3.7V18h-3.7v-3.9zm0 10.5V19h4.7v-4.8H82l-3.8 6.6-.9 1.5-.5.8-1.9 3.3 3.1 3.1-4.2-1.1-2.2 3.8v-6.5l5.6-3.2 1-1.7-6.7 3.8zm-1 7.6zm-.1-6.4v6.4l-.1-.2-2.2-3.7-4.2 1.1 3.1-3.1-.4-.7-.4-.6-1.4-2.4 5.6 3.2zm-12.1-7 3.5 2 .6.3.7.4 1.4 2.3 1.3 2.3-3.8 3.8-8.9 2.4-.7.2-.4.1h-.2l2.7-10.1 3.8-3.7zm-13.6-4.6h5.6l4.7 2.7-1.2 4.5v.1l-.2.5-7.5 7.4-2.4-8.8-.4-1.3 1.4-5.1zm-10.4.8 1.3-.7H41l1.2 4.5.7 2.6 2.4 9-2.5 2.4-2.4-2.4.4-1.6 2-7.4-.5-1.9-2.4 8.8-.4 1.3-7.4-7.4-1.4-5.2 3.6-2zm-3.1 7.6 2.4 8.8.3 1.2v.2l-10.2-2.7-3.7-3.8 2-3.5.7-1.3 4.7-2.7 3.8 3.8zm-15.8-8.5H19V18h-3.7v-3.9zm0 10.5V19h4.7v-4.8h5.8L22 20.8l-.9 1.5-.5.8-1.9 3.3 3.1 3.1-4.2-1.1-2.8 4.9.6-1v-6.5l5.6-3.2 1-1.7-6.6 3.7zm0 15.2v-5.5l1.6-2.8 1.1-1.8 4.5 1.2.6.2 2 .5 9 2.4.3 1 .6 2.4-3.3.9-6.7-6.6-2-.5 7.5 7.4-10 2.7-.2.1-1.1-.3-3.9-1.3zm2.8 13.9-2-3.5-.7-1.3v-5.3l4.5-1.2.7-.2 8.9 2.4 1.3.4-7.4 7.4-5.3 1.3zm5.7-.5 8.9-2.4 1.2-.3.2-.1-2.7 10.1-3.8 3.8-3.5-2-1.3-.7-2.8-4.6 3.8-3.8zm-8.5 12.1H19v3.6h-3.7v-3.6zm18.1 3.6H27l-3.2-5.5-.2-.1-1.6-1 3.8 6.6H20v-4.6h-4.7v-5.8l6.6 3.8-1.5-2.7.5.9 1 1.7.5.3 1 .6.2.1 1.6.9 1.8 1 .6.4 3.1-3.1-.6 2.3-.5 1.9 1 .6 2.9 1.7zm-14.5 1v3.7h-3.7v-3.8l3.7.1zm-3.6 10.4v-5.6h4.7v-4.8h5.8L22 76.5l-.9 1.5-.5.8-1.9 3.3 3.1 3.1-4.2-1.1-2.8 4.9.6-1v-6.5l5.6-3.2 1-1.7-6.6 3.7zm0 15.2V90l1.6-2.8 1.1-1.8 4.5 1.2.6.2 2 .5 9 2.4.3 1 .6 2.4-3.3.9-6.7-6.6-2-.5 7.5 7.4-10 2.7-.2.1-1.1-.3-3.9-1.3zm2.8 13.9-2-3.5-.7-1.3v-5.3l4.5-1.2.7-.2 8.9 2.4 1.3.4-7.4 7.4-5.3 1.3zm5.7-.5 8.9-2.4 1.2-.3.2-.1-2.7 10.1-3.8 3.8-3.5-2-1.3-.7-2.7-4.6 3.7-3.8zM15.4 121H19v3.6h-3.7V121zm18.1 3.6H27l-3.2-5.5-.2-.1-1.6-1 3.8 6.6H20V120h-4.7v-5.8L22 118l-1.5-2.7.5.9 1 1.7.5.3 1 .6.2.1 1.6.9 1.8 1 .6.4 3.1-3.1-.6 2.3-.5 1.9 1 .6 2.8 1.7zm-14.5 1v3.7h-3.7v-3.8l3.7.1zM15.4 136v-5.6h4.7v-4.8h5.8l-3.8 6.6-.9 1.5-.5.8-1.9 3.3 3.1 3.1-4.2-1.1-2.8 4.9.6-1v-6.5L21 134l1-1.7-6.6 3.7zm0 15.2v-5.5l1.6-2.8 1.1-1.8 4.5 1.2.6.2 2 .5 9 2.4.3 1 .6 2.4-3.3.9-6.7-6.6-2-.5 7.5 7.4-10 2.7-.2.1-1.1-.3-3.9-1.3zm2.8 13.9-2-3.5-.7-1.3V155l4.5-1.2.7-.2 8.9 2.4 1.3.4-7.4 7.4-5.3 1.3zm5.7-.5 8.9-2.4 1.2-.3.2-.1-2.8 10.2-3.8 3.8-3.5-2-1.3-.7-2.7-4.6 3.8-3.9zm-8.5 12.1H19v3.6h-3.7v-3.6zm18.1 3.6H27l-3.2-5.5-.2-.1-1.5-.9 3.8 6.6h-5.8v-4.6h-4.7V170l6.6 3.8-1.5-2.7.5.9 1 1.7.5.3 1 .6.2.1 1.6.9 1.8 1 .6.4 3.1-3.1-.6 2.3-.5 1.9 1 .6 2.8 1.6zM19 181.4v3.8h-3.7v-3.8H19zm-3.6 10.4v-5.6h4.7v-4.8h5.8L22 188l-.9 1.5-.5.8-1.9 3.3 3.1 3.1-4.2-1.1-2.8 4.9.6-1V193l5.6-3.2 1-1.7-6.6 3.7zm0 15.1v-5.5l1.6-2.8 1.1-1.8 4.5 1.2.6.2 2 .5 9 2.4.3 1 .6 2.4-3.3.9-6.7-6.6-2-.5 7.5 7.4-10 2.7-.2.1-1.1-.3-3.9-1.3zm2.8 13.9-2-3.5-.7-1.3v-5.3l4.5-1.2.7-.2 8.9 2.4 1.3.4-7.4 7.4-5.3 1.3zm5.7-.4 8.9-2.4 1.2-.3.2-.1-2.7 10.1-3.8 3.8-3.5-2-1.3-.7-2.7-4.6 3.7-3.8zm-8.5 5.3 6.6 3.8-1.5-2.7.5.9 1 1.7.5.3 1 .6.2.1 1.6.9 1.8 1 .6.4 3.1-3.1-.6 2.3-.5 1.9 1 .6 2.8 1.6H27l-3.2-5.5-.2-.1-1.5-.9 3.8 6.6h-5.8v-4.6h-4.7v-5.8zm0 6.7H19v3.6h-3.7v-3.6zm3.6 4.7v3.7h-3.7V237l3.7.1zm-3.6 10.4v-5.6h4.7v-4.8h5.8l-3.8 6.6-.9 1.5-.5.8-1.9 3.3 3.1 3.1-4.2-1.1-2.8 4.9.6-1.1v-6.5l5.6-3.2 1-1.7-6.7 3.8zm0 15.1v-5.5l1.6-2.8 1.1-1.8 4.5 1.2.6.2 2 .5 9 2.4.3 1 .6 2.4-3.3.9-6.7-6.6-2-.5 7.5 7.4-10 2.7-.2.1-1.1-.3-3.9-1.3zm2.8 13.9-2-3.5-.7-1.3v-5.3l4.5-1.2.7-.2 8.9 2.4 1.3.4-7.4 7.4-5.3 1.3zm5.7-.4 8.9-2.4 1.2-.3.2-.1-2.7 10.1-3.8 3.8-3.5-2-1.3-.7-2.7-4.6 3.7-3.8zM19 291.8h-3.7v-3.6H19v3.6zm14.5 0H27l-3.2-5.5-.2-.1-1.5-.9 3.8 6.6h-5.8v-4.6h-4.7v-5.8l6.6 3.8-1.5-2.7.5.9 1 1.7.5.3 1 .6.2.1 1.6.9 1.8 1 .6.4 3.1-3.1-.6 2.3-.5 1.9 1 .6 2.8 1.6 1 .6-1-.6zm9-5.1-.5 2-.9 3.2h-5.6l-3.3-1.9-1.3-.8 1.2-4.5.2-.6 7.5-7.4 1.3 4.7 1.4 5.3zm-1.9-11 2.5-2.4 2.4 2.4-.4 1.6-2 7.4-2.5-9zm11 15.3-1.3.7h-5.4l-1.2-4.5-.2-.7 2.4-8.8.4-1.3 7.4 7.4 1.4 5.1-3.5 2.1zm6.8-3.9-3.8-3.8-2.4-8.8-.3-1.1-.1-.2 10.2 2.7 3.8 3.8-2 3.5-.7 1.3-4.7 2.6zm12 4.8h-3.7V288h3.7v3.9zm0-4.9h-4.7v4.8H60l3.8-6.6 6.6-3.8v5.6zm0-13.2v6.4l-5.6 3.2-.1.2-.2.3.2-.3.1-.2.1-.1 2.2-3.7v-.1l-3.1-3.1 2 .5 1.1.3 1.1.3 1.1-2 1.1-1.7zm4.7 18h-3.7v-3.6h3.7v3.6zm14.5 0h-6.5l-3.2-5.5-.2-.1-1.5-.9 3.8 6.6h-5.8v-4.6h-4.7v-5.8l6.6 3.8-1.6-2.7.5.9 1 1.7.5.3 1 .6.2.1 1.6.9 1.8 1 .6.4 3.1-3.1-.6 2.3-.5 1.9 1 .6 2.9 1.6 1 .6-1-.6zm9-5.1-.5 2-.9 3.2h-5.6l-3.3-1.9-1.3-.8 1.2-4.5.2-.6 7.5-7.4 1.3 4.7 1.4 5.3zm-1.9-11 2.5-2.4 2.4 2.4-.4 1.6-2 7.4-2.5-9zm11 15.3-1.3.7H101l-1.2-4.5-.2-.7 2.4-8.8.4-1.3 7.4 7.4 1.4 5.1-3.5 2.1zm6.8-3.9-3.8-3.8-2.4-8.8-.3-1.1-.1-.2 10.2 2.7 3.8 3.8-2 3.5-.7 1.3-4.7 2.6zm7.4 4.7h-5.8l3.8-6.6 6.6-3.8v5.6h-4.7v4.8zm1 .1V288h3.7v3.9h-3.7zm8.3-.1h-3.7v-3.6h3.7v3.6zm14.5 0h-6.5l-3.2-5.5-.2-.1-1.5-.9 3.8 6.6h-5.8v-4.6h-4.7v-5.8l6.6 3.8-1.6-2.7.5.9 1 1.7.5.3 1 .6.2.1 1.6.9 1.8 1 .6.4 3.1-3.1-.6 2.3-.5 1.9 1 .6 2.9 1.6 1 .6-1-.6zm8.9-5.1-.5 2-.9 3.2h-5.6l-3.3-1.9-1.3-.8 1.2-4.5.2-.6 7.5-7.4 1.3 4.7 1.4 5.3zm-1.9-11 2.5-2.4 2.4 2.4-.4 1.6-2 7.4-2.5-9zm11 15.3-1.3.7H157l-1.2-4.5-.2-.7 2.4-8.8.4-1.3 7.4 7.4 1.4 5.1-3.5 2.1zm6.9-3.9-3.8-3.8-2.4-8.8-.3-1.1-.1-.2 10.2 2.7 3.8 3.8-2 3.5-.7 1.3-4.7 2.6zm12 4.8H179V288h3.7v3.9zm0-4.9h-4.7v4.8h-5.8l3.8-6.6 6.6-3.8v5.6zm0-13.2v6.4l-5.6 3.2-.1.2-.2.3.2-.3.1-.2.1-.1 2.2-3.7v-.1l-3.1-3.1 2 .5 1.1.3 1.1.3 1.1-2 1.1-1.7.5-.9-.5.9zm0-7.6v5.5l-2.7 4.6-4.5-1.2-.7-.2-7.5-7.4 10.2-2.7 5.2 1.4zm0-3.8-4.5 1.2-.7.2-.7.2.7-.2-5.6-1.5-3.3-.9-.5-.1-.9-.2 7.4-7.4 3.1-.8 2.1-.6 2 3.5.2.4.5.9v5.3zm-3.6-26.3v-3.8h3.7v3.8H179zm3.6-18v6.4l-5.6 3.2-.1.2-.2.3.2-.3.1-.2.1-.1 2.2-3.7v-.1l-3.1-3.1 2 .5 1.1.3 1.1.3 1.1-2 1.1-1.7.5-.9-.5.9zm0-7.6v5.5l-2.7 4.6-4.5-1.2-.7-.2-7.5-7.4 10.2-2.7 5.2 1.4zm0-3.8-4.5 1.2-.7.2-.7.2.7-.2-5.6-1.5-3.3-.9-.5-.1-.9-.2 7.4-7.4 3.1-.8 2.1-.6 2 3.5.2.4.5.9v5.3zm-3.6-26.3v-3.8h3.7v3.8H179zm3.6-18.1v6.4L177 172l-.1.2-.2.3.2-.3.1-.2.1-.1 2.2-3.7v-.1l-3.1-3.1 2 .5 1.1.3 1.1.3 1.1-2 1.1-1.8.5-.9-.5.9zm0-7.5v5.5l-2.7 4.6-4.5-1.2-.7-.2-7.5-7.4 10.2-2.7 5.2 1.4zm0-3.8-4.5 1.2-.7.2-.7.2.7-.2-5.6-1.5-3.3-.9-.5-.1-.9-.2 7.4-7.4 3.1-.8 2.1-.6 2 3.5.2.4.5.9v5.3zm-3.6-26.4v-3.8h3.7v3.8H179zm3.6-18v6.4l-5.6 3.2-.1.2-.2.3.2-.3.1-.2.1-.1 2.2-3.7v-.1l-3.1-3.1 2 .5 1.1.3 1.1.3 1.1-2 1.1-1.7.5-.9-.5.9zm0-7.5v5.5l-2.7 4.6-4.5-1.2-.7-.2-7.5-7.4 10.2-2.7 5.2 1.4zm0-3.8-4.5 1.2-.7.2-.7.2.7-.2-5.6-1.5-3.3-.9-.5-.1-.9-.2 7.4-7.4 3.1-.8 2.1-.6 2 3.5.2.4.5.9v5.3zM179 68.9v-3.8h3.7v3.8H179zm3.6-18v6.4l-5.6 3.2-.1.2-.2.3.2-.3.1-.2.1-.1 2.2-3.7v-.1l-3.1-3.1 2 .5 1.1.3 1.1.3 1.1-2 1.1-1.7.5-.9-.5.9zm0-7.5v5.5l-2.7 4.6-4.5-1.2-.7-.2-7.5-7.4 10.2-2.7 5.2 1.4zm0-3.8-4.5 1.2-.7.2-.7.2.7-.2-5.6-1.5-3.3-.9-.5-.1-.9-.2 7.4-7.4 3.1-.8 2.1-.6 2 3.5.2.4.5.9v5.3z" style="opacity:.2;fill:#173f4f"/><path d="M183.1 13.7v278.6H14.9V13.7h168.2m.5-.5H14.4v279.6h169.3V13.2h-.1z" style="fill:#7dc5b0"/><path d="M151.3 196.2h-3.1c-1 1.2-2.1 2.2-3.4 2.9-.8 1.3-1.8 2.5-2.9 3.4v3.1H136c-2.1 4.9-6.9 8.2-12.4 8.2-.5 0-.9 0-1.4-.1-2.5 3.5-6.6 5.7-11 5.7-1.3 0-2.7-.2-4-.6-1.4.4-4 3.2-5.7 6l-2.4 4.2-2.6-4.1c-1.9-2.9-4.5-5.7-5.8-6.1-1.3.4-2.6.6-3.9.6-4.4 0-8.5-2.2-11-5.7-.5 0-.9.1-1.4.1-5.5 0-10.3-3.3-12.4-8.2h-5.9v-3.1c-1.2-1-2.2-2.1-2.9-3.4-1.3-.8-2.4-1.8-3.4-2.9h-3.1v-5.9c-4.9-2.1-8.1-6.9-8.1-12.5 0-.5 0-1 .1-1.4-3.5-2.5-5.7-6.6-5.7-11 0-1.4.2-2.7.6-4-.4-1.4-3.1-4-6-5.7l-4.1-2.5 4-2.7c2.8-1.9 5.6-4.6 6.1-5.8-.4-1.3-.6-2.6-.6-3.9 0-4.4 2.2-8.5 5.7-11.1-.1-.5-.1-1-.1-1.4 0-5.5 3.3-10.4 8.1-12.5v-5.9h3.1c.9-1.2 2.1-2.2 3.4-3 .8-1.3 1.8-2.4 2.9-3.4v-3.1H62c2.1-4.9 6.9-8.2 12.4-8.2.5 0 .9 0 1.4.1 2.5-3.5 6.6-5.7 11-5.7 1.3 0 2.7.2 3.9.6 1.3-.5 3.9-3.3 5.8-6.2l2.6-4.1 2.4 4.2c1.7 2.9 4.3 5.6 5.7 6 1.3-.4 2.6-.6 4-.6 4.4 0 8.5 2.2 11 5.7.5-.1.9-.1 1.4-.1 5.5 0 10.3 3.3 12.4 8.2h5.9v3.1c1.1 1 2.1 2.1 2.9 3.4 1.3.8 2.4 1.8 3.4 3h3.1v5.9c4.9 2.1 8.2 6.9 8.2 12.5 0 .5 0 1-.1 1.4 3.5 2.5 5.7 6.6 5.7 11.1 0 1.3-.2 2.7-.6 3.9.5 1.3 3.3 4 6.1 5.8l4 2.7-4.2 2.5c-2.9 1.7-5.6 4.3-6 5.7.4 1.3.6 2.6.6 4 0 4.4-2.2 8.5-5.7 11 .1.5.1 1 .1 1.4 0 5.5-3.3 10.4-8.2 12.5v6z" style="fill:#173f4f"/><path d="m99.2 230.1-3.1-4.7c-1.8-2.8-4.3-5.3-5.4-5.9-1.2.4-2.5.5-3.9.5-4.4 0-8.6-2.1-11.2-5.7h-1.2c-5.5 0-10.4-3.2-12.7-8.2h-6.1v-3.4c-1.1-.9-2-2-2.8-3.3-1.2-.8-2.3-1.7-3.2-2.8h-3.4v-6.1c-5-2.3-8.1-7.3-8.1-12.8 0-.4 0-.8.1-1.2-3.5-2.6-5.6-6.8-5.6-11.3 0-1.4.2-2.7.6-4-.5-1.2-3-3.7-5.7-5.3l-4.8-2.9 4.7-3.1c2.8-1.8 5.3-4.3 5.8-5.5-.4-1.2-.5-2.6-.5-3.9 0-4.4 2.1-8.6 5.6-11.3 0-.4-.1-.8-.1-1.2 0-5.5 3.2-10.5 8.1-12.8v-6.1h3.4c.9-1.1 2-2.1 3.3-2.8.7-1.2 1.7-2.3 2.8-3.3v-3.4h6.1c2.2-5 7.2-8.2 12.7-8.2h1.2c2.6-3.6 6.8-5.7 11.2-5.7 1.3 0 2.6.2 3.9.6 1.2-.6 3.6-3.1 5.4-5.9l3.1-4.7 2.8 4.9c1.6 2.8 4.1 5.3 5.2 5.8 1.3-.4 2.6-.6 4-.6 4.4 0 8.6 2.1 11.2 5.7h1.2c5.5 0 10.5 3.2 12.7 8.2h6.1v3.4c1.1 1 2 2.1 2.8 3.3 1.2.7 2.3 1.7 3.3 2.8h3.4v6.1c5 2.3 8.2 7.3 8.2 12.8 0 .4 0 .8-.1 1.2 3.5 2.7 5.6 6.9 5.6 11.3 0 1.4-.2 2.7-.6 3.9.6 1.2 3.1 3.6 5.9 5.5l4.7 3.1-4.8 2.9c-2.8 1.7-5.3 4.1-5.7 5.3.4 1.3.6 2.6.6 4 0 4.4-2.1 8.6-5.6 11.3 0 .4.1.8.1 1.2 0 5.5-3.2 10.5-8.2 12.8v6.1h-3.4c-1 1.1-2 2.1-3.3 2.8-.7 1.2-1.7 2.3-2.8 3.3v3.4h-6.1c-2.3 5-7.2 8.2-12.7 8.2h-1.2c-2.6 3.6-6.8 5.7-11.2 5.7-1.3 0-2.7-.2-4-.6-1.2.5-3.6 3-5.3 5.8l-3 4.8zm-8.5-11.7.2.1c1.4.5 4.2 3.5 6 6.3l2.2 3.4 2-3.5c1.8-3 4.4-5.8 6-6.3h.2c1.3.4 2.5.6 3.8.6 4.2 0 8.1-2.1 10.6-5.5l.2-.2h.3c.5 0 1 .1 1.4.1 5.2 0 9.9-3.1 11.9-7.9l.1-.3h5.7v-2.9l.2-.2c1.1-.9 2.1-2 2.8-3.3l.1-.1.1-.1c1.2-.7 2.3-1.7 3.3-2.8l.2-.2h2.8v-5.8l.3-.1c4.8-2 7.8-6.8 7.8-12 0-.5 0-.9-.1-1.4v-.3l.2-.2c3.4-2.5 5.5-6.4 5.5-10.6 0-1.3-.2-2.6-.6-3.9v-.2c.5-1.5 3.3-4.2 6.2-6l3.5-2.1-3.4-2.2c-2.9-1.9-5.8-4.7-6.3-6.1l-.1-.2.1-.2c.4-1.2.6-2.5.6-3.8 0-4.2-2-8.2-5.5-10.7l-.2-.2v-.3c.1-.5.1-.9.1-1.4 0-5.3-3.1-10-7.8-12l-.3-.1V110H148l-.2-.2c-1-1.2-2.1-2.1-3.3-2.8l-.1-.1-.1-.1c-.8-1.2-1.7-2.3-2.8-3.3l-.2-.2v-2.8h-5.7l-.1-.3c-2-4.8-6.7-7.9-11.9-7.9-.5 0-1 0-1.4.1h-.3l-.2-.2c-2.4-3.4-6.4-5.5-10.6-5.5-1.3 0-2.6.2-3.8.6h-.2c-1.5-.5-4.2-3.3-6-6.3l-2-3.5-2.2 3.4c-1.9 2.9-4.6 5.8-6 6.4l-.2.1-.2-.1c-1.2-.1-2.5-.3-3.7-.3-4.2 0-8.1 2.1-10.6 5.5l-.2.2h-.3c-.4 0-.8-.1-1.4-.1-5.2 0-9.9 3.1-11.9 7.9l-.1.3h-5.7v2.8l-.2.2c-1.1.9-2.1 2.1-2.8 3.3l-.1.1-.1.1c-1.2.7-2.3 1.7-3.3 2.8l-.2.2h-2.8v5.8l-.3.1c-4.8 2-7.8 6.8-7.8 12 0 .5 0 .9.1 1.4v.3l-.2.2c-3.4 2.4-5.5 6.4-5.5 10.7 0 1.3.2 2.6.6 3.8v.2l-.1.2c-.5 1.4-3.3 4.2-6.3 6.1l-3.4 2.2 3.5 2c3 1.8 5.8 4.4 6.2 6v.2c-.4 1.3-.6 2.6-.6 3.9 0 4.2 2 8.2 5.5 10.6l.2.2v.3c-.1.5-.1.9-.1 1.4 0 5.2 3.1 9.9 7.8 12l.3.1v5.8h3l.2.2c.9 1.1 2 2.1 3.2 2.8l.1.1.1.1c.8 1.3 1.7 2.4 2.8 3.3l.2.2v2.9h5.7l.1.3c2 4.8 6.7 7.9 11.9 7.9.4 0 .9 0 1.4-.1h.3l.2.2c2.4 3.4 6.4 5.5 10.6 5.5 1.3 0 2.6-.2 3.8-.6l.1-.2z" style="fill:#7dc5b0"/><path d="M99 210.1c-15.2 0-29.5-6-40.4-16.8-10.9-10.8-16.8-25.1-16.8-40.3 0-15.1 6-29.5 16.8-40.3C69.5 101.9 83.8 95.9 99 95.9c14.9 0 29 5.8 39.8 16.2 10.8 10.5 17 24.4 17.4 39.2v1.6c0 15.1-6 29.5-16.8 40.3-10.9 10.9-25.2 16.9-40.4 16.9zm0-113.2c-31 0-56.2 25.2-56.2 56.1S68 209.1 99 209.1c31 0 56.2-25.2 56.2-56.1v-1.6c-.9-30-26.1-54.5-56.2-54.5z" style="fill:#1a546d"/><path d="m144.8 186.3.1.1s0-.1-.1-.1zM132 136.5c-.2-2-.2-3.9-.4-6 .9.4 1.2 1.6 2.3 1.7-.8-2.8-1.9-5.4-3.1-7.8-.1-.2-.2-.4-.5-.4s-.3.3-.4.5c-.4 1.5-.5 3-.4 4.6.3 4.7.6 9.3.9 14 .3 5.2.6 10.3.9 15.5.4 6.2.7 12.4 1.1 18.6.1 2.5-1.4 3.5-3.2 4.3-2.4 1-3.3.9-5-.8-.4-.4-.5-.7 0-1.1 1.8-1.3 2.6-3.2 3.4-5.2.9-2.2.5-4.4-.6-6.4-.8-1.5-2-1.7-3.4-.7-1.1.8-1.7 1.9-2.1 3.2-.6 1.8-.6 3.8-.7 5.7-.1 1.6-.8 2.4-2.2 2.9-5.8 2.1-10.9 5.3-14.6 10.4-1.5 2.1-3.5 3.9-5.9 5.1-1.7.9-3.3.1-3.8-1.7-.2-.9-.2-1.8-.2-2.8.2-2.9 1.6-5.1 3.7-7 2.4-2.2 3.4-4.9 2.7-8.2-.4-1.7-.9-3.4-1.5-5.1-.7-1.9-.7-1.9 1.2-1.6.1 0 .1-.1.3-.3-1.2-2-2.8-3.5-4.3-5.3-1 2.6-.2 4.9.6 7.1.7 2.1 1.4 4.2 2.2 6.3.7 1.7.3 3.1-1.2 4.2-6.2 4.4-12.7 7.7-20.6 6.8-3.2-.4-6.1-1.5-7.4-4.7-1.8-4.6-1.4-11.9 5.3-14.6.6-.2 1.2-.5 1.8-.8 2.5-1.3 5.3-1.7 7.9-2.7 2.7-1.1 4.5-2.9 4.9-5.9.3-2.2 0-4.4-1.2-6.3-.6-1-1.1-2.1-1.7-3.1.7.1 1.2.4 1.6.8 4.5 3.4 9 6.9 13.5 10.3 1 .7 1.4 1.5 1.5 2.6.1 1.6.2 3.2.3 4.7.4 5.2.3 10.5.3 15.7 0 .7 0 1.4.4 2.3 1-2.3 1.3-4.6 1.5-6.9.5-4.9.2-9.8-.5-14.6-.1-.7.1-.8.8-.6.8.3 1.7.5 2.6.6 3 .5 6.9-.6 7.7-4.9.4-2.5.5-5 .4-7.5-.3-3.5-.4-7-.7-10.5-.3-3.7-.7-7.3-1-11-.3-3.4-.6-6.7-.9-10.2 1 .6 1.3 1.8 2.6 2.3-.7-3.2-2.2-5.9-3.6-8.6-.3-.5-.6-.2-.8.2-.4 1.1-.5 2.2-.4 3.3.4 5.5.8 11.1 1.3 16.6.3 3.6.6 7.2.9 10.7.4 4.1.8 8.2 1 12.3.1 2.5-.3 2.9-2.7 3.6-3.8 1.1-7.1-1-7.3-4.6-.3-5.6-.6-11.2-.8-16.8 0-.4-.2-.9.1-1.3.7.6 1.1 1.5 2.2 1.8-.5-3.5-2.1-6.3-3.3-9.5-.9 1.4-1.3 2.7-1.2 4.2.2 6.6.5 13.3.7 19.9 0 .7.2 1.6-.3 2-.6.3-1.3-.4-1.8-.8l-13.5-9.6c-.3-.2-.8-.4-.7-.8.1-.5.6-.6 1-.7 2.5-.5 4.9-.4 7.3.6.9.4 1.3.4 1.5-.7.3-1.7.1-2.7-1.7-3.5-3-1.4-4.5-3.7-5-6.9-.1-.6-.2-1.3-.3-1.9-.1-.6-.3-1.3.1-1.7.5-.5.9.5 1.5.5.1 0 .2-.1.3-.1-.8-2.4-2.3-4.5-3.7-6.7-1.1 3-.3 5.8.2 8.6.4 2.3.9 4.6 1.2 6.9.1.5.5 1.3-.5 1.5-1.6.3-3 1-4.5 1.5-.8.3-1.5.3-2.2-.3-4.4-3.1-9-5.8-13.7-8.4-.8-.4-2-.7-2-1.5 0-1 1.2-1.3 2.1-1.6 10.2-4.7 20.7-8.5 31.8-10.6 1.9-.4 3.8-.6 5.6.4 1.3.8 2.1 1.7.4 3.1-1.6 1.3-3.2 2.7-4.8 4.1-2.5 2.2-4.5 4.8-5.9 8.2.4-.3.6-.4.7-.5 2.9-3 5.8-5.9 8.9-8.7 1.6-1.5 3-3.1 3.7-5.2.9-2.7-.8-5-3.7-5.1-1.8-.1-3.4.4-5.1.7-7.5 1.6-14.8 4-22.1 6.3-2.6.9-2.6.8-3.7-1.7-.5-1.1-.2-1.5.9-2 3.6-1.5 7.2-2.9 10.8-4.2 3.1-1.2 6.3-2.1 9.3-3.4.3-.1.8-.3.7-.7-.2-.5-.6-.2-.9-.1-6.8 1.7-13.4 4.2-19.8 7-2.6 1.1-3 3.5-1.1 5.6.7.7.3.9-.3 1.2-2.4 1.2-4.7 2.5-7.1 3.6-2.3 1.1-3.2 5.3-.9 7.3 1.1.9 2.3 1.8 3.4 2.7 3.1 2.2 6.3 4.2 9.2 6.8-4.3 4.2-8.7 8.2-13.4 11.9-.8.7-1.8 1.1-2.9 1.4-1.8.4-3-.3-3.4-2.1-.4-1.6.2-3.1.7-4.6 1-2.9 2.4-5.6 4-8.3.2-.3.6-.8.1-1.1-.4-.2-.6.4-.8.7-1.6 2.7-3.3 5.3-4.3 8.3-1.2 3.4-1.3 6.6 1.2 9.6.5.6.4 1.3.2 2-.3.7-.6 1.5-.9 2.2-1.1 3.2-1.5 6.4-.4 9.7 1 2.8 3.4 3.7 6.1 2.4 1.1-.5 1.9-1.3 2.8-2.1.5-.4 1-1 1.8-1.2-.7 2.9-1.3 5.7-1.1 8.6.3 5 4.1 8.6 9.1 8.9 5.6.3 10.7-1.3 15.6-3.7.4-.2.8-.7 1.3-.4.5.4.2.9.1 1.4-.5 2.2-.6 4.3.5 6.4 1.6 3.1 4.5 3.6 7.2 1.4 1.4-1.2 2.6-2.7 3.8-4.1 4-5.1 9.5-8 15.4-10.2 1.2-.4 1.7-.1 2.2 1 1.3 3.3 3.9 4 6.9 2.1 2.5-1.6 3.8-4 4.1-6.9.7-5.9.5-11.8.2-17.6-1-8.5-1.8-16.4-2.4-24.2zm-67.2 36c-.5.4-1.1.8-1.6 1.1-3 1.5-4.8.4-4.8-3.3.1-2.5.8-5.2 2-7.7.3-.6.7-1.1 1.3-1.2 2.4-.4 4.2-2 5.9-3.5 3.5-3.1 6.9-6.3 10.5-9.3 3.3-2.7 2.4-2.4 5.1.3 2.3 2.3 4 4.9 5.5 7.7.7 1.4.6 2.1-.8 2.9-1.9 1.2-4.1 1.8-6.2 2.4-4.9 1.3-9.2 3.5-12.7 7.1-1.3 1.2-2.8 2.3-4.2 3.5zm58.7 4.5c-.5 0-.6-.2-.8-.6-.4-1.2-.7-2.5-.7-3.8 0-1.1.6-2.1 1.8-2.3 1.3-.3 1.9.6 2.2 1.6.2.6.4 1.2.5 1.7.1 1.1-2.1 3.3-3 3.4z" style="fill:#173f4f"/><path d="M120.4 148c-.8.4-1.5.9-2.1 1.7l.3.1 2.4-1.2c1.4-.7 1.6-.6 1.6.9.1 2.3.2 4.7.3 7 0 .5-.1 1 .5 1.4.1-.4.3-.7.4-1 .7-2.5.9-5.1.9-7.8 0-1.6 0-3.5 1.6-4.4 1.8-1.1 1.9-2.7 1.8-4.5-.1-.7.2-1.5-.6-1.8-.5-.2-1 .3-1.4.7-.6.6-1.1 1.2-.7 2.1l.6.9c.3.4.7.7.2 1.2-.4.4-.7 1.1-1.3.9-.5-.1-.4-.8-.5-1.4-.4-4.6-.7-9.1-1.1-13.7-.1-1.7-.2-3.4-.3-5.3.9.3 1.4.9 2.4 1.6-1.1-3.2-2.1-6-3.8-8.7-.5.8-.6 1.5-.6 2.2 0 2.7.1 5.4.3 8.1.4 5.5.7 11.1 1.1 16.6.2 2.1-.2 3.5-2 4.4zm5.9-7.8c0-.2.1-.5.4-.4.4.2.7.5.8 1 0 .3-.2.4-.5.3-.4-.2-.7-.5-.7-.9zm11.4-7.4c-.1-.2-.3-.5-.6-.5-.4 0-.4.5-.5.7-.1.4-.1.8-.1 1.2-.1 5 .4 9.9.7 14.8.4 7.5.9 15.1.8 22.7v4.7c.7-.6.8-1 1-1.5 1.3-3.6 1.2-7.3 1.1-11-.2-6.5-.8-13-1.2-19.5-.1-1.8 0-3.7 0-5.6.6.7 1 1.5 1.9 2 0-.3.1-.5.1-.6-.9-2.7-1.9-5.1-3.2-7.4zM126 159.9c-1 1.2-1.8 1.1-2.7-.1l-.6-.6c-.2-.2-.4-.3-.6-.1-.6.8-1.4 1.5-1.7 2.4-.2.6.7 1 1.1 1.5.6 1 1.1.8 1.9 0 1.4-1.6 1.4-1.5 3.3-.3.4.3.7 1.1 1.4.5.6-.6 1.4-1.1 1.6-2.1-.2-.9-.8-1.5-1.5-1.9-1-.5-1.7.1-2.2.7zm-65.7-17.4c1.1-.9 2-2.2 3.7-2.4.5-.1.8-.7.4-1.1-.9-1-.9-2.2-1-3.4 0-.6-.3-.8-.9-.7-1.4.3-2.3 2.6-1.4 3.7.6.7.5 1.3-.1 1.9-1.8 1.8-3.8 3.3-6 4.6-.7.4-1.5.8-1.7 1.8.5-.2 1.1-.4 1.6-.7 2-1 3.7-2.3 5.4-3.7zm1.7-6.2c.4 0 .4.4.4.6 0 .2 0 .6-.4.6-.3 0-.3-.4-.3-.7 0-.2 0-.4.3-.5zm17.5 35.8c1.1-.6 2.2-1.2 2.8-2.8-1.5.5-2.4 1.2-3.5 1.8-2 1.1-4 2.2-5.8 3.7-.3.2-.9.5-.5 1 .3.4.7-.1 1-.2.8-.3 1.5-1.1 2.5-1.1.3 1-.1 1.8-.2 2.7-.1.9-.3 1.8-.3 2.8.1 1.1.2 2.3 1.5 2.7.8.2 1.5-1 1.6-2.7-.6.2-.6 1.2-1.2 1-.6-.2-.7-1-.9-1.6-.6-2.8.7-5.9 3-7.3zm16.3-10.9c1 .1 1.1-.7.7-1.2-.8-.9-.7-1.9-.9-2.9-.1-.4-.1-1-.7-1-.6-.1-1 .2-1.3.7-.6 1-.4 2 .1 2.9.5.8.3 1.4-.2 2-1 1.1-2.2 2.2-3.4 3.2-2.1 1.8-4.3 3.4-6.3 5.4.4.2.6.1.8 0 3.5-2.3 6.9-4.8 9.6-8.1.3-.5.7-1.1 1.6-1zm-1-3.1c-.1.3-.3.4-.6.3-.3-.1-.6-.3-.5-.7.1-.3.4-.2.6-.2.3.2.6.3.5.6zm15.8 17.3c-.2.1-.2.4-.4.9 2.6-.8 4.8-1.9 7.2-2.2.4-.1.8-.4.7-.9-.1-.5-.6-.4-.9-.4H114c-.7 0-1.7-.1-1.8-1 0-.9.8-1.3 1.7-1.3.5 0 .9-.1 1.4-.2.3-.1.5-.2.5-.5 0-.4-.2-.6-.5-.7-1.3-.3-2.1.4-2.9 1.2-.8.8-1.8 1.5-1.6 2.9 0 0 0 .1.1.1.9.7.6 1.4-.3 2.1zm9.2 12.4c-.9 1.2-1.4 2.5-1.6 4 0 .3-.1.6-.4.6-.3 0-.3-.2-.4-.4-.5-1.3-1.5-2.2-2.5-3.1-.5-.4-1.1-1.2-1.7-.5-.5.6-.2 1.4.3 2 .3.3.6.6 1 .7.7.3 1.3.8 1.6 1.5.5.9 1 1.8 1.5 2.9.5-1.5.9-2.9 1.4-4.3.8-2.3 1-2.4 2.9-.9h.3c.2-.8.1-1.6-.3-2.4-.7-1.1-1.3-1.1-2.1-.1zm-37.1-59.3c-.6 0-.7.5-.9 1-.6 1.5-.8 3-1.1 4.7-.6-.2-.8-.6-1.1-1-.7-.7-1.4-1.5-2.3-2-.7-.4-1.4-.4-1.5.5-.1.9.3 1.8 1.2 1.9.8 0 1.1.5 1.5.9.6.7 1 1.4 1.4 2.2.2.3.2.8.7.7.5-.1.4-.5.5-.9.3-1.7.5-3.5.8-5.2.1-.7.3-1.1 1-.5.3.2.6.4.8 0 .2-.5.2-1-.1-1.5-.1-.3-.3-.8-.9-.8zm.7 47.3c0 .8 1.8 2.6 2.8 2.5 1.3-.1 1.1-1.4 1.5-2 0-1.1-1.4-2.5-2.5-2.5-.9 0-1.8 1-1.8 2zm7.9.2c.1.9.3 2 1.5 2.1 1.1.1 1.3-.9 1.5-1.7.1-.3.5-.6.1-1-.1.1-.3.2-.4.4-.3.3-.4.9-.9.6-.4-.2-.7-.6-.7-1.1v-1.1c0-1.4.5-2.7.6-4.1-1.3 1.7-1.9 3.7-1.7 5.9zm14.6-63.9c-.6.7-1.5.7-2.3 1.5 1.6-.1 2.6-.5 3.6-1.2.4-.3 1-.7.7-1.4-.2-.6-.8-.8-1.3-.9-1.8-.3-3.3.3-4.5 1.7 1.2.5 2.5-.6 3.8.3zm5.2 34.4c-1 1.5-1.6 3.2-2.1 5-.3 1.1.3 2.2.8 3.1.2.4.6.4 1 .2.6-.3 1-.8 1.1-1.5 0-.3-.2-.5-.4-.4-1.9.2-1.4-1.2-1.3-2.2.2-1.4.9-2.7.9-4.2zm-43.3-.2c0-1.5.8-2.9.8-4.4-1.1 1.9-1.8 3.8-2 5.9-.1 1 .5 2.3 1.6 2.3s1.3-1.2 1.5-2.5c-.6.4-1 1-1.5.6-.5-.3-.4-1-.4-1.5v-.4zm52.1 18.2c-1.4-.4-2.9-.7-4.4.1-.3.1-.7.3-.6.7.1.4.5.2.8.3.6.1 1.6-.3 1.8.2.3.9-1 .7-1.4 1.6 1.5-.3 2.8-.7 3.8-1.7.4-.5.6-1 0-1.2zM96.6 124c.4-.9.9-1.9 1.6-3-.8.3-1.1.7-1.4 1.1-.8 1.2-1.4 2.5-1.8 3.9-.4 1.2.1 2.7.9 2.7 1.2 0 1.3-1.1 1.6-2l-.2-.2c-.4.1-.8.8-1.2.4-.4-.3-.2-.9-.1-1.3.2-.6.4-1.1.6-1.6zm46.2 31.2c-.5-.3-.7-1-.7-1.6-.1-1 .3-1.8.6-2.7.3-.9.9-1.7.9-2.9-1.5 1.5-2.7 6.9-2 8.7.1.3.4.7.8.7s.6-.2.8-.5c.3-.7.6-1.5.9-2.3-.7-.1-.7 1.1-1.3.6zm-42.6-11.8c-1.5 1.6-2.2 3.5-2.3 5.7 0 .8.1 1.8 1.1 1.9.9.1 1.3-.8 1.5-1.6.1-.2 0-.4 0-.7-1 .7-1.5.5-1.6-.5 0-.4.1-.7.1-1.1.2-1.3.8-2.5 1.2-3.7zm8.1-10.5c.1.6.4 1.1 1 1.2.8 0 .9-.7 1.2-1.2.4-.7-.1-.8-.7-1-.6-.2-.6-.8-.6-1.3-.1-1.2.4-2.3.5-3.4-1.2 1.7-1.7 3.6-1.4 5.7zm-52.4 25.8c-.9-.2-1.5.4-1.7 1.1-.2 1.1.9.4 1.3.9-.4 1.6-1.7 2.9-2.1 4.6 1.4-1.4 2.3-3.1 3-4.9.4-.8.3-1.5-.5-1.7zm61-26.8c.1.7.3 1.7 1.3 1.5 1-.2 1.3-1 1.1-2-.6 0-.5.8-1 .5-.4-.2-.4-.6-.4-1-.1-1.3.1-2.7.2-4-.6 1.7-1.4 3.3-1.2 5zm-51.5 46.9c-.5-.3-1.1-.1-1.6.3-.3.2-.6.4-.6.8 2.6 1.4 0 3 .2 4.6 1.3-1.3 1.8-2.8 2.3-4.3.1-.5.2-1.1-.3-1.4zm43.8 12.8c-1.1-.4-1.3.9-1.8 1.7 1.6-.1 1.8.1 1.2 1.3-.4.8-.9 1.6-1.4 2.4 1.2-.7 1.9-1.7 2.3-3 .4-.8.7-2-.3-2.4zm-43.5-64.7c.4-.2.7-.6.8-1.2-1.6.2-1.4-.7-1.2-1.8.2-1.1.9-2 .9-3.4-1.5 1.9-1.8 3.9-1.6 5.9 0 .8.5.8 1.1.5zM57 139.8c.9.5 1.6-.8 2.3-2.3-2 1.9-1.8.5-1.8-.4 0-.2.1-.5-.3-.6-.3 0-.5.2-.5.4-.1 1-.6 2.4.3 2.9zm25.2 19.3c.6-.8 1.3-1.5 1.5-2.5-.2-1.1-1.2-1.6-2-2.2-.6-.5-1.1-.4-1.6.2-1.3 1.6-1.3 1.6-3.2.5-.1 0-.2-.1-.2-.1-.5-.2-1-.8-1.5-.3-.7.6-1.4 1.3-1.6 2.2 0 .1.1.4.2.5.8.6 1.6 1.2 2.4 1.9.4.3.6 0 .9-.3.6-.6 1-1.8 1.8-1.8.8.1 1.5 1 2.3 1.5.2.1.4.3.6.4.1.1.2.2.4 0zm-14.8 6.3c-.4-.8-1.1-1.4-.7-2.5.4-1 1.1-2 1-3.5-1.5 2.3-1.9 4.5-1.7 6.9 0 .4.2.8.7.9.6.2.9-.1 1.2-.4.5-.6.8-1.4.8-2.3-.2.3-.5.5-.7.8-.2.3-.4.5-.6.1z" style="fill:#173f4f"/><path d="m144.7 185 .1.1s0-.1-.1-.1zm-12.8-49.8c-.2-2-.2-3.9-.4-6 .9.4 1.2 1.6 2.3 1.7-.8-2.8-1.9-5.4-3.1-7.8-.1-.2-.2-.4-.5-.4s-.3.3-.4.5c-.4 1.5-.5 3-.4 4.6.3 4.7.6 9.3.9 14 .3 5.2.6 10.3.9 15.5.4 6.2.7 12.4 1.1 18.6.1 2.5-1.4 3.5-3.2 4.3-2.4 1-3.3.9-5-.8-.4-.4-.5-.7 0-1.1 1.8-1.3 2.6-3.2 3.4-5.2.9-2.2.5-4.4-.6-6.4-.8-1.5-2-1.7-3.4-.7-1.1.8-1.7 1.9-2.1 3.2-.6 1.8-.6 3.8-.7 5.7-.1 1.6-.8 2.4-2.2 2.9-5.8 2.1-10.9 5.3-14.6 10.4-1.5 2.1-3.5 3.9-5.9 5.1-1.7.9-3.3.1-3.8-1.7-.2-.9-.2-1.8-.2-2.8.2-2.9 1.6-5.1 3.7-7 2.4-2.2 3.4-4.9 2.7-8.2-.4-1.7-.9-3.4-1.5-5.1-.7-1.9-.7-1.9 1.2-1.6.1 0 .1-.1.3-.3-1.2-2-2.8-3.5-4.3-5.3-1 2.6-.2 4.9.6 7.1.7 2.1 1.4 4.2 2.2 6.3.7 1.7.3 3.1-1.2 4.2-6.2 4.4-12.7 7.7-20.6 6.8-3.2-.4-6.1-1.5-7.4-4.7-1.8-4.6-1.4-11.9 5.3-14.6.6-.2 1.2-.5 1.8-.8 2.5-1.3 5.3-1.7 7.9-2.7 2.7-1.1 4.5-2.9 4.9-5.9.3-2.2 0-4.4-1.2-6.3-.6-1-1.1-2.1-1.7-3.1.7.1 1.2.4 1.6.8 4.5 3.4 9 6.9 13.5 10.3 1 .7 1.4 1.5 1.5 2.6.1 1.6.2 3.2.3 4.7.4 5.2.3 10.5.3 15.7 0 .7 0 1.4.4 2.3 1-2.3 1.3-4.6 1.5-6.9.5-4.9.2-9.8-.5-14.6-.1-.7.1-.8.8-.6.8.3 1.7.5 2.6.6 3 .5 6.9-.6 7.7-4.9.4-2.5.5-5 .4-7.5-.3-3.5-.4-7-.7-10.5-.3-3.7-.7-7.3-1-11-.3-3.4-.6-6.7-.9-10.2 1 .6 1.3 1.8 2.6 2.3-.7-3.2-2.2-5.9-3.6-8.6-.3-.5-.6-.2-.8.2-.4 1.1-.5 2.2-.4 3.3.4 5.5.8 11.1 1.3 16.6.3 3.6.6 7.2.9 10.7.4 4.1.8 8.2 1 12.3.1 2.5-.3 2.9-2.7 3.6-3.8 1.1-7.1-1-7.3-4.6-.3-5.6-.6-11.2-.8-16.8 0-.4-.2-.9.1-1.3.7.6 1.1 1.5 2.2 1.8-.5-3.5-2.1-6.3-3.3-9.5-.9 1.4-1.3 2.7-1.2 4.2.2 6.6.5 13.3.7 19.9 0 .7.2 1.6-.3 2-.6.3-1.3-.4-1.8-.8l-13.5-9.6c-.3-.2-.8-.4-.7-.8.1-.5.6-.6 1-.7 2.5-.5 4.9-.4 7.3.6.9.4 1.3.4 1.5-.7.3-1.7.1-2.7-1.7-3.5-3-1.4-4.5-3.7-5-6.9-.1-.6-.2-1.3-.3-1.9-.1-.6-.3-1.3.1-1.7.5-.5.9.5 1.5.5.1 0 .2-.1.3-.1-.8-2.4-2.3-4.5-3.7-6.7-1.1 3-.3 5.8.2 8.6.4 2.3.9 4.6 1.2 6.9.1.5.5 1.3-.5 1.5-1.6.3-3 1-4.5 1.5-.8.3-1.5.3-2.2-.3-4.4-3.1-9-5.8-13.7-8.4-.8-.4-2-.7-2-1.5 0-1 1.2-1.3 2.1-1.6 10.2-4.7 20.7-8.5 31.8-10.6 1.9-.4 3.8-.6 5.6.4 1.3.8 2.1 1.7.4 3.1-1.6 1.3-3.2 2.7-4.8 4.1-2.5 2.2-4.5 4.8-5.9 8.2.4-.3.6-.4.7-.5 2.9-3 5.8-5.9 8.9-8.7 1.6-1.5 3-3.1 3.7-5.2.9-2.7-.8-5-3.7-5.1-1.8-.1-3.4.4-5.1.7-7.5 1.6-14.8 4-22.1 6.3-2.6.9-2.6.8-3.7-1.7-.5-1.1-.2-1.5.9-2 3.6-1.5 7.2-2.9 10.8-4.2 3.1-1.2 6.3-2.1 9.3-3.4.3-.1.8-.3.7-.7-.2-.5-.6-.2-.9-.1-6.8 1.7-13.4 4.2-19.8 7-2.6 1.1-3 3.5-1.1 5.6.7.7.3.9-.3 1.2-2.4 1.2-4.7 2.5-7.1 3.6-2.3 1.1-3.2 5.3-.9 7.3 1.1.9 2.3 1.8 3.4 2.7 3.1 2.2 6.3 4.2 9.2 6.8-4.3 4.2-8.7 8.2-13.4 11.9-.8.7-1.8 1.1-2.9 1.4-1.8.4-3-.3-3.4-2.1-.4-1.6.2-3.1.7-4.6 1-2.9 2.4-5.6 4-8.3.2-.3.6-.8.1-1.1-.4-.2-.6.4-.8.7-1.6 2.7-3.3 5.3-4.3 8.3-1.2 3.4-1.3 6.6 1.2 9.6.5.6.4 1.3.2 2-.3.7-.6 1.5-.9 2.2-1.1 3.2-1.5 6.4-.4 9.7 1 2.8 3.4 3.7 6.1 2.4 1.1-.5 1.9-1.3 2.8-2.1.5-.4 1-1 1.8-1.2-.7 2.9-1.3 5.7-1.1 8.6.3 5 4.1 8.6 9.1 8.9 5.6.3 10.7-1.3 15.6-3.7.4-.2.8-.7 1.3-.4.5.4.2.9.1 1.4-.5 2.2-.6 4.3.5 6.4 1.6 3.1 4.5 3.6 7.2 1.4 1.4-1.2 2.6-2.7 3.8-4.1 4-5.1 9.5-8 15.4-10.2 1.2-.4 1.7-.1 2.2 1 1.3 3.3 3.9 4 6.9 2.1 2.5-1.6 3.8-4 4.1-6.9.7-5.9.5-11.8.2-17.6-1-8.5-1.8-16.4-2.4-24.2zm-67.2 36c-.5.4-1.1.8-1.6 1.1-3 1.5-4.8.4-4.8-3.3.1-2.5.8-5.2 2-7.7.3-.6.7-1.1 1.3-1.2 2.4-.4 4.2-2 5.9-3.5 3.5-3.1 6.9-6.3 10.5-9.3 3.3-2.7 2.4-2.4 5.1.3 2.3 2.3 4 4.9 5.5 7.7.7 1.4.6 2.1-.8 2.9-1.9 1.2-4.1 1.8-6.2 2.4-4.9 1.3-9.2 3.5-12.7 7.1-1.3 1.2-2.8 2.3-4.2 3.5zm58.6 4.5c-.5 0-.6-.2-.8-.6-.4-1.2-.7-2.5-.7-3.8 0-1.1.6-2.1 1.8-2.3 1.3-.3 1.9.6 2.2 1.6.2.6.4 1.2.5 1.7.2 1.1-2 3.3-3 3.4z" style="fill:#fff"/><path d="M120.3 146.7c-.8.4-1.5.9-2.1 1.7l.3.1 2.4-1.2c1.4-.7 1.6-.6 1.6.9.1 2.3.2 4.7.3 7 0 .5-.1 1 .5 1.4.1-.4.3-.7.4-1 .7-2.5.9-5.1.9-7.8 0-1.6 0-3.5 1.6-4.4 1.8-1.1 1.9-2.7 1.8-4.5-.1-.7.2-1.5-.6-1.8-.5-.2-1 .3-1.4.7-.6.6-1.1 1.2-.7 2.1l.6.9c.3.4.7.7.2 1.2-.4.4-.7 1.1-1.3.9-.5-.1-.4-.8-.5-1.4-.4-4.6-.7-9.1-1.1-13.7-.1-1.7-.2-3.4-.3-5.3.9.3 1.4.9 2.4 1.6-1.1-3.2-2.1-6-3.8-8.7-.5.8-.6 1.5-.6 2.2 0 2.7.1 5.4.3 8.1.4 5.5.7 11.1 1.1 16.6.2 2.1-.2 3.5-2 4.4zm5.9-7.8c0-.2.1-.5.4-.4.4.2.7.5.8 1 0 .3-.2.4-.5.3-.5-.1-.7-.5-.7-.9zm11.4-7.4c-.1-.2-.3-.5-.6-.5-.4 0-.4.5-.5.7-.1.4-.1.8-.1 1.2-.1 5 .4 9.9.7 14.8.4 7.5.9 15.1.8 22.7v4.7c.7-.6.8-1 1-1.5 1.3-3.6 1.2-7.3 1.1-11-.2-6.5-.8-13-1.2-19.5-.1-1.8 0-3.7 0-5.6.6.7 1 1.5 1.9 2 0-.3.1-.5.1-.6-.9-2.7-1.9-5.1-3.2-7.4zm-11.7 27.1c-1 1.2-1.8 1.1-2.7-.1l-.6-.6c-.2-.2-.4-.3-.6-.1-.6.8-1.4 1.5-1.7 2.4-.2.6.7 1 1.1 1.5.6 1 1.1.8 1.9 0 1.4-1.6 1.4-1.5 3.3-.3.4.3.7 1.1 1.4.5.6-.6 1.4-1.1 1.6-2.1-.2-.9-.8-1.5-1.5-1.9-1-.5-1.7.1-2.2.7zm-65.7-17.4c1.1-.9 2-2.2 3.7-2.4.5-.1.8-.7.4-1.1-.9-1-.9-2.2-1-3.4 0-.6-.3-.8-.9-.7-1.4.3-2.3 2.6-1.4 3.7.6.7.5 1.3-.1 1.9-1.8 1.8-3.8 3.3-6 4.6-.7.4-1.5.8-1.7 1.8.5-.2 1.1-.4 1.6-.7 2-.9 3.7-2.3 5.4-3.7zm1.7-6.2c.4 0 .4.4.4.6 0 .2 0 .6-.4.6-.3 0-.3-.4-.3-.7 0-.2 0-.4.3-.5zm17.5 35.8c1.1-.6 2.2-1.2 2.8-2.8-1.5.5-2.4 1.2-3.5 1.8-2 1.1-4 2.2-5.8 3.7-.3.2-.9.5-.5 1 .3.4.7-.1 1-.2.8-.3 1.5-1.1 2.5-1.1.3 1-.1 1.8-.2 2.7-.1.9-.3 1.8-.3 2.8.1 1.1.2 2.3 1.5 2.7.8.2 1.5-1 1.6-2.7-.6.2-.6 1.2-1.2 1-.6-.2-.7-1-.9-1.6-.7-2.8.6-5.9 3-7.3zm16.2-10.9c1 .1 1.1-.7.7-1.2-.8-.9-.7-1.9-.9-2.9-.1-.4-.1-1-.7-1-.6-.1-1 .2-1.3.7-.6 1-.4 2 .1 2.9.5.8.3 1.4-.2 2-1 1.1-2.2 2.2-3.4 3.2-2.1 1.8-4.3 3.4-6.3 5.4.4.2.6.1.8 0 3.5-2.3 6.9-4.8 9.6-8.1.4-.5.8-1.1 1.6-1zm-.9-3.1c-.1.3-.3.4-.6.3-.3-.1-.6-.3-.5-.7.1-.3.4-.2.6-.2.3.2.6.3.5.6zm15.7 17.4c-.2.1-.2.4-.4.9 2.6-.8 4.8-1.9 7.2-2.2.4-.1.8-.4.7-.9-.1-.5-.6-.4-.9-.4h-3.2c-.7 0-1.7-.1-1.8-1 0-.9.8-1.3 1.7-1.3.5 0 .9-.1 1.4-.2.3-.1.5-.2.5-.5 0-.4-.2-.6-.5-.7-1.3-.3-2.1.4-2.9 1.2-.8.8-1.8 1.5-1.6 2.9 0 0 0 .1.1.1.9.6.7 1.4-.3 2.1zm9.3 12.3c-.9 1.2-1.4 2.5-1.6 4 0 .3-.1.6-.4.6-.3 0-.3-.2-.4-.4-.5-1.3-1.5-2.2-2.5-3.1-.5-.4-1.1-1.2-1.7-.5-.5.6-.2 1.4.3 2 .3.3.6.6 1 .7.7.3 1.3.8 1.6 1.5.5.9 1 1.8 1.5 2.9.5-1.5.9-2.9 1.4-4.3.8-2.3 1-2.4 2.9-.9h.3c.2-.8.1-1.6-.3-2.4-.7-1.1-1.3-1.1-2.1-.1zm-37.1-59.3c-.6 0-.7.5-.9 1-.6 1.5-.8 3-1.1 4.7-.6-.2-.8-.6-1.1-1-.7-.7-1.4-1.5-2.3-2-.7-.4-1.4-.4-1.5.5-.1.9.3 1.8 1.2 1.9.8 0 1.1.5 1.5.9.6.7 1 1.4 1.4 2.2.2.3.2.8.7.7.5-.1.4-.5.5-.9.3-1.7.5-3.5.8-5.2.1-.7.3-1.1 1-.5.3.2.6.4.8 0 .2-.5.2-1-.1-1.5-.1-.3-.4-.8-.9-.8zm.6 47.3c0 .8 1.8 2.6 2.8 2.5 1.3-.1 1.1-1.4 1.5-2 0-1.1-1.4-2.5-2.5-2.5-.8 0-1.7 1-1.8 2zm8 .2c.1.9.3 2 1.5 2.1 1.1.1 1.3-.9 1.5-1.7.1-.3.5-.6.1-1-.1.1-.3.2-.4.4-.3.3-.4.9-.9.6-.4-.2-.7-.6-.7-1.1v-1.1c0-1.4.5-2.7.6-4.1-1.3 1.7-1.9 3.8-1.7 5.9zm14.6-63.9c-.6.7-1.5.7-2.3 1.5 1.6-.1 2.6-.5 3.6-1.2.4-.3 1-.7.7-1.4-.2-.6-.8-.8-1.3-.9-1.8-.3-3.3.3-4.5 1.7 1.2.5 2.5-.6 3.8.3zm5.2 34.4c-1 1.5-1.6 3.2-2.1 5-.3 1.1.3 2.2.8 3.1.2.4.6.4 1 .2.6-.3 1-.8 1.1-1.5 0-.3-.2-.5-.4-.4-1.9.2-1.4-1.2-1.3-2.2.2-1.4.9-2.7.9-4.2zm-43.3-.1c0-1.5.8-2.9.8-4.4-1.1 1.9-1.8 3.8-2 5.9-.1 1 .5 2.3 1.6 2.3s1.3-1.2 1.5-2.5c-.6.4-1 1-1.5.6-.5-.3-.4-1-.4-1.5-.1-.2 0-.3 0-.4zm52 18.1c-1.4-.4-2.9-.7-4.4.1-.3.1-.7.3-.6.7.1.4.5.2.8.3.6.1 1.6-.3 1.8.2.3.9-1 .7-1.4 1.6 1.5-.3 2.8-.7 3.8-1.7.5-.5.7-1 0-1.2zm-23.2-40.5c.4-.9.9-1.9 1.6-3-.8.3-1.1.7-1.4 1.1-.8 1.2-1.4 2.5-1.8 3.9-.4 1.2.1 2.7.9 2.7 1.2 0 1.3-1.1 1.6-2l-.2-.2c-.4.1-.8.8-1.2.4-.4-.3-.2-.9-.1-1.3.2-.5.4-1.1.6-1.6zm46.2 31.3c-.5-.3-.7-1-.7-1.6-.1-1 .3-1.8.6-2.7.3-.9.9-1.7.9-2.9-1.5 1.5-2.7 6.9-2 8.7.1.3.4.7.8.7s.6-.2.8-.5c.3-.7.6-1.5.9-2.3-.7-.2-.7 1-1.3.6zm-42.6-11.9c-1.5 1.6-2.2 3.5-2.3 5.7 0 .8.1 1.8 1.1 1.9.9.1 1.3-.8 1.5-1.6.1-.2 0-.4 0-.7-1 .7-1.5.5-1.6-.5 0-.4.1-.7.1-1.1.2-1.3.8-2.5 1.2-3.7zm8.1-10.5c.1.6.4 1.1 1 1.2.8 0 .9-.7 1.2-1.2.4-.7-.1-.8-.7-1-.6-.2-.6-.8-.6-1.3-.1-1.2.4-2.3.5-3.4-1.2 1.8-1.8 3.6-1.4 5.7zm-52.5 25.8c-.9-.2-1.5.4-1.7 1.1-.2 1.1.9.4 1.3.9-.4 1.6-1.7 2.9-2.1 4.6 1.4-1.4 2.3-3.1 3-4.9.5-.8.4-1.5-.5-1.7zm61.1-26.7c.1.7.3 1.7 1.3 1.5 1-.2 1.3-1 1.1-2-.6 0-.5.8-1 .5-.4-.2-.4-.6-.4-1-.1-1.3.1-2.7.2-4-.7 1.6-1.4 3.2-1.2 5zm-51.6 46.8c-.5-.3-1.1-.1-1.6.3-.3.2-.6.4-.6.8 2.6 1.4 0 3 .2 4.6 1.3-1.3 1.8-2.8 2.3-4.3.2-.5.3-1.1-.3-1.4zm43.9 12.8c-1.1-.4-1.3.9-1.8 1.7 1.6-.1 1.8.1 1.2 1.3-.4.8-.9 1.6-1.4 2.4 1.2-.7 1.9-1.7 2.3-3 .3-.8.7-2-.3-2.4zm-43.5-64.7c.4-.2.7-.6.8-1.2-1.6.2-1.4-.7-1.2-1.8.2-1.1.9-2 .9-3.4-1.5 1.9-1.8 3.9-1.6 5.9 0 .8.5.9 1.1.5zm-8.7 12.9c.9.5 1.6-.8 2.3-2.3-2 1.9-1.8.5-1.8-.4 0-.2.1-.5-.3-.6-.3 0-.5.2-.5.4-.1 1-.6 2.4.3 2.9zm25.2 19.3c.6-.8 1.3-1.5 1.5-2.5-.2-1.1-1.2-1.6-2-2.2-.6-.5-1.1-.4-1.6.2-1.3 1.6-1.3 1.6-3.2.5-.1 0-.2-.1-.2-.1-.5-.2-1-.8-1.5-.3-.7.6-1.4 1.3-1.6 2.2 0 .1.1.4.2.5.8.6 1.6 1.2 2.4 1.9.4.3.6 0 .9-.3.6-.6 1-1.8 1.8-1.8.8.1 1.5 1 2.3 1.5.2.1.4.3.6.4 0 .1.2.2.4 0zm-14.8 6.4c-.4-.8-1.1-1.4-.7-2.5.4-1 1.1-2 1-3.5-1.5 2.3-1.9 4.5-1.7 6.9 0 .4.2.8.7.9.6.2.9-.1 1.2-.4.5-.6.8-1.4.8-2.3-.2.3-.5.5-.7.8-.2.2-.4.5-.6.1z" style="fill:#fff"/></svg>
