<svg xmlns="http://www.w3.org/2000/svg" viewBox="0 0 251.9 250.7" style="enable-background:new 0 0 251.9 250.7" xml:space="preserve"><path style="fill:#bedbd7" d="M0 0h251.9v250.7H0z"/><path d="M251.9 25V0h-92.3l7.8 4.4H196l.1.2 14.2 24.5 7.8 4.5-16.8-29.1h25.5V25h20.6v25.4l-10-5.7-19.3-11 .4.6-.4-.6-6.8-3.9-6.1-3.5-12.3-7.1-13.6 13.5 5-18.5-3.7-2.1-2.3-1.3-10.8-6.2-7.8-4.6h-29.1l-5 18.6-5-18.6H92.2l-1.6.9-6.1 3.5-1.5.9-11.2 6.5-4.8 2.7L72 33 58.3 19.5l-16.8 9.6L55.8 4.5h28.6l1-.6L92.2 0H0v120.7l18.6 5-18.6 5v28.2l1 1.8 2.7 4.6.3.5.5.9 3.9 6.7 5.3 9.2.9 1.5 14.7-3.9 3.9-1-13.6 13.6.6 1.1 5 8.5 4.1 7.1-24.8-14.3v.1-28.5l-.5-.9-2.9-5-1-1.8v91.8h121.3l5-18.6 5 18.6h28.4l.4-.2.1-.1 2.6-1.5 3.7-2.1.3-.2.1-.1.4-.3 13.5-7.7 4-2.3-5-18.5 13.6 13.6 5.5-3.2 4-2.3 7.3-4.2-14.3 24.6h-28.6l-.4.3-.2.1-.3.2-3.7 2.1-2.6 1.5-.1.1-.4.2h92.2V130.1l-18.6-5 18.6-5V91.8l-2.8-4.9-.2-.4-.2-.3-.7-1.2 2.8 4.8 1.1 2V25zm-4.5-4.5h-16.1V4.4h16.1v16.1zm0 63.5.5.9-.5-.9zm0-28.4V84l-.4-.8-9.6-16.6-18.6 5L232.4 58l-1.7-3-1.7-2.9-6.2-10.8 24.6 14.3zm-53.7-30.9 15.5 8.9 2.6 1.5 3 1.8 6 10.3 5.9 10.1L210 73.9l-39.2 10.4-3.1.8-2 .5-.5.1-.4.1 12-44.7 16.9-16.4zM183 116.2l33 8.8-39.9 10.6-10.8-10.8 10.6-10.5-2.8-.8 2.3.6.3.1h.2l7.1 2zM77.4 141.4l14.8 3.9-3.9 14.4 4.2-1.1-11.3 3-32.9 8.8 29.1-29zm-1.3-5-7.2-1.9-32.9-8.7 39.9-10.6L86.7 126l-10.6 10.4zm20.8 25.7 9.9-2.6 3.9 14.4-29.3 29.2L92 163.4l4.9-1.3zM110 154l-16.6 4.4.2-.8 4.1-15.4-16.6-4.4L93 125.9l-12.2-12.1 16.3-4.3-4.5-16.6-.2-.8-1.1-4.2-1.9-7.1L80.6 48l29.2 29.1-4 14.7-14.5-3.9 1.1 4.2.2.8.9.2 15.5 4.1 4.5-16.5 12 11.9 12.2-12.1 4.4 16.2 16.6-4.4-.2.8-4.2 15.4 16.6 4.4-11.9 11.9 12.2 12.1-16.3 4.3 4.5 16.6-.8-.2-15.5-4.1-4.4 16.5-12-11.9-12.2 12.1L110 154zm31.3-77.2 29.3-29.2 1.5-5.5-1.5 5.5-2.7 10.1-8 29.6-14.8 4-3.8-14.5zm4.8 82.2 14.5 3.9 1.9 7.1 8.8 32.8-29.2-29 4-14.8zm14.1-14.5 14.5-3.9 29.4 29.2-39.9-10.6-4-14.7zm14.3-35.2-14.8-4 3.9-14.4 7.2-1.9 32.9-8.8-29.2 29.1zM134 4.5h24.5L179 16.3l-5.4 19.8-.2.6-.6 2.2-33 32.8L129.4 33l-1.6-5.9L134 4.5zM87.8 7.7l5.7-3.2h23.7l5.4 19.9 3.1 11.5 10.7 39.7-10.8 10.8L115 75.8l1.9-7.1 8.8-32.8-2.3-8.6-10.5 39-1.6 5.9-33-32.8-6.1-22.7 15.6-9zm-13.5 34 10.5 39 1.4 5.1.2.8-44.9-12L24.8 58l9-15.5 3.3-5.6 20.5-11.8 16.7 16.6zM4.5 3.9h16.2v17.3H4.5V3.9zm0 46.5V25.6h20.6V4.5h25.6L33.8 33.6l-3.9 6.8-2.2 3.8-8.5 14.6 13.6 13.5-18.6-5L1.9 88.9l2.6-4.6V55.6l.2-.1 24.6-14.1 4.5-7.7L4.5 50.4zm0 67V93l7.2-12.4 4.7-8 19.9 5.3.2.1 2.7.7 8.7 2.3 39.9 10.6 1.1 4.3 2.8 10.4-14.5 3.9-29.3-29.3-8.7-2.3 33 32.9-44 11.7-.9.2-4.9-1.3-17.9-4.7zm12.2 61.5-9-15.4-3.3-5.7v-23.6l19.9-5.3 2.9-.8 39.2 10.4 5.9 1.6-32.8 32.7-22.8 6.1zm25.2-2.1 39.2-10.5 5.1-1.3.8-.2-12 44.7-16.7 16.6-15.5-8.9-5.7-3.3-11.9-20.4 16.7-16.7zm-21.3 69.5H4.5v-16.1h16.1v16.1zm63.9 0H55.8l-.1-.2-14.2-24.5-.9-.6-6.8-3.9 16.9 29.1H25.1v-20.5H4.5v-25.4l29.3 16.8-6.8-11.7 2.3 4 4.5 7.7 2.4 1.4 4.4 2.5.9.6 6.9 4 7.8 4.5 2.8 1.6 13.6-13.6-2.8 10.4-2.2 8.2 4.6 2.6 12.3 7 4.6 2.7-4.6-2.7zm39.5-22.7-2.3 8.7-3.8 14H93.4l-14.7-8.5-5.8-3.3 5.4-19.9.8-2.8 33-32.9 5.6 20.8 6.3 23.9zm-8.3-48.4 10.8-10.8 10.6 10.6-1.9 7.1-8.8 32.8-10.7-39.7zm48.5 67.8-5.7 3.3h-23.7l-5.3-19.8-.8-2.9 10.5-39 1.6-5.9 32.9 32.7 6.1 22.7-15.6 8.9zm30.1-17.3L177.6 209l-10.5-39-1.3-5.1-.2-.8 44.9 12 16.7 16.6-9 15.5-3.3 5.6-20.6 11.9zm53.1 21.2h-16.1v-17.3h16.1v17.3zm0-21.8h-20.6v21.1h-25.5l16.9-29.1 29.3-16.8v24.8zm0-58.4v28.5l-.2.1-24.6 14.1-.6 1-.7 1.2.7-1.2.6-1 .3-.5 9.6-16.5.2-.3-13.6-13.6 8.6 2.3 5 1.3 5 1.3 5.1-8.7 4.6-8 2.2-3.9-2.2 3.9zm.1-33.3v24.4l-11.9 20.5-19.9-5.3-2.9-.8-33-32.9 44.9-12 22.8 6.1zm0-16.8-20 5.3-2.9.8-3 .8 2.9-.8-24.5-6.5-14.6-3.9-2.2-.6-3.8-1L212.2 78l13.7-3.7 9.1-2.4 9 15.5 1 1.7 2.3 3.9v23.6z" style="fill:#b4d1cc"/></svg>