<svg xmlns="http://www.w3.org/2000/svg" viewBox="0 0 95.1 95.1" style="enable-background:new 0 0 95.1 95.1" xml:space="preserve"><path d="M0 0h95.1v95.1H0V0z" style="fill:#225a71"/><path d="m88.1 47.4 7-1.9V0H49.3l-1.9 7-1.9-7H0v45.8l7.1 1.9L0 49.6v45.5h45.8l1.9-7 1.9 7h45.5V49.3l-7-1.9zm5.4-3.2-7.5 2-1.1.3-17-4.6 12.4-12.4 5.2-1.4 3.4-.9 3.4 5.9.4.7.9 1.5v8.9zm-7.7 28.9L82.4 79l-1.2 2.1-7.8 4.5-6.3-6.3-4-14.8-.5-1.9-.1-.3 16.9 4.5 6.4 6.3zm-3.1-5.4 3.3.9 1.9.5 1.9.5 1.9-3.3 1.7-3v10.6h-.1l-9.2 5.3 3.8-6.4-5.2-5.1zM32 30.6l.5 1.9.1.3-16.9-4.5L9.4 22l3.4-5.9L14 14l7.8-4.5 6.3 6.3L32 30.6zm-1.5-12.4 11 11-1.5 5.6-5.5-1.5-.7-2.7-3.3-12.4zm2.6 16.5.4 1.6 1.1 4-5.5 1.5-11-11.1 15 4zm-.4 13.1-4 4L26 51l-12.4-3.3 15.1-4 4 4.1zm-3.4 5.9 5.6 1.5-1.5 5.5-2.7.7-12.4 3.3 11-11zm1.3 9.4 1.9-.5.3-.1-4.5 16.9-6.3 6.4-5.9-3.4-2.1-1.3-4.5-7.8 6.3-6.3 14.8-3.9zm4.2-1.1 1.9-.5 3.7-1 1.5 5.5-11.2 11.1L34.8 62zm6.7-3.6-6.3 1.7.1-.3 1.6-5.9-6.3-1.7 4.5-4.5-4.6-4.6 6.2-1.6-1.7-6.3 6.2 1.7 1.7-6.3 4.5 4.5 4.6-4.6 1.7 6.2L60 35l-.1.3-1.6 5.8 6.3 1.7-4.6 4.6 4.6 4.6-6.2 1.6 1.7 6.3-.3-.1-5.8-1.6-1.7 6.3-4.5-4.5-4.6 4.6-1.7-6.2zm44.1-36.7L79.3 28l-14.8 4-1.2.3-.7.2-.2.1h-.1l4.5-17 6.3-6.3 5.9 3.4 1 .6 1.1.7 2.3 3.9 2.2 3.8zm-1.5-5.9 9.2 5.3h.1v10.6l-.2-.3-3.6-6.3-7 1.9 5.2-5.1-3.7-6.1zm-7.2 14.7-11 11-5.6-1.5 1.5-5.5 2.7-.7 12.4-3.3zm-13.5-8.6-3 11.2-5.6 1.5-1.5-5.5L64.4 18l-1 3.9zm-8.2 38.4 5.5 1.5.7 2.7 3.3 12.4-11-11 1.5-5.6zm6.8.1-1.5-5.6 5.5-1.5 11.1 11.1-15.1-4zm.4-13 4-4 15.1 4-15.1 4-4-4zm25-45.7h6.1v6.5h-6.1V1.7zm-1.7 0v8.2h7.8v9.4l-11-6.3-6.6-11.3h9.8zM74 1.7l5.4 9.5-6.6-3.9-5.1 5.1 1.9-7-1.4-.8-.9-.5-4.1-2.4H74zm-23.4 0h9.2l7.8 4.5-2 7.5-.1.3-.2.8-12.4 12.5L49 12.6l-.6-2.2 2.2-8.7zm-3.2 11.9 4 15.1-4.1 4.1-4-4 .7-2.7 3.4-12.5zM35.3 1.7h9l2.3 8.6-4 14.8-.6 2.3-12.4-12.5-2.3-8.6 5.9-3.4 2.1-1.2zm-3.4 0zm0 0-.6.3-4.2 2.4-1.8 1 1.9 7-5.1-5.1-6.3 3.7 5.4-9.4h10.7zm-30.2 0h6.1v6.5H1.7V1.7zm0 8.2h7.8V1.7h9.7l-6.4 11-.1.2-11 6.3V9.9zm0 11.3 9.3-5.4-.5.9-3.2 5.5 5.1 5.1-7-1.9L1.7 32V21.2zm0 23.3v-9.2l2.7-4.7 1.8-3 8.6 2.3 12.5 12.5-16.6 4.4-.3.1-1.8-.5-6.9-1.9zm0 6.4 7.5-2 1.1-.3 14.8 4 2.2.6L15 65.6l-8.6 2.3L3 62l-1.2-2.2-.1-8.9zm0 12.3 1.5 2.6 2 3.5.3.6 5.5-1.5 1.5-.4-5.1 5.2.2.4 3.3 5.8L1.8 74h-.1V63.2zm6.1 30.2H1.7v-6.5h6.1v6.5zm1.6 0v-8.2H1.7v-9.4l11 6.3.1.2 6.4 11H9.4zm11.7 0-5.4-9.3 2.6 1.5 2.9 1.7 1.1.6 5.1-5.1-1.1 3.9-.8 3.1 1.7 1 4.6 2.7H21.1zm25.7-8.6-.8 3.3-1.4 5.3h-9.2l-5.6-3.2-2.3-1.2 2-7.5.3-1.1 12.5-12.5 2.1 7.9 2.4 9zm-3.1-18.3 4.1-4.1 4 4-.7 2.7-3.3 12.4-4.1-15zm16.2 26.9h-9l-2-7.5-.3-1.1 4-14.8.6-2.2 12.4 12.4 2.3 8.6-5.9 3.4-2.1 1.2zm3.4 0 5.1-2.9 1.5-.9-1.9-7 5.1 5.2 6.3-3.8-5.4 9.4H63.3zm30.1 0h-6.1v-6.5h6.1v6.5zm0-8.2h-7.8v8.2h-9.7l6.5-11.2 11-6.3v9.3zm.1-34.6v9.3L89 67.6l-7.5-2-1.1-.3-12.5-12.5 16.9-4.5 8.7 2.3z" style="fill:#1a546d"/></svg>