<svg viewBox="0 0 187.1 171.5" xml:space="preserve" xmlns="http://www.w3.org/2000/svg"><path d="M187.1 85.7v-.2c-.1-7-1.3-16.4-5.3-26-10.3-24.2-34.4-38.6-61.7-37.3-1.1.1-2.3 0-3.8 0 1-7.3-4.1-10-9.4-13C102.5 6.8 96.6 3 93.7 0c-5.3 5-9.6 6.9-14.4 9.7-4.9 2.9-9.7 5.6-8.4 12.8-12.1-.8-23.7.5-34.6 5.6-19.5 9-31.1 24.2-35.1 45.2C.4 77.8 0 81.9 0 85.7c0 3.8.4 8 1.2 12.4 4.1 21 15.7 36.2 35.1 45.2 10.9 5.1 22.5 6.4 34.6 5.6-1.2 7.2 3.5 9.9 8.4 12.8 4.8 2.8 9.1 4.6 14.4 9.7 2.8-3 8.7-6.8 13.2-9.3 5.3-2.9 10.3-5.6 9.4-13h3.8c27.2 1.3 51.3-13.1 61.7-37.3 4-9.6 5.1-19 5.3-26v-.1zM84.6 10.8c2.8-2 6-3.6 8.9-5.4 17 8 17.6 16.6-.2 26.7-3-2.2-6.2-4.2-9.2-6.6-5.2-4.3-5-10.9.5-14.7zm9 155.3c-3-1.8-6.1-3.4-8.9-5.4-5.5-3.9-5.7-10.5-.4-14.7 3-2.4 6.2-4.5 9.2-6.6 17.6 10.1 17.1 18.8.1 26.7zm43.2-24.9c2.2-6.1-1.5-9.1-8.6-8.8.7 7.3-.9 9.2-8.6 9.6-10.2.5-18.9-2.8-26-10.6-7.9 8.2-17.3 11.5-28.2 10.4-6.7-.7-8-2.6-6.5-9.1-6.9-1-11.5 2.5-9 8.8C27.3 137.9 3 116.7 2.8 85.9c.2-30.8 24.5-52 47.1-55.6-2.5 6.3 2.1 9.8 9 8.8-1.4-6.6-.2-8.4 6.5-9.1 10.9-1.1 20.3 2.2 28.2 10.4 7-7.9 15.8-11.1 26-10.6 7.7.4 9.4 2.3 8.6 9.6 7.1.3 10.8-2.7 8.6-8.8 25.8 3.5 46.5 27.1 47.4 54.2v2.4c-.9 26.9-21.5 50.5-47.4 54z" fill="#7ec7b2"/></svg>