<svg width="894.182" height="894.182" viewBox="0 0 670.637 670.637" version="1.2" xmlns="http://www.w3.org/2000/svg"><path style="fill:#7dc5b0;fill-opacity:1;fill-rule:nonzero;stroke:none" d="M374.73 710.05c-89.523 0-173.824-34.847-237.082-98.237-63.39-63.258-98.234-147.555-98.234-237.083 0-89.523 34.844-173.824 98.234-237.082 63.258-63.39 147.559-98.234 237.082-98.234 89.528 0 173.825 34.844 237.082 98.234 63.391 63.395 98.239 147.559 98.239 237.082 0 89.528-34.848 173.825-98.239 237.083-63.257 63.39-147.554 98.238-237.082 98.238zm0-650.534c-84.164 0-163.37 32.836-222.875 92.34-59.503 59.503-92.34 138.71-92.34 222.874 0 84.165 32.837 163.372 92.34 222.875 59.504 59.508 138.711 92.34 222.875 92.34 84.165 0 163.372-32.832 222.875-92.34 59.508-59.503 92.34-138.71 92.34-222.875 0-84.164-32.832-163.37-92.34-222.875-59.503-59.503-138.71-92.34-222.875-92.34Zm0 0" transform="translate(-39.414 -39.414)"/></svg>