<svg xmlns="http://www.w3.org/2000/svg" viewBox="0 0 320 320" style="enable-background:new 0 0 320 320" xml:space="preserve"><path style="fill:#7dc5b0" d="m14.4 153 9.8 3.1-9.8 3.1v1.6l9.8 3.1-9.8 3.1v2.3l14-4.6v-1.6l-9.8-3.1 9.8-3.1v-1.6l-14-4.6zm279.9 4.6h4v6.4h2.1v-6.4h3.7v7h2.1v-9.3h-14v9.4h2.1zm-131-143v9.7l-7.4-9.7h-1.6v14h2.3V19l7.4 9.6h1.7v-14zm-3.4 277.5c1.1 0 2 .2 2.8.6s1.5 1 2.1 1.8l-1.6 1.6c-.4-.6-.8-1-1.4-1.3-.5-.3-1.2-.5-2-.5s-1.4.2-1.8.5-.7.8-.7 1.3.1.8.4 1.1c.2.3.6.5 1 .7s.8.4 1.3.5c.5.2.9.3 1.4.5s.9.4 1.3.7.7.7 1 1.1c.2.5.4 1.1.4 1.8 0 .8-.2 1.5-.6 2.1-.4.6-1 1-1.7 1.3s-1.5.5-2.3.5c-.9 0-1.7-.2-2.5-.5-.7-.4-1.3-.8-1.8-1.4l1.6-1.6c.4.5.8.8 1.3 1 .4.2.9.3 1.5.3.7 0 1.2-.1 1.6-.4.4-.3.6-.7.6-1.2 0-.4-.1-.8-.4-1-.2-.3-.6-.5-.9-.7-.4-.2-.8-.3-1.3-.5s-.9-.3-1.4-.5-.9-.5-1.3-.8c-.4-.3-.7-.7-1-1.2-.2-.5-.4-1.1-.4-1.9 0-1.3.4-2.2 1.3-3 .8-.5 2-.9 3.5-.9z"/><path d="M160 0C71.8 0 0 71.8 0 160s71.8 160 160 160 160-71.8 160-160S248.2 0 160 0zm1.4 316.6v-8.1h-2.9v8.1c-85.2-.8-154.4-70-155.2-155.2h8.1v-2.9h-8C4.1 73.3 73.3 4.1 158.6 3.4v8.1h2.9V3.4c85.2.8 154.4 70 155.2 155.2h-8.1v2.9h8.1c-.8 85.2-70 154.4-155.3 155.1z" style="fill:#173f4f"/></svg>