<svg xmlns="http://www.w3.org/2000/svg" viewBox="0 0 56.2 50.3" style="enable-background:new 0 0 56.2 50.3" xml:space="preserve"><path d="M44.5 49.3H11.6C5.8 49.3 1 44.2 1 38V12.3C1 6.1 5.8 1 11.6 1h4.2c.9 0 1.7.3 2.4.9l3.9 3.2 22.3-.2c5.9 0 10.6 5 10.6 11.2V38c.1 6.2-4.6 11.3-10.5 11.3z" style="fill:#eaeaea"/><path d="M32.6 22.5h4.6c.5 0 .7.6.4.9-1.9 1.9-6.3 6.5-8.4 8.6-.8.8-1.4.8-2.2.1-2.1-2.1-6.6-6.7-8.5-8.6-.3-.3-.1-.9.4-.9h4.7v-5.9c0-1.8 1.4-3.2 3.2-3.2h2.9c1.7 0 3 1.4 3 3v5.3c-.1.2-.1.4-.1.7z" style="fill:#7dc5b0"/><path d="M28.1 33.6c-.6 0-1.2-.3-1.7-.8-2.3-2.2-7.1-7.2-8.6-8.6-.4-.4-.5-1.1-.3-1.6.2-.6.8-.9 1.4-.9h3.7v-5c0-2.3 1.9-4.1 4.1-4.1h2.9c2.2 0 3.9 1.8 4 4v5.2h3.7c.6 0 1.1.4 1.4.9.2.5.1 1.2-.3 1.6-1.4 1.5-6.2 6.4-8.4 8.6-.7.4-1.3.7-1.9.7zm-8.3-10.1c1.9 1.9 5.9 6 7.9 7.9.3.3.4.3.4.3s.1 0 .5-.3c2-2 5.9-6 7.8-7.9h-4.7v-7c0-1.2-.9-2.1-2.1-2.1h-2.9c-1.2 0-2.2 1-2.2 2.2v6.9h-4.7zm17.2-.7z" style="fill:#173f4f"/><path d="M12.7 31.1h5v2.3c0 1.4.8 2.4 2 2.7.3.1.5.1.8.1h15.1c1.7 0 2.8-1 2.8-2.8v-2.3h5c.4 3.7-.1 6.9-3.8 9.2-1.2.8-2.6 1.1-4.1 1.1H20.4c-4.1 0-7.2-2.6-7.8-6.6-.1-1.2.1-2.5.1-3.7z" style="fill:#7dc5b0"/><path d="M26.8 42.3h-6.3c-4.6 0-8.1-2.9-8.8-7.4-.1-.9-.1-1.8-.1-2.6v-2.1h6.9v3.3c0 .7.2 1.6 1.3 1.8h15.7c1.2 0 1.9-.6 1.9-1.8v-3.3h6.8l.1.8c.3 3.5.1 7.4-4.2 10.1-1.3.8-2.8 1.2-4.6 1.2h-8.7zM13.6 32v.3c0 .8-.1 1.6 0 2.3.6 3.6 3.2 5.8 6.9 5.8h15.1c1.4 0 2.6-.3 3.6-.9 3-1.9 3.6-4.3 3.4-7.5h-3.2v1.4c-.1 2.2-1.5 3.7-3.8 3.7H20.5c-.3 0-.6 0-1-.1-1.7-.4-2.7-1.8-2.7-3.6V32h-3.2z" style="fill:#173f4f"/><path d="M44.5 50.3H11.6C5.2 50.3 0 44.8 0 38V12.3C0 5.5 5.2 0 11.6 0h4.2c1.1 0 2.2.4 3.1 1.1l3.6 3 21.9-.2c6.4 0 11.7 5.5 11.7 12.3V38c.1 6.8-5.2 12.3-11.6 12.3zM11.6 2C6.3 2 2 6.6 2 12.3V38c0 5.6 4.3 10.2 9.6 10.2h32.9c5.3 0 9.6-4.6 9.6-10.2V16.2c0-5.6-4.3-10.2-9.6-10.2l-22.7.1-4.2-3.4c-.5-.4-1.1-.7-1.8-.7h-4.2z" style="fill:#173f4f"/></svg>