<svg xmlns="http://www.w3.org/2000/svg" viewBox="0 0 33.6 38.3" style="enable-background:new 0 0 33.6 38.3" xml:space="preserve"><path style="fill:#eaeaea" d="M9.9 9.2V1.8L2.5 9.2z"/><path style="fill:#eaeaea" d="M29.3 1.3H11.2v8.4c0 .5-.4.9-.9.9H1.4v23.8c0 1.5 1.3 2.8 2.9 2.8h25.1c1.6 0 2.9-1.2 2.9-2.8V4c0-1.5-1.4-2.7-3-2.7z"/><path style="fill:#7dc5b0" d="M29.3 0H10.5c-.4 0-.7.1-.9.4L.4 9.5c-.3.3-.4.6-.4 1v23.8c0 2.2 1.9 4 4.3 4h25.1c2.4 0 4.3-1.8 4.3-4V4c-.1-2.2-2-4-4.4-4zM9.9 1.8v7.4H2.5l7.4-7.4zm22.4 32.5c0 1.5-1.3 2.8-2.9 2.8H4.3c-1.6 0-2.9-1.2-2.9-2.8V10.5h8.9c.5 0 .9-.4.9-.9V1.3h18.2c1.6 0 2.9 1.2 2.9 2.8v30.2z"/><path transform="rotate(-180 16.798 27.426)" style="fill:#173f4f" d="M8.4 26.8h16.9V28H8.4z"/><path transform="rotate(-180 16.798 30.622)" style="fill:#173f4f" d="M8.4 30h16.9v1.2H8.4z"/><path style="fill:#7dc5b0" d="M19.3 19.4h2.5c.3 0 .4.3.2.5-1 1.1-3.4 3.5-4.6 4.6-.4.4-.8.4-1.2 0-1.2-1.1-3.6-3.6-4.6-4.7-.2-.2-.1-.5.2-.5h2.5v-4.5c0-.3.2-.5.5-.5h4c.2 0 .4.2.4.4v4.1c.1.4.1.5.1.6z"/></svg>