<svg xmlns="http://www.w3.org/2000/svg" xmlns:xlink="http://www.w3.org/1999/xlink" viewBox="0 0 320 320" style="enable-background:new 0 0 320 320" xml:space="preserve"><circle cx="160" cy="160" r="44.1" style="fill:#173f4f"/><path d="M174.8 155.3 160 115.9l-14.7 38.9c-1.2 3.1-1.4 6.6-.4 9.7 0 .1 0 .2.1.2 2.2 6.6 8.6 11.2 15.5 11 8.5-.3 15.2-7.2 15.2-15.8 0-1.6-.3-3.1-.9-4.6zm-14.2 8.6c-2.6.4-4.9-1.8-4.5-4.5.3-1.6 1.6-3 3.2-3.2 2.6-.4 4.9 1.8 4.5 4.5-.2 1.6-1.5 2.9-3.2 3.2z" style="fill:#7dc5b0"/><defs><path id="a" d="M138.2 49h43.7v43.7h-43.7z"/></defs><clipPath id="b"><use xlink:href="#a" style="overflow:visible"/></clipPath><path d="m160 49-21.8 6v35.2l21.8 2.4 21.8-2.4V55L160 49z" style="clip-path:url(#b)"/><path d="M138.2 69.4v3.7l.7-.1v-3.8l-.7.2zM158 66v4.2l2-.3v-4.3l-2 .4zm-15.9 2.7v3.8l4-.6V68l-4 .7zm7.4-1.3v4l5.1-.7v-4.1l-5.1.8zm6.4-.1c0-.6.2-1 .4-1s.4.4.4.9v.1c.3.3.4.8.4 1.3 0 .6-.2 1.2-.5 1.4-.1.2-.2.4-.3.4s-.3-.2-.3-.4c-.3-.2-.5-.8-.5-1.4 0-.5.1-1 .4-1.3zm-8.5 1.3c0-.6.2-1 .4-1s.4.4.4.9v.1c.3.3.4.8.4 1.3 0 .6-.2 1.2-.5 1.4-.1.2-.2.4-.3.4s-.3-.2-.3-.4c-.3-.2-.5-.8-.5-1.4 0-.5.1-1 .4-1.3zm-7.3 1.3c0-.5.2-.9.4-.9s.4.4.4.9c.2.2.4.7.4 1.2 0 .6-.2 1.1-.4 1.3-.1.2-.2.4-.3.4s-.2-.2-.3-.4c-.3-.2-.4-.7-.4-1.3-.2-.5 0-1 .2-1.2zm-1.9-7.4v4.3l21.8-4v-4.6z" style="fill:#ffab30"/><path d="m160 92.7 21.8-2.4V55.1L160 49v43.7z" style="fill:#282e30"/><path d="M165.4 66.6v4.1l5.1.7v-4l-5.1-.8zm8.5 1.4v3.9l4 .6v-3.8l-4-.7zM160 65.7V70l2 .3V66l-2-.3zm21.8 3.7-.7-.1V73l.7.1v-3.7zm-17.7-2.1c0-.6-.2-1-.4-1s-.4.4-.4.9v.1c-.3.3-.4.8-.4 1.3 0 .6.2 1.2.5 1.4.1.2.2.4.3.4s.3-.2.3-.4c.3-.2.5-.8.5-1.4 0-.5-.1-1-.4-1.3zm8.5 1.3c0-.6-.2-1-.4-1s-.4.4-.4.9v.1c-.3.3-.4.8-.4 1.3 0 .6.2 1.2.5 1.4.1.2.2.4.3.4s.3-.2.3-.4c.3-.2.5-.8.5-1.4 0-.5-.1-1-.4-1.3zm7.3 1.3c0-.5-.2-.9-.4-.9s-.4.4-.4.9c-.2.2-.4.7-.4 1.2 0 .6.2 1.1.4 1.3.1.2.2.4.3.4s.2-.2.3-.4c.3-.2.4-.7.4-1.3.2-.5 0-1-.2-1.2zM160 58.2v4.6l21.8 4v-4.2L160 58.2z" style="fill:#ffd982"/></svg>