<svg xml:space="preserve" width="43.6" height="43.7" xmlns="http://www.w3.org/2000/svg"><defs><path id="a" d="M138.2 49h43.7v43.7h-43.7z"/></defs><path d="M21.8 43.7 0 41.3V6.1L21.8 0Z" style="fill:#00000f;fill-opacity:1"/><path d="M0 20.4v3.7l.7-.1v-3.8ZM19.8 17v4.2l2-.3v-4.3ZM3.9 19.7v3.8l4-.6V19Zm7.4-1.3v4l5.1-.7v-4.1zm6.4-.1c0-.6.2-1 .4-1s.4.4.4.9v.1c.3.3.4.8.4 1.3 0 .6-.2 1.2-.5 1.4-.1.2-.2.4-.3.4-.1 0-.3-.2-.3-.4-.3-.2-.5-.8-.5-1.4 0-.5.1-1 .4-1.3zm-8.5 1.3c0-.6.2-1 .4-1s.4.4.4.9v.1c.3.3.4.8.4 1.3 0 .6-.2 1.2-.5 1.4-.1.2-.2.4-.3.4-.1 0-.3-.2-.3-.4-.3-.2-.5-.8-.5-1.4 0-.5.1-1 .4-1.3zm-7.3 1.3c0-.5.2-.9.4-.9s.4.4.4.9c.2.2.4.7.4 1.2 0 .6-.2 1.1-.4 1.3-.1.2-.2.4-.3.4-.1 0-.2-.2-.3-.4-.3-.2-.4-.7-.4-1.3-.2-.5 0-1 .2-1.2zM0 13.5v4.3l21.8-4V9.2Z" style="fill:#ffab30"/><path d="m21.8 43.7 21.8-2.4V6.1L21.8 0Z" style="fill:#282e30"/><path d="M27.2 17.6v4.1l5.1.7v-4zm8.5 1.4v3.9l4 .6v-3.8Zm-13.9-2.3V21l2 .3V17Zm21.8 3.7-.7-.1V24l.7.1zm-17.7-2.1c0-.6-.2-1-.4-1s-.4.4-.4.9v.1c-.3.3-.4.8-.4 1.3 0 .6.2 1.2.5 1.4.1.2.2.4.3.4.1 0 .3-.2.3-.4.3-.2.5-.8.5-1.4 0-.5-.1-1-.4-1.3zm8.5 1.3c0-.6-.2-1-.4-1s-.4.4-.4.9v.1c-.3.3-.4.8-.4 1.3 0 .6.2 1.2.5 1.4.1.2.2.4.3.4.1 0 .3-.2.3-.4.3-.2.5-.8.5-1.4 0-.5-.1-1-.4-1.3zm7.3 1.3c0-.5-.2-.9-.4-.9s-.4.4-.4.9c-.2.2-.4.7-.4 1.2 0 .6.2 1.1.4 1.3.1.2.2.4.3.4.1 0 .2-.2.3-.4.3-.2.4-.7.4-1.3.2-.5 0-1-.2-1.2zM21.8 9.2v4.6l21.8 4v-4.2z" style="fill:#ffd982"/></svg>
