<?xml version="1.0" encoding="UTF-8"?>
<svg width="320px" height="320px" version="1.2" viewBox="0 0 320 320" xmlns="http://www.w3.org/2000/svg">
 <defs>
  <clipPath id="clip1">
   <path d="m306.65 359.66h136.32v136.31h-136.32z"/>
  </clipPath>
  <clipPath id="clip2">
   <path d="m374 359.66h68.969v136.31h-68.969z"/>
  </clipPath>
  <clipPath id="clip3">
   <path d="m374 411h68.969v24h-68.969z"/>
  </clipPath>
  <clipPath id="clip4">
   <path d="m306.65 411h68.348v24h-68.348z"/>
  </clipPath>
  <clipPath id="clip5">
   <path d="m306.65 388h68.348v47h-68.348z"/>
  </clipPath>
  <clipPath id="clip6">
   <path d="m374 388h68.969v28h-68.969z"/>
  </clipPath>
 </defs>
 <g transform="matrix(.3387 0 0 .3387 33.052 -121.84)">
  <g>
   <g clip-path="url(#clip1)">
    <path d="m374.81 359.66-68.156 18.934v109.81l68.156 7.5703 68.16-7.5703v-109.81z"/>
   </g>
   <g clip-path="url(#clip2)">
    <path d="m374.81 495.98 68.16-7.5703v-109.81l-68.16-18.934z" fill="#282e30"/>
   </g>
   <g clip-path="url(#clip3)">
    <path d="m391.68 414.59v12.902l16.012 2.3164v-12.516zm26.504 4.4727v12.266l12.492 1.8086v-11.969zm-43.371-7.3125v13.301l6.375 0.92187v-13.148zm68.16 11.492-2.043-0.34375v11.723l2.043 0.29687z" fill="#ffd982"/>
   </g>
   <g clip-path="url(#clip4)">
    <path d="m306.65 423.25v11.676l2.043-0.29687v-11.723zm61.785-10.418v13.148l6.3711-0.92187v-13.301zm-49.488 8.3438v11.969l12.492-1.8086v-12.266zm22.984-3.875v12.516l16.012-2.3164v-12.902z" fill="#ffab30"/>
   </g>
  </g>
  <path d="m387.64 416.96v-0.15625c0-1.5938-0.54297-2.8906-1.2148-2.8906-0.66797 0-1.2109 1.2969-1.2109 2.8906v0.15625c-0.78516 0.82422-1.3438 2.3516-1.3438 4.1797 0 1.9414 0.61328 3.5898 1.4883 4.3594 0.24219 0.73828 0.61719 1.25 1.0664 1.25 0.45312 0 0.82812-0.51172 1.0703-1.25 0.875-0.76953 1.4883-2.418 1.4883-4.3594-4e-3 -1.8281-0.55859-3.3555-1.3438-4.1797zm26.5 4.0508v-0.16015c0-1.5938-0.54297-2.8906-1.2109-2.8906-0.67187 0-1.2109 1.2969-1.2109 2.8906v0.16015c-0.78907 0.82031-1.3477 2.3516-1.3477 4.1758 0 1.9414 0.61328 3.5938 1.4883 4.3594 0.24219 0.73828 0.61719 1.25 1.0703 1.25 0.44922 0 0.82422-0.51172 1.0664-1.25 0.875-0.76563 1.4883-2.418 1.4883-4.3594 0-1.8203-0.55469-3.3516-1.3438-4.1758zm22.781 3.8984v-0.14844c0-1.4883-0.50391-2.6953-1.1289-2.6953s-1.1328 1.207-1.1328 2.6953v0.14844c-0.73437 0.76953-1.2539 2.1953-1.2539 3.8984 0 1.8164 0.57031 3.3555 1.3906 4.0742 0.22266 0.6914 0.57422 1.168 0.99609 1.168 0.41797 0 0.76563-0.47656 0.9961-1.168 0.8125-0.71485 1.3867-2.2578 1.3867-4.0742 0-1.7031-0.51563-3.1289-1.2539-3.8984z" fill="#ffd982"/>
  <g clip-path="url(#clip5)">
   <path d="m361.98 416.96v-0.15625c0-1.5938 0.54297-2.8906 1.2148-2.8906 0.66796 0 1.2109 1.2969 1.2109 2.8906v0.15625c0.78516 0.82422 1.3438 2.3516 1.3438 4.1797 0 1.9414-0.61328 3.5898-1.4883 4.3594-0.24219 0.73828-0.61719 1.25-1.0664 1.25-0.45313 0-0.82813-0.51172-1.0703-1.25-0.875-0.76953-1.4883-2.418-1.4883-4.3594 4e-3 -1.8281 0.5586-3.3555 1.3438-4.1797zm-26.5 4.0508v-0.16015c0-1.5938 0.54297-2.8906 1.2109-2.8906 0.67187 0 1.2109 1.2969 1.2109 2.8906v0.16015c0.78906 0.82031 1.3476 2.3516 1.3476 4.1758 0 1.9414-0.61718 3.5938-1.4883 4.3594-0.24219 0.73828-0.61719 1.25-1.0703 1.25-0.44922 0-0.82422-0.51172-1.0664-1.25-0.875-0.76563-1.4883-2.418-1.4883-4.3594 0-1.8203 0.55469-3.3516 1.3438-4.1758zm-22.781 3.8984v-0.14844c0-1.4883 0.50391-2.6953 1.1289-2.6953s1.1328 1.207 1.1328 2.6953v0.14844c0.73438 0.76953 1.2539 2.1953 1.2539 3.8984 0 1.8164-0.57032 3.3555-1.3906 4.0742-0.22265 0.6914-0.57422 1.168-0.99609 1.168-0.41797 0-0.76953-0.48046-1-1.168-0.8125-0.71485-1.3867-2.2578-1.3867-4.0742 4e-3 -1.7031 0.51953-3.1289 1.2578-3.8984zm-6.043-23.035v13.25l68.156-12.375v-14.25z" fill="#ffab30"/>
  </g>
  <g clip-path="url(#clip6)">
   <path d="m374.81 388.5v14.25l68.16 12.375v-13.25z" fill="#ffd982"/>
  </g>
 </g>
 <path d="m171.35 188.9-11.351-57.802-11.351 57.802z"/>
</svg>
