<svg xmlns="http://www.w3.org/2000/svg" viewBox="0 0 45.7 34.7" style="enable-background:new 0 0 45.7 34.7" xml:space="preserve"><path d="M31.9 9.7c0-5-4.1-9.1-9.1-9.1s-9.1 4.1-9.1 9.1c0 1.8.5 3.4 1.4 4.8l7.7 12 7.6-11.8-.1.1c1.1-1.5 1.6-3.2 1.6-5.1zm-9 5.1c-2.8 0-5.1-2.3-5.1-5.1s2.3-5.1 5.1-5.1S28 6.9 28 9.7s-2.3 5.1-5.1 5.1z" style="fill:#7dc5b0"/><path d="m22.9 27.6-8.2-12.7c-1-1.5-1.5-3.3-1.5-5.2 0-5.3 4.3-9.7 9.7-9.7 5.3 0 9.7 4.3 9.7 9.7 0 1.9-.6 3.8-1.7 5.4l-8 12.5zm0-26.4c-4.7 0-8.5 3.8-8.5 8.5 0 1.6.4 3.2 1.3 4.5l7.2 11.2 7.1-11c.9-1.4 1.4-3 1.4-4.7-.1-4.7-3.9-8.5-8.5-8.5zm0 14.2c-3.1 0-5.7-2.6-5.7-5.7S19.7 4 22.9 4s5.7 2.6 5.7 5.7-2.6 5.7-5.7 5.7zm0-10.2c-2.5 0-4.5 2-4.5 4.5s2 4.5 4.5 4.5 4.5-2 4.5-4.5-2.1-4.5-4.5-4.5z" style="fill:#173f4f"/><path d="m22.9 34.7-7.4-6.4L0 33.6l5.5-14.8h9V20H6.3L2 31.6l13.8-4.7 7.1 6.2 7-6.2 13.8 4.7L39.4 20h-8.2v-1.2h9l5.5 14.8-15.5-5.3z" style="fill:#173f4f"/></svg>