<svg version="1.1" id="Group_286" xmlns="http://www.w3.org/2000/svg" x="0" y="0" viewBox="0 0 32.3 38.7" style="enable-background:new 0 0 32.3 38.7" xml:space="preserve"><style>.st0{fill:#7dc5b0}</style><path id="Shape_Copy-2_3_" class="st0" d="M25.4 20.1 1.3 38.5c-.2.2-.6.2-.9.1-.2-.2-.4-.5-.4-.8V.9C0 .6.2.3.4.1.6 0 .7 0 .8 0c.2 0 .4.1.5.2l24.1 18.4c.2.2.4.5.4.8 0 .2-.1.5-.4.7z"/><path class="st0" d="M30.7 1.2c.9 0 1.6.7 1.6 1.6v33.1c0 .9-.7 1.6-1.6 1.6-.9 0-1.6-.7-1.6-1.6V2.8c0-.9.7-1.6 1.6-1.6z"/></svg>