<svg width="39" height="39" xml:space="preserve" xmlns="http://www.w3.org/2000/svg"><g transform="translate(.7 .25)"><circle cx="18.7" cy="7.8" r="7.8" fill="#ed2132"/><path d="m15.8 11.6 2.9-2.8 2.9 2.8 1-1-2.8-2.8 2.8-2.9-1-1-2.9 2.9-2.9-2.9-1 1 2.9 2.9-2.9 2.8z" fill="#eaeaea"/><g fill="#7dc5b0"><path d="m30.5 11.9-2.1 2c2.7 1.1 5.3 2.7 7.4 4.8l1.8-2c-2-2-4.4-3.6-7.1-4.8zm-23.3 0c-2.6 1.2-5.1 2.8-7.2 4.9l1.8 2C4 16.7 6.5 15.1 9.3 14z"/><circle cx="18.9" cy="35.9" r="2.6"/><path d="m11.4 29 1.9 2c1.5-1.5 3.5-2.3 5.7-2.3 2.1 0 4.1.8 5.6 2.2l1.8-2C24.4 27 21.7 26 19 26c-2.9 0-5.6 1.1-7.6 3zm-5.5-5.9 1.8 2c3-2.8 7-4.4 11.1-4.4C23 20.7 27 22.2 30 25l1.8-2c-3.5-3.3-8.1-5.1-12.9-5.1-4.9.1-9.5 1.9-13 5.2z"/></g></g></svg>