<svg xmlns="http://www.w3.org/2000/svg" viewBox="0 0 38.4 29.8" style="enable-background:new 0 0 38.4 29.8" xml:space="preserve"><path d="M19.5 29.8h-.9l-.1-.2c-.1-.1-2.4-3.3-7.6-2.6-2.5.3-4.3 1-5.8 1.6-1.8.7-3.2 1.3-5 .9l.2-.8c1.6.3 2.8-.2 4.6-.9 1.5-.6 3.4-1.4 6-1.7 5-.6 7.6 2.1 8.2 2.8h.3c.6-.7 3.2-3.4 8.2-2.8 2.6.3 4.5 1.1 6 1.7 1.7.7 3 1.2 4.6.9l.2.8c-1.8.4-3.2-.2-5-.9-1.5-.6-3.3-1.3-5.8-1.6-5.2-.7-7.5 2.5-7.6 2.6l-.1.2h-.4z" style="fill:#173f4f"/><path d="M32.4 1.9c-2.9-1.4-10.1-3-13.2 2.8C16.1-1.1 8.9.4 6 1.9 4.4 2.6 3 3 2 3.2 1.1 3.3.5 4 .5 4.9v19.4c0 1.1 1 1.9 2 1.7 2.2-.4 4.4-2 8.6-2.6 5.5-.7 8 2.8 8 2.8s2.5-3.5 8-2.8c4.3.5 6.4 2.2 8.6 2.6 1.1.2 2-.7 2-1.7V4.9c0-.8-.6-1.6-1.4-1.7-.9-.2-2.3-.6-3.9-1.3z" style="fill:#7dc5b0"/><path d="M6 1.9c2.9-1.4 10.1-3 13.2 2.8v21.7s-2.5-3.5-8-2.8c-4.3.5-6.4 2.2-8.6 2.6-1.1.2-2-.7-2-1.7V4.9C.5 4 1.1 3.3 2 3.2c1-.2 2.4-.6 4-1.3z" style="fill:#eaeaea"/><path d="M36.5 2.6c-.9-.2-2.4-.5-3.9-1.3C29-.4 22.4-1.3 19.2 3.5c-3.3-4.8-9.9-4-13.4-2.2-1.6.8-3 1.2-3.9 1.3C.8 2.8 0 3.8 0 4.9v19.4c0 .7.3 1.3.8 1.8.5.4 1.2.6 1.8.5.9-.2 1.8-.5 2.9-.9 1.5-.6 3.3-1.3 5.8-1.6 4.1-.5 6.7 1.8 7.6 2.8.2.2.5.2.7 0 .9-1 3.5-3.3 7.6-2.8 2.5.3 4.2 1 5.8 1.6 1 .4 1.9.8 2.9.9.7.1 1.3-.1 1.8-.5s.8-1.1.8-1.8V4.9c-.1-1.1-.9-2.1-2-2.3zm.8 21.7c0 .4-.2.7-.4.9-.3.2-.6.3-1 .3-.8-.1-1.7-.5-2.6-.9-1.5-.6-3.4-1.4-6-1.7-.5-.1-1-.1-1.5-.1-3 0-4.9 1.2-6 2.1V8.7h-1.1V25c-1.2-1-3.7-2.5-7.5-2-2.6.3-4.5 1.1-6 1.7-1 .4-1.8.7-2.6.9-.3.1-.7 0-1-.3-.3-.2-.4-.6-.4-.9V4.9c0-.6.4-1.1 1-1.2 1-.2 2.5-.6 4.2-1.4 2.3-1.1 9.5-3 12.5 2.6l.5.9.5-.9c3-5.6 10.2-3.7 12.5-2.6 1.6.8 3.2 1.2 4.2 1.4.6.1 1 .6 1 1.2v19.4z" style="fill:#173f4f"/></svg>