<svg version="1.1" id="Group_286" xmlns="http://www.w3.org/2000/svg" x="0" y="0" viewBox="0 0 32.3 38.7" style="enable-background:new 0 0 32.3 38.7" xml:space="preserve"><style>.st0{fill:#7dc5b0}</style><path id="Shape_Copy-2_3_" class="st0" d="M6.8 18.6 30.9.2c.2-.2.6-.2.9-.1.3.2.5.5.4.8v36.9c0 .3-.2.6-.4.8-.1.1-.3.1-.4.1-.2 0-.3-.1-.5-.2L6.8 20.1c-.2-.2-.4-.5-.4-.8.1-.2.2-.5.4-.7z"/><path class="st0" d="M1.6 37.5c-.9 0-1.6-.7-1.6-1.6V2.8c0-.9.7-1.6 1.6-1.6.9 0 1.6.7 1.6 1.6v33.1c0 .9-.7 1.6-1.6 1.6z"/></svg>