<svg xmlns="http://www.w3.org/2000/svg" viewBox="0 0 38.4 38.5" style="enable-background:new 0 0 38.4 38.5" xml:space="preserve"><path style="fill:#eaeaea" d="M27.9 26H10.3c-.4 0-.7.3-.7.7v9.8c0 .4.3.7.7.7h17.6c.4 0 .7-.3.7-.7v-9.8c.1-.4-.3-.7-.7-.7z"/><path d="M34.6 9.4H3.8c-1.4 0-2.6 1.2-2.6 2.8v13.7c0 1.5 1.2 2.8 2.6 2.8h4.5v-2c0-1.1.9-2 2-2h17.6c1.1 0 2 .9 2 2v2h4.6c1.4 0 2.6-1.2 2.6-2.8V12.2c.1-1.5-1.1-2.8-2.5-2.8z" style="fill:#7dc5b0"/><path style="fill:#eaeaea" d="M28.7 2c0-.4-.3-.7-.7-.7H10.3c-.4 0-.7.3-.7.7v6.1h19.1V2z"/><path style="fill:#173f4f" d="M34.6 8.2H30V2c0-1.1-.9-2-2-2H10.3c-1.1 0-2 .9-2 2v6.1H3.8C1.7 8.2 0 10 0 12.2v13.7C0 28.1 1.7 30 3.8 30h4.5v6.5c0 1.1.9 2 2 2h17.6c1.1 0 2-.9 2-2V30h4.6c2.1 0 3.8-1.8 3.8-4.1V12.2c.1-2.2-1.6-4-3.7-4zM9.6 2c0-.4.3-.7.7-.7h17.6c.4 0 .7.3.7.7v6.1h-19V2zm19.1 26.7v7.8c0 .4-.3.7-.7.7H10.3c-.4 0-.7-.3-.7-.7v-9.8c0-.4.3-.7.7-.7h17.6c.4 0 .7.3.7.7v2zm8.5-2.8c0 1.5-1.2 2.8-2.6 2.8H30v-2c0-1.1-.9-2-2-2H10.3c-1.1 0-2 .9-2 2v2H3.8c-1.4 0-2.6-1.2-2.6-2.8V12.2c0-1.5 1.2-2.8 2.6-2.8h30.8c1.4 0 2.6 1.2 2.6 2.8v13.7z"/><circle style="fill:#173f4f" cx="8.9" cy="16.8" r="2"/></svg>