<svg width="25.807" height="25.9" xml:space="preserve" xmlns="http://www.w3.org/2000/svg"><style>.st2{fill:#7dc5b0}</style><path d="M7.394 5.1v.1c-.4 1.1-1.1 1.9-2.2 2.3h-.2c-.5-.1-.9-.2-1.4-.4-.2-.1-.4 0-.4.2-.4.9-.7 1.8-1.1 2.7-.1.2 0 .3.2.5l1.2.6c.1 0 .2.1.2.2.5 1 .5 2.1.1 3.1 0 .1-.1.2-.2.3-.4.2-.8.4-1.2.7-.3.1-.3.3-.2.5.4.9.7 1.7 1.1 2.6.1.3.2.3.5.2.4-.1.8-.3 1.2-.4h.2c1.1.4 1.9 1.1 2.4 2.2v.3c-.1.4-.2.9-.4 1.3-.1.2 0 .4.2.4.9.4 1.8.7 2.6 1.1.3.1.4.1.5-.2.2-.4.4-.8.6-1.1 0-.1.1-.2.2-.2 1-.5 2.1-.6 3.2-.1.1 0 .2.1.2.2.2.4.4.8.7 1.2.1.2.2.3.5.2.9-.4 1.7-.7 2.6-1.1.2-.1.3-.2.2-.5-.1-.4-.3-.8-.4-1.2v-.3c.4-1.1 1.1-1.9 2.2-2.3h.3c.4.1.9.2 1.3.4.2.1.4 0 .4-.2.4-.9.7-1.8 1.1-2.7.1-.2 0-.4-.2-.5-.4-.2-.8-.4-1.1-.6-.1-.1-.2-.2-.2-.3-.5-1-.5-2.1-.1-3.1 0-.1.1-.2.2-.3.4-.2.8-.4 1.1-.7.3-.1.3-.3.2-.5-.4-.9-.7-1.7-1.1-2.6-.1-.2-.2-.3-.5-.2-.4.1-.8.2-1.2.4h-.4c-1.1-.4-1.8-1.1-2.2-2.2v-.3c.1-.5.2-.9.4-1.4.1-.2 0-.3-.2-.4-.9-.4-1.8-.7-2.7-1.1-.2-.1-.3 0-.5.2l-.6 1.2c-.1.1-.1.2-.2.2-1 .5-2 .5-3.1.1-.1 0-.2-.1-.3-.2-.2-.4-.4-.8-.7-1.1-.1-.3-.3-.3-.5-.2-.9.4-1.7.7-2.6 1.1-.2.1-.3.2-.2.5l.3.9c.1.1.2.3.2.5z" fill="#fff"/><path d="m9.694 24.5-2.6-1.1c-.7-.3-1-.9-.8-1.6l.3-1.2c-.3-.7-.8-1.1-1.5-1.4l-1.2.4h-.3c-.3 0-.9-.1-1.2-.9l-1.1-2.6c-.3-.7-.1-1.4.6-1.8 0 0 .9-.5 1.1-.6.2-.6.2-1.3-.2-2l-1-.6c-.7-.4-.9-1-.6-1.7l1.1-2.7c.3-.8.9-.8 1.2-.8l.3.1 1.2.3c.7-.3 1.1-.8 1.4-1.5l-.3-1.1c-.2-.7.1-1.3.8-1.6l2.8-1.2.4-.1c.5 0 .9.2 1.1.7 0 0 .5.9.6 1.1.2 0 .5.1.9.1s.8-.1 1.2-.3l.5-1c.3-.6.8-.7 1.1-.7h.2l.4.1 2.7 1.1c.7.3 1 .9.8 1.6l-.3 1.2c.3.7.8 1.2 1.6 1.4.1-.1.3-.2.6-.2l.6-.2h.3c.3 0 .9.1 1.2.8l.9 2.9c.3.8.1 1.4-.6 1.8 0 0-.9.5-1.1.6-.2.6-.2 1.3.2 2.1.1 0 .3.1.6.2l.3.2c.7.4.9 1 .6 1.7l-1 2.7c-.3.8-.9.8-1.2.8h-.1l-.3-.1-1.1-.3c-.7.3-1.2.9-1.5 1.6l.2.5.1.5c.2.7-.1 1.3-.8 1.6l-2.8 1.2-.4.1c-.3 0-.8-.1-1.1-.7l-.6-1c-.3-.1-.7-.2-1-.2-.4 0-.7.1-1.1.2l-.5 1c-.3.6-.8.7-1.1.7h-.2zm3.2-17.9c-3.5 0-6.3 2.8-6.3 6.2 0 3.5 2.8 6.3 6.2 6.3 3.5 0 6.3-2.8 6.3-6.2 0-3.5-2.8-6.3-6.2-6.3v-1z" style="fill:#eaeaea"/><path d="M15.494 2h.2c.9.4 1.8.7 2.7 1.1.2.1.3.2.2.4-.1.5-.3.9-.4 1.4v.3c.4 1.1 1.2 1.8 2.2 2.2h.4c.4-.1.8-.2 1.2-.4h.2c.1 0 .2.1.3.3.4.9.7 1.7 1.1 2.6.1.3.1.4-.2.5-.4.2-.8.4-1.1.7-.1.1-.2.2-.2.3-.4 1-.4 2.1.1 3.1 0 .1.1.2.2.3.4.2.8.4 1.1.6.2.1.3.2.2.5-.4.9-.7 1.8-1.1 2.7-.1.2-.1.2-.3.2h-.2c-.4-.1-.9-.3-1.3-.4h-.3c-1.1.4-1.8 1.2-2.2 2.3v.3c.1.4.2.8.4 1.2.1.3 0 .4-.2.5-.9.4-1.7.7-2.6 1.1-.1 0-.2.1-.2.1-.1 0-.2-.1-.3-.2-.2-.4-.4-.8-.7-1.2-.1-.1-.1-.2-.2-.2-.5-.2-1-.3-1.5-.3-.6 0-1.1.1-1.7.4-.1 0-.2.1-.2.2-.2.4-.4.8-.6 1.1-.1.2-.2.2-.3.2s-.1 0-.2-.1c-.9-.4-1.8-.7-2.6-1.1-.2-.1-.3-.2-.2-.4.1-.4.3-.9.4-1.3v-.3c-.4-1.1-1.2-1.9-2.4-2.2h-.2c-.4.1-.8.2-1.2.4h-.2c-.1 0-.2-.1-.3-.3-.4-.9-.7-1.7-1.1-2.6-.1-.3-.1-.4.2-.5.4-.2.8-.4 1.2-.7.1-.1.2-.2.2-.3.5-1.1.4-2.1-.1-3.1 0-.1-.1-.2-.2-.2l-1.2-.6c-.2-.1-.3-.2-.2-.5.4-.9.7-1.8 1.1-2.7.1-.2.1-.2.3-.2h.2c.5.1.9.3 1.4.4h.2c1.1-.4 1.8-1.2 2.2-2.3v-.1c0-.2-.1-.3-.1-.5l-.3-.9c-.1-.2 0-.4.2-.5.9-.4 1.7-.7 2.6-1.1.1 0 .2-.1.2-.1.1 0 .2.1.3.2.2.4.4.8.7 1.1.1.1.2.2.3.2.5.2 1 .3 1.5.3s1.1-.1 1.6-.4c.1 0 .2-.1.2-.2l.6-1.2s.1-.1.2-.1m-2.7 18.1c4 0 7.3-3.2 7.3-7.2s-3.2-7.3-7.2-7.3-7.3 3.2-7.3 7.2 3.2 7.3 7.2 7.3m2.7-20.1c-.4 0-1.4.1-2 1.2l-.2.4c-.1.1-.1.2-.2.3-.1 0-.3.1-.4.1h-.3c-.1-.1-.1-.2-.2-.3l-.2-.3c-.6-1.1-1.5-1.2-2-1.2-.3 0-.7.1-1 .2l-2.6 1c-1.1.5-1.7 1.6-1.3 2.8l.2.6.1.2c-.1.2-.3.4-.5.5l-.8-.2c-.2-.1-.5-.1-.7-.1-.9 0-1.7.6-2.1 1.4-.4.9-.7 1.8-1.1 2.7-.5 1.1 0 2.3 1.1 2.9l.3.2c.1.1.2.1.4.2.1.2.1.5 0 .7-.1.1-.2.1-.3.2l-.3.2c-1.1.6-1.5 1.8-1 3l1.1 2.6c.6 1.3 1.7 1.5 2.1 1.5.2 0 .5 0 .8-.1l.4-.1.3-.1c.2.1.4.3.5.5 0 .1-.1.2-.1.3l-.1.5c-.3 1.2.2 2.3 1.4 2.8.9.4 1.8.7 2.6 1.1.3.1.6.2.9.2.4 0 1.4-.1 2-1.3l.2-.3c.1-.1.1-.2.2-.4.1 0 .3-.1.4-.1h.3c.1.1.1.2.2.3l.2.4c.6 1.1 1.5 1.2 2 1.2.3 0 .6-.1 1-.2l2.6-1.1c1.2-.5 1.7-1.6 1.3-2.8l-.1-.5c0-.1-.1-.2-.1-.3.1-.2.3-.4.5-.5.1 0 .2.1.3.1l.4.1c.2.1.5.1.7.1.9 0 1.7-.6 2.1-1.4.4-.9.7-1.8 1.1-2.7.5-1.2 0-2.3-1.1-2.9l-.3-.2c-.1-.1-.2-.1-.3-.2-.1-.2-.1-.5 0-.7.1-.1.2-.1.4-.2l.3-.2c1.1-.6 1.5-1.8 1-3l-1.3-2.7c-.6-1.3-1.7-1.4-2.1-1.4-.2 0-.5 0-.7.1l-.4.1c-.1 0-.2.1-.3.1-.2-.1-.4-.3-.5-.5 0-.1.1-.2.1-.3l.1-.5c.3-1.2-.2-2.3-1.4-2.8-.9-.4-1.8-.7-2.7-1.1-.3 0-.6-.1-.9-.1zm-2.7 18.1c-1.4 0-2.7-.6-3.7-1.6s-1.5-2.4-1.5-3.8c0-2.9 2.4-5.2 5.3-5.2 1.4 0 2.7.6 3.7 1.6s1.5 2.4 1.5 3.8c0 2.9-2.3 5.2-5.3 5.2z" style="fill:#173f4f"/><path class="st2" d="M12.894 18.6c3.2 0 5.8-2.6 5.8-5.8s-2.6-5.8-5.8-5.8c-3.2 0-5.8 2.6-5.8 5.8s2.6 5.8 5.8 5.8z"/><path class="st2" d="M12.894 18.6c-3.2 0-5.8-2.6-5.8-5.8s2.6-5.8 5.8-5.8c3.2 0 5.8 2.6 5.8 5.8s-2.7 5.8-5.8 5.8z"/></svg>