<svg xmlns="http://www.w3.org/2000/svg" viewBox="0 0 31.8 36.6" style="enable-background:new 0 0 31.8 36.6" xml:space="preserve"><path d="M6 13.8c-2.5 0-4.5 2-4.5 4.5s2 4.5 4.5 4.5 4.5-2 4.5-4.5-2-4.5-4.5-4.5z" style="fill:#eaeaea"/><path d="M25.7 10.5c2.5 0 4.5-2 4.5-4.5s-2-4.5-4.5-4.5-4.5 2-4.5 4.5 2 4.5 4.5 4.5zm0 24.5c2.5 0 4.5-2 4.5-4.5s-2-4.5-4.5-4.5-4.5 2-4.5 4.5 2 4.5 4.5 4.5z" style="fill:#7dc5b0"/><path d="M25.7 12.1c3.3 0 6-2.7 6-6s-2.7-6-6-6-6 2.7-6 6c0 .9.2 1.7.6 2.5l-9.6 6c-1.1-1.4-2.8-2.3-4.7-2.3-3.3 0-6 2.7-6 6s2.7 6 6 6c1.9 0 3.5-.9 4.7-2.2l9.6 6c-.3.8-.5 1.6-.5 2.5 0 3.3 2.7 6 6 6s6-2.7 6-6-2.7-6-6-6c-1.9 0-3.5.9-4.7 2.2l-9.6-6c.3-.8.5-1.6.5-2.5 0-.9-.2-1.7-.5-2.5l9.6-6c1.1 1.4 2.7 2.3 4.6 2.3zm0-10.5c2.5 0 4.5 2 4.5 4.5s-2 4.5-4.5 4.5-4.5-2-4.5-4.5 2-4.5 4.5-4.5zM6 22.8c-2.5 0-4.5-2-4.5-4.5s2-4.5 4.5-4.5 4.5 2 4.5 4.5-2 4.5-4.5 4.5zm19.7 3.3c2.5 0 4.5 2 4.5 4.5s-2 4.5-4.5 4.5-4.5-2-4.5-4.5 2-4.5 4.5-4.5z" style="fill:#173f4f"/></svg>