<svg xmlns="http://www.w3.org/2000/svg" viewBox="0 0 34.6 38.7" style="enable-background:new 0 0 34.6 38.7" xml:space="preserve"><path d="M0 26.5V11.8c0-.3.3-.6.6-.6 2.3 0 4.9-.1 7.2 0 .3 0 .5-.1.7-.3 3.3-3 9.4-8.7 11.7-10.8.4-.3.9-.1.9.4v37.6c0 .5-.6.7-.9.4-2.4-2.2-9-8.3-11.8-10.9-.1-.1-.3-.2-.4-.2H.9c-.5-.1-.9-.4-.9-.9zm29.6 7.7c-.2.2-.5.3-.7.1-.9-.9-1.6-1.8-2.5-2.7-.4-.4-.9-.8-.9-1.1 0-.3.4-.7.7-1.2 1.4-2.2 2.4-4.6 2.9-7.2.7-3.6 0-7-1.8-10.2-.8-1.4-1.8-2.8-2.7-4.2-.1-.2-.1-.4 0-.5.9-1.2 1.9-2.6 3-3.9.2-.2.5-.2.7 0 3.1 3.8 5.4 8 6 12.8 1 6.4-1 12.6-4.7 18.1z" style="fill:#7dc5b0"/></svg>