<svg xmlns="http://www.w3.org/2000/svg" viewBox="0 0 256.2 222.4" style="enable-background:new 0 0 256.2 222.4" xml:space="preserve"><path d="M128.1 10.5c60.5 0 106.3 51.2 106.3 105.9.3-3.2.5-6.4.5-9.7C234.9 47.8 187.1 0 128.1 0S21.3 47.8 21.3 106.8c0 3.3.2 6.5.5 9.7 0-54.5 45.5-106 106.3-106z" style="fill:#09676a"/><path d="M128.1 46.2c-.7 13.2-9.6 20-18.8 26.6-2.8 2-5.7 3.8-8.2 6.1-4.8 4.5-9.9 8.8-13.6 14.1-6.4 9.1-3.4 19.9 6.7 25 4.3 2.2 9.1 3.5 13.7 4.9 10.3 3.3 14.6 8.8 14.1 19.2-3.6-10.2-12.4-13.3-21.4-16.1-1.9-.6-3.7-1.3-5.6-2-8.5-3.4-12.4-9.6-13.1-18.8C81.1 93 86 83.9 95.6 76.9c7.2-5.3 14.4-10.5 21.4-16.1 5.9-4.7 9.2-11.1 10.3-18.5.1-.6.4-1.2.8-2.5.4 1.3.6 1.8.7 2.4 1.6 11.2 8.9 18.5 17.5 24.7 5.1 3.7 10.4 7.2 15.4 11 10.8 8 14.2 18.8 12 31.7-1.1 6.6-4.9 11.3-11 13.9-4 1.7-8.1 3-12.2 4.5-9.1 3.3-12.4 6.3-16.4 14.7-1-8.4 2.8-15.2 10.6-18.2 3.9-1.5 8.1-2.4 12-4 3.3-1.4 7-2.9 9.5-5.4 6.5-6.5 8.5-12.9 3.3-21.2-4.2-6.8-10.1-11.7-16.3-16.4-3.3-2.4-6.6-4.8-9.9-7.3-8.1-6-14.7-12.9-15.2-24z" style="fill:#7dc5b0"/><path d="M176.3 108.6c2.4 15.2-2.4 23.1-16.3 27.3-1.9.6-3.8 1.1-5.7 1.7-8.2 2.4-15.3 6.2-18.2 16.4-.2-12.1 3.7-17.7 13.7-21.2 3.6-1.3 7.3-2.2 10.9-3.4 8.5-2.8 13.5-8.7 14.9-17.6.1-1 .3-1.8.7-3.2zm-96.2 0c.8 11.6 7 18.7 18 21.7 3.7 1 7.3 2.1 10.9 3.5 7.7 3.1 11.3 9.2 10.7 18.7-3.7-10.3-11.9-13.3-20.5-15.7-.8-.2-1.5-.5-2.3-.7-15-4.6-19.5-12-16.8-27.5zm10.2 1.4c-1.5-8.4 1.1-14.6 6.6-19.3 4.8-4.1 10-7.7 15.1-11.4 7.3-5.4 14-11.1 15.6-20.8.3 7.7-1.7 14.4-7.8 19.3-5.1 4.1-10.4 8-15.6 12-6.5 5.1-12 10.8-13.9 20.2zm41.2 21.8c-.3-8.1 2.8-12.7 10.1-15.5 2.3-.9 4.7-1.6 7.1-2.2 9.5-2.4 15.5-8 16.5-18.8 2.2 12.6-1.5 18.9-12.7 22.8-2 .7-4 1.3-6 1.9-6.6 1.8-12.2 4.8-15 11.8zm-3.9-58.4c0 5.2-1.2 9.9-5.3 13.4-4.2 3.5-8.7 6.8-13 10.2-4.9 3.9-9.3 8.2-11.1 15.3-1.1-5.1 0-9 3-11.9 3.7-3.7 7.9-6.9 12.1-10 6-4.6 12.2-9 14.3-17z" style="fill:#7dc5b0"/><path d="M0 131c22.4 61.1 102.7 38.2 128.1 75-10.8-62.7-99.4-37.1-128.1-75zm128.1 75c25.4-36.8 105.7-13.8 128.1-75-28.7 37.9-117.3 12.3-128.1 75z" style="fill:#09676a"/><path d="M21.3 119.7c20.4 38.4 92.4 28.1 106.8 60.8-8.1-45.8-80.2-32.6-106.8-60.8zm213.6 0c-20.4 38.4-92.4 28.1-106.8 60.8 8.1-45.8 80.2-32.6 106.8-60.8zm-173 102.8s63.4-28.4 132.5 0c-.1 0-61.9-45.7-132.5 0z" style="fill:#7dc5b0"/></svg>