<svg xmlns="http://www.w3.org/2000/svg" viewBox="0 0 311.9 255.8" style="enable-background:new 0 0 311.9 255.8" xml:space="preserve"><path d="M189.3 101c-8.1-11.9-19.6-19.9-31.9-26.9-.6-.4-1.8-.4-2.5-.1-12.6 6.8-24 15.2-32.2 27.1-5.7 8.3-9.2 17.3-9.2 27.8.3 39.8.1 79.6.1 119.5v4.7c7.4-7 15.7-9.6 24.6-10.2 9.8-.7 19.7-.9 29.5-.6 11 .3 21.6 2.3 30.6 10.7v-4.4c0-40.1-.1-80.1.1-120.2.2-10.3-3.5-19.2-9.1-27.4zm92 48.2c-4.1-12.5-13.9-19.3-25.2-24.3-.8-.4-2.4 0-3.2.6-4.8 3.3-9.8 6.4-14.2 10.3-7.3 6.6-11.4 14.8-11.2 25.1.3 22.3.1 44.5.1 66.8v13.4c18.3-9.4 36.4-10.7 55-.8.1-1.1.2-1.5.2-2 0-27 .1-53.9 0-80.9-.2-2.7-.7-5.6-1.5-8.2zm-198.9-2.4c-4.6-11.1-13.8-17.4-24.4-21.9-.8-.4-2.3.1-3.2.7-4.4 2.9-8.9 5.7-12.9 9.1-8.5 7.3-12.8 16.4-12.6 28.1.4 24.6.1 49.2.1 73.8v4.6c18.4-9.3 36.4-10.7 55-.8.1-.9.2-1.3.2-1.8 0-27 .1-54.1 0-81.1 0-3.7-.8-7.4-2.2-10.7z" style="fill:#39aa7c"/><path d="M291.4 253.7c-.5-.8-.3-2.7-.3-4.2.1-31.5.2-62.9.2-94.4 0-2.4-.2-4.7-.7-7-2.1-10.2-8.3-17.8-16.2-24.1-5.4-4.3-11.3-8-16.8-11.8-.5-.3-.9-.5-1.4-.6v-.3c4.4.5 7.7-2.9 7.7-2.9-.9.4-6.2 1.2-9.2-2.1-3.1-3.4-.6-10.1-.6-10.1-6 3.6-5.4 12.4 0 14.6l.9.3v.3c-.6 0-1.1.3-2.2.9-4.4 2.5-9.5 5.1-14.2 8.3-13.1 8.9-20.1 20.8-19.9 37.2.4 27.9.1 55.8 0 83.7v3.5c-2 .2-3.6.3-5.4.5-.1-1.4-.2-2.4-.2-3.4V129.9c0-10.9-2.5-21.2-7.6-30.7-10-18.8-25.7-31.3-44.6-40.2-.6-.3-2.2-1.3-3.8-1.9v-.7c8.8 1.1 15.4-5.7 15.4-5.7-1.7.8-12.2 2.3-18.2-4.2-6.2-6.7-1.3-19.9-1.3-19.9-11.9 7.2-10.7 24.5 0 28.8.7.3 1.4.5 2.1.7v1c-1.5.6-3.3 1.5-4.5 2.2-7.6 4.6-15.6 8.8-22.5 14.2-19.2 15.2-29.4 35-29.3 59.9.2 36.1.1 72.2.1 108.3v3.8c-2.1-.3-3.8-.4-5.6-.7v-4.2c0-27.7-.1-55.3.1-83 .1-14.2-5.6-25.5-16.4-34.1-5.4-4.3-11.6-8.1-17.2-11.2-.7-.4-1.3-.8-1.8-.9v-.4c4.4.5 7.6-2.9 7.6-2.9-.9.4-6.2 1.2-9.2-2.1-3.1-3.4-.6-10.1-.6-10.1-6 3.6-5.4 12.4 0 14.6.3.1.7.2 1 .3v.5c-.2 0-.3.1-.5.2-.7.3-1.1.5-2.3 1.4-.3.2-1.4.8-2.4 1.5-4.2 2.8-8.5 5.4-12.4 8.6-12.1 10-19.3 22.2-18.5 38.6.6 13.1.1 26.2.1 39.4 0 16.4 0 32.8-.1 49.2 0 1.2.3 2.9-.5 3.3-.4.2-1.7.5-2.2.6v1c6.5-1.2 13.6-2.4 19.4-3.1 18.1-2.2 36.3-1.8 54.4-.2 4.5.4 9 1.1 13.9 1.8.1-1 .2-1.4.2-1.8 0-40.2-.2-80.3.1-120.5 0-6.3 1.1-12.7 3.2-18.7 8.1-22.8 24.5-38.4 45.4-49.5 1-.5 2.9-.1 4.1.5 12.2 6.6 23 14.9 31.5 25.9 10.2 13.3 16.5 27.9 16.3 45.3-.4 38-.1 75.9-.1 113.9v4.8c29.1-3.7 52.6-5.6 85.7 1.8.7.1 1.2.3 1.8.4v-.9c-1.1-.4-2.4-.9-2.5-1.1zM90.6 243.2c0 .3-.1.7-.2 1.5-22.4-1.1-44.4 2-66.7 7.9v-4.9c0-28.5.5-56.9-.2-85.4-.4-15.3 5.5-27 16.7-36.4 4.5-3.7 9.6-6.7 14.5-9.9 2.3-1.5 2.8-.8 3.9-.4 11.9 5.1 22.3 12.2 28 24.2 2.2 4.5 3.7 9.8 3.8 14.8.4 29.6.2 59.1.2 88.6zm197.8 6.6c0 .7 0 1.4-.1 2.4-21.8-5.7-43.8-8.6-66.6-7.4v-3.7c0-27.8.4-55.5 0-83.3-.2-14.1 5.3-25.1 16.5-33.1 5.3-3.8 11.4-6.4 17.1-9.5 5.3 3.2 10.9 6 15.8 9.7 8 6 14.5 13.4 16.9 23.5.4 1.8.7 3.7.7 5.6-.3 31.9-.3 63.9-.3 95.8z" style="fill:#39aa7c"/><path d="M189.3 101c-8.1-11.9-19.6-19.9-31.9-26.9-.5-.3-1.4-.4-2-.2v168.4c4.1-.1 8.3-.1 12.4.1 11 .3 21.6 2.3 30.6 10.7v-4.4c0-40.1-.1-80.1.1-120.2.1-10.4-3.6-19.2-9.2-27.5zm63.5 24.5c-4.8 3.3-9.8 6.4-14.2 10.3-7.3 6.6-11.4 14.8-11.2 25.1.3 22.3.1 44.5.1 66.8v13.4c9.2-4.7 18.4-7.4 27.5-7.7V124.7c-.7.1-1.6.4-2.2.8zm-198 0c-4.4 2.9-8.9 5.7-12.9 9.1-8.5 7.3-12.8 16.4-12.6 28.1.4 24.6.1 49.2.1 73.8v4.6c9.2-4.7 18.4-7.4 27.5-7.6V124.8c-.6 0-1.5.3-2.1.7z" style="fill:#00845e"/><path style="fill:#39aa7c" d="m162.1 35 1.3 2.5 2.8.4-2 2 .5 2.8-2.6-1.3-2.5 1.3.5-2.8-2.1-2 2.9-.4zm95.8 64.1.9 1.9 2.1.3-1.5 1.4.3 2.1-1.8-1-1.8 1 .3-2.1-1.5-1.4 2.1-.3zm-197.5 0 1 1.9 2 .3-1.5 1.4.4 2.1-1.9-1-1.8 1 .4-2.1-1.5-1.4 2-.3z"/><path style="fill:#00845e" d="m23.1 36.9 1.3 2.5 2.8.5-2.1 2 .5 2.8-2.5-1.4-2.5 1.4.5-2.8-2.1-2 2.8-.5zM58.6 9.3l1.3 2.6 2.8.4-2 2 .4 2.8-2.5-1.4-2.5 1.4.5-2.8-2.1-2 2.8-.4zm32.1 57.8 1.3 2.5 2.8.4-2 2 .4 2.9-2.5-1.4-2.5 1.4.5-2.9-2.1-2 2.8-.4zm109-2.9 1.2 2.6 2.9.4-2.1 2 .5 2.8-2.5-1.3-2.6 1.3.5-2.8-2-2 2.8-.4zm52.4-56.4.9 1.9 2.1.3-1.5 1.4.4 2.1-1.9-1-1.8 1 .3-2.1-1.5-1.4 2.1-.3zM37.3 56.1l2.4 4.9 5.4.8-3.9 3.8.9 5.4-4.8-2.6-4.8 2.6.9-5.4-3.9-3.8 5.4-.8zM159.4 0l1.3 2.6 2.8.4-2 2 .4 2.8-2.5-1.3-2.5 1.3.5-2.8-2.1-2 2.8-.4zm44.4 23.8 1.2 2.6 2.9.4-2.1 2 .5 2.8-2.5-1.3-2.6 1.3.5-2.8-2-2 2.8-.4zm87.4 6.3 1.3 2.6 2.8.4-2.1 2 .5 2.8-2.5-1.3-2.5 1.3.4-2.8-2-2 2.8-.4zm-38 25.6 1.2 2.6 2.9.4-2.1 2 .5 2.8-2.5-1.3-2.6 1.3.5-2.8-2-2 2.8-.4zM215 101.9l.9 1.9 2.1.3-1.5 1.5.3 2-1.8-1-1.9 1 .4-2-1.5-1.5 2.1-.3zM93.7 27.3l.9 1.9 2.1.3-1.5 1.4.3 2.1-1.8-1-1.9 1 .4-2.1-1.5-1.4 2.1-.3zm25.8 23.1.9 1.9 2.1.3-1.5 1.5.3 2-1.8-1-1.8 1 .3-2-1.5-1.5 2.1-.3zM4.1 92.8l1.3 2.6 2.8.4-2.1 2 .5 2.8-2.5-1.3-2.5 1.3.4-2.8-2-2 2.8-.4zm74.4 11.7 1.9 3.9 4.4.7-3.2 3 .8 4.4-3.9-2.1-3.9 2.1.7-4.4-3.1-3 4.3-.7zm227.2-24.9 1.9 3.9 4.3.6-3.1 3 .7 4.2-3.8-2-3.8 2 .7-4.2-3-3 4.2-.6z"/></svg>