<svg xmlns="http://www.w3.org/2000/svg" viewBox="0 0 252 252" style="enable-background:new 0 0 252 252" xml:space="preserve"><path style="fill:#0a676a" d="M0 0h252v252H0z"/><path d="M126 45.7c48.1 0 84.6 40.8 84.6 84.4.3-2.6.4-5.1.4-7.7 0-46.9-38.2-85-85.1-85s-85.1 38.1-85.1 85.1c0 2.7.2 5.2.4 7.7.2-43.4 36.3-84.5 84.8-84.5z" style="fill:#7dc5b0"/><path d="M126 74.1c-.5 10.5-7.6 15.9-15 21.2-2.2 1.6-4.6 3-6.5 4.9-3.8 3.6-7.9 7-10.8 11.3-5.1 7.2-2.7 15.8 5.3 19.9 3.4 1.7 7.2 2.7 10.9 3.9 8.2 2.7 11.6 7 11.3 15.3-2.8-8.2-9.9-10.6-17-12.8-1.5-.5-2.9-1-4.5-1.6-6.8-2.7-9.9-7.6-10.4-15-.9-9.7 3.2-16.9 10.8-22.6 5.8-4.2 11.4-8.3 17-12.8 4.7-3.8 7.3-8.9 8.2-14.8.1-.5.3-.9.6-2 .3 1 .5 1.5.5 1.9 1.4 8.9 7.2 14.8 14.1 19.7 4 2.9 8.2 5.8 12.3 8.8 8.6 6.4 11.3 15 9.5 25.3-.9 5.2-3.9 9-8.8 11.1-3.2 1.4-6.4 2.4-9.7 3.6-7.2 2.7-9.9 5-13.1 11.7-.8-6.7 2.2-12.1 8.4-14.5 3.1-1.2 6.4-1.9 9.5-3.2 2.7-1.1 5.6-2.3 7.6-4.3 5.2-5.2 6.8-10.3 2.7-16.9-3.4-5.4-8.1-9.3-13-13.1-2.7-1.9-5.2-3.8-7.9-5.8-6.3-4.8-11.7-10.3-12-19.2z" style="fill:#fff"/><path d="M164.3 123.9c1.9 12.1-1.9 18.4-13 21.7-1.5.5-3 .9-4.6 1.4-6.5 1.9-12.2 4.9-14.5 13.1-.2-9.6 2.9-14.1 10.9-16.9 2.8-1 5.8-1.7 8.7-2.7 6.8-2.2 10.7-7 11.9-14 .1-.8.4-1.4.6-2.6zm-76.6 0c.6 9.3 5.6 14.9 14.4 17.3 2.9.8 5.8 1.6 8.7 2.7 6.1 2.5 9 7.3 8.5 14.9-2.9-8.2-9.5-10.6-16.3-12.5-.6-.2-1.2-.4-1.8-.5-12-3.7-15.7-9.6-13.5-21.9zm8.2 1.2c-1.2-6.7.9-11.6 5.2-15.4 3.8-3.3 8-6.1 11.9-9.1 5.8-4.3 11.2-8.9 12.5-16.6.3 6.1-1.4 11.4-6.2 15.4-4 3.3-8.2 6.4-12.5 9.5-5 4-9.4 8.7-10.9 16.2zm32.8 17.2c-.3-6.4 2.2-10.1 8.1-12.4 1.8-.7 3.8-1.3 5.7-1.7 7.6-1.9 12.4-6.4 13.1-15 1.7 10.1-1.2 15-10.1 18.1l-4.8 1.5c-5.4 1.6-9.8 4-12 9.5zm-3.2-46.4c0 4.1-.9 7.9-4.2 10.7-3.4 2.7-7 5.4-10.4 8.2-3.9 3.1-7.3 6.5-8.9 12.2-.9-4 0-7.1 2.4-9.5 2.9-2.9 6.3-5.5 9.6-8 5-3.7 9.9-7.2 11.5-13.6z" style="fill:#fff"/><path d="M23.9 141.8c17.9 48.6 81.8 30.4 102.1 59.7-8.6-49.9-79.2-29.6-102.1-59.7zM126 201.5c20.2-29.3 84.2-11 102.1-59.7-23 30.1-93.6 9.8-102.1 59.7z" style="fill:#7dc5b0"/><path d="M40.9 132.7c16.2 30.6 73.6 22.4 85.1 48.5-6.4-36.6-63.9-26.1-85.1-48.5zm170.2 0c-16.2 30.6-73.6 22.4-85.1 48.5 6.4-36.6 63.8-26.1 85.1-48.5zM73.2 214.6s50.5-22.6 105.4 0c.2 0-49.1-36.4-105.4 0z" style="fill:#fff"/></svg>